<svg xmlns="http://www.w3.org/2000/svg" viewBox="0 0 15.46 15.46"><title>Asset 5</title><path d="M8.81,7.38c0,1-1,2.63-1,3.38a.37.37,0,0,0,.37.39c.27,0,.57-.26.81-.7,0-.06.18,0,.16.07a2.06,2.06,0,0,1-1.88,1.17A1.19,1.19,0,0,1,6,10.43C6,9.42,7,8,7,7.07c0-.26-.12-.42-.36-.42s-.48.2-.79.72c0,.06-.18,0-.16-.07A1.93,1.93,0,0,1,7.47,6.14,1.24,1.24,0,0,1,8.81,7.38Zm.11-4a.78.78,0,0,1,.83.79A1.26,1.26,0,0,1,8.49,5.35a.77.77,0,0,1-.83-.79A1.26,1.26,0,0,1,8.92,3.35Z" fill="#fff"/><circle cx="7.73" cy="7.73" r="7.23" fill="none" stroke="#fff" stroke-miterlimit="10"/></svg>