<svg xmlns="http://www.w3.org/2000/svg" viewBox="0 0 23.51 23.5">
    <title>social_mail</title>
    <path class="cls-2" d="M23.34.32,23.27.24,23.18.16A.72.72,0,0,0,22.55,0L.56,10.93l0,0a.71.71,0,0,0-.5.51.73.73,0,0,0,0,.38H0v0a.76.76,0,0,0,.1.21l.08.09.12.11.12.06.1.05,6.67,3.18,3.88,7.37a42.65,42.65,0,0,1,.11.22.77.77,0,0,0,.11.12l.09.08a.77.77,0,0,0,.21.1h0a.73.73,0,0,0,.38,0,.71.71,0,0,0,.5-.5l0,0L23.48,1A.72.72,0,0,0,23.34.32ZM2.43,11.65l16.4-8.14L7.62,14.13Zm9.39,9.5-3.15-6L20.22,4.22Z"/>
</svg>
