<svg xmlns="http://www.w3.org/2000/svg" viewBox="0 0 16.7 13.57"><defs><style>.cls-1{fill:#fcfafa;}</style></defs><title>social_tw</title><g id="Layer_2" data-name="Layer 2"><g id="Content"><g id="twitter"><g id="twitter-icon"><path class="cls-1" d="M16.7,1.61a6.84,6.84,0,0,1-2,.54A3.44,3.44,0,0,0,16.24.25a6.83,6.83,0,0,1-2.17.83A3.43,3.43,0,0,0,8.23,4.21,9.73,9.73,0,0,1,1.16.63,3.43,3.43,0,0,0,2.22,5.2,3.41,3.41,0,0,1,.67,4.78a3.43,3.43,0,0,0,2.75,3.4,3.48,3.48,0,0,1-1.55.06,3.42,3.42,0,0,0,3.2,2.38A6.91,6.91,0,0,1,0,12a9.7,9.7,0,0,0,5.25,1.54A9.69,9.69,0,0,0,15,3.38,7,7,0,0,0,16.7,1.61Z"/></g></g></g></g></svg>