<svg xmlns="http://www.w3.org/2000/svg" viewBox="0 0 349.86 104.36"><defs><style>.cls-1{fill:#e74c3c;}.cls-2{fill:#fff;}.cls-3{fill:none;stroke:#e74c3c;stroke-miterlimit:10;stroke-width:6.55px;}</style></defs><title>Asset 1</title><g id="Layer_2" data-name="Layer 2"><g id="Design"><g id="g236"><g id="g238"><g id="g240"><path id="path242" class="cls-1" d="M59.77,22l11.35-.34.37.36.75-.09.08-.63.83-.23.18-.78.36.12.46-.48-.25-1.23h.4l-1-.86-2.65-4.38V13a3.59,3.59,0,0,1-1.37-1.57l0-.41-.4-.29.1-.65,1.19,1.59c.11.12,0,.21.08.34a6.55,6.55,0,0,0,1.16,1.12c.16-.05.35,0,.43-.34l.31-2.06L70.75,7.88c-.94.66-1.88.92-2.82-.06l-1.15.09c-.26.11-.54.29-.69,0L64.23,9l-3.07-.68a4.08,4.08,0,0,0-1.33-.18c-.39.24-.67.05-.95-.13-.16.27-.32.55-.17.71l.12,1.12c-.27.44-.52.89.34,1.92Z"/></g><g id="g244"><path id="path246" class="cls-1" d="M59.77,22l11.35-.34.37.36.75-.09.08-.63.83-.23.18-.78.36.12.46-.48-.25-1.23h.4l-1-.86-2.65-4.38V13a3.59,3.59,0,0,1-1.37-1.57l0-.41-.4-.29.1-.65,1.19,1.59c.11.12,0,.21.08.34a6.55,6.55,0,0,0,1.16,1.12c.16-.05.35,0,.43-.34l.31-2.06L70.75,7.88c-.94.66-1.88.92-2.82-.06l-1.15.09c-.26.11-.54.29-.69,0L64.23,9l-3.07-.68a4.08,4.08,0,0,0-1.33-.18c-.39.24-.67.05-.95-.13-.16.27-.32.55-.17.71l.12,1.12c-.27.44-.52.89.34,1.92Z"/></g><g id="g248"><path id="path250" class="cls-1" d="M40.4,52.43l-2.33.11-.47-.31.7-1.34,2.08,0Z"/></g><g id="g252"><path id="path254" class="cls-1" d="M40.4,52.43l-2.33.11-.47-.31.7-1.34,2.08,0Z"/></g><g id="g256"><path id="path258" class="cls-1" d="M34,53.66a.25.25,0,1,1-.25-.25A.25.25,0,0,1,34,53.66Z"/></g><g id="g260"><path id="path262" class="cls-1" d="M34,53.66a.25.25,0,1,1-.25-.25A.25.25,0,0,1,34,53.66Z"/></g><g id="g264"><path id="path266" class="cls-1" d="M34.94,51.65a.2.2,0,1,1-.2-.2.2.2,0,0,1,.2.2Z"/></g><g id="g268"><path id="path270" class="cls-1" d="M34.94,51.65a.2.2,0,1,1-.2-.2.2.2,0,0,1,.2.2Z"/></g><g id="g272"><path id="path274" class="cls-1" d="M93.62,41.78l-4.15,4.73-1.62,0a6,6,0,0,0-1.38.9,6.17,6.17,0,0,1-1.45.75c-.33,0-.73.12-1,0-.54-.53-1.16-.27-1.78-.08a1.45,1.45,0,0,1-.94.79l-2.22-.34a7.47,7.47,0,0,0-1.74-1.14l-1.23-.09v-1l-1-.35-.7-1.6-1-.8c.19-.3-.31-.55-.56-.81a1.45,1.45,0,0,1-1-.18l.3-.36,0-.46.88,0c.19-.12.41-.17.55-.48l0-2.59.42-.66.44,0,.2-1.11c.53-.65.72-1.45,1.6-2L76.48,33l.7,0,.1-.23h.34l.29.49.42-1.12c.28.18.64.19.8.58l.71-.14.12-.23.13,0,.17.3a.73.73,0,0,1,.86,0c.1,0,.23.07.49-.09.28.15.46.47.86.45A22.41,22.41,0,0,1,85,35.46c-.07.07-.1.32-.15.88l-.34.6c-.27.44.06.84.57.65l.45-.17.45.19c-.55.63.76,1.73,1.93,2.83l4.25,1.36Z"/></g><g id="g276"><path id="path278" class="cls-1" d="M93.62,41.78l-4.15,4.73-1.62,0a6,6,0,0,0-1.38.9,6.17,6.17,0,0,1-1.45.75c-.33,0-.73.12-1,0-.54-.53-1.16-.27-1.78-.08a1.45,1.45,0,0,1-.94.79l-2.22-.34a7.47,7.47,0,0,0-1.74-1.14l-1.23-.09v-1l-1-.35-.7-1.6-1-.8c.19-.3-.31-.55-.56-.81a1.45,1.45,0,0,1-1-.18l.3-.36,0-.46.88,0c.19-.12.41-.17.55-.48l0-2.59.42-.66.44,0,.2-1.11c.53-.65.72-1.45,1.6-2L76.48,33l.7,0,.1-.23h.34l.29.49.42-1.12c.28.18.64.19.8.58l.71-.14.12-.23.13,0,.17.3a.73.73,0,0,1,.86,0c.1,0,.23.07.49-.09.28.15.46.47.86.45A22.41,22.41,0,0,1,85,35.46c-.07.07-.1.32-.15.88l-.34.6c-.27.44.06.84.57.65l.45-.17.45.19c-.55.63.76,1.73,1.93,2.83l4.25,1.36Z"/></g><g id="g280"><path id="path282" class="cls-1" d="M14.57,11.11,16,10.43l.28.1.47-.41.79.07,0-.37c1.64.08,2-.36,2.27-.8l1.37-.57.51,0-.27-.35.07-.28V7.39c.54-.07,1.2,0,1.2-.55l2.22,0,.31-.64c-.43-.16-.5-.77-.45-1.43,0-.49,0-1.59,0-1.59a1.3,1.3,0,0,1-.37-.6c.12-.05.68,0,1-.41.17-.23.4-.71.69-.61s1,.18,1,0A1.73,1.73,0,0,1,28.73.81c1.67,0,3.82-.63,4.53-.42s1.62-.27,2-.25.53.47,1.09.09c.21-.14,1,.45,1.68.24a.8.8,0,0,0-.45.63c0,.68-.1,2.79-.1,2.79s-.58,0-.66.32-.64.35-.68.58c-.08.48.33.92.82,1.34.13.11,0,.72.08.83a3.7,3.7,0,0,0,1.05.57,19.4,19.4,0,0,0,.43,2.63c-.71,0-.33.71.15,1.41l0,4s-.64.13-.6.3A1.68,1.68,0,0,0,38.73,17,1.21,1.21,0,0,1,39,18a.48.48,0,0,0,.41.5c.71,0,1.3-.36,2,1.48l-8.46,5.56a13.81,13.81,0,0,1-3.39.83c-.47-.21.07-.73-.08-1.07a.77.77,0,0,0-.89-.55c-.29,0-.44-.34-.55-.32-.46.08-.57-.44-.68-.54-.4-.37-.8-.47-.71-.81L14.27,13.67Z"/></g><g id="g284"><path id="path286" class="cls-1" d="M14.57,11.11,16,10.43l.28.1.47-.41.79.07,0-.37c1.64.08,2-.36,2.27-.8l1.37-.57.51,0-.27-.35.07-.28V7.39c.54-.07,1.2,0,1.2-.55l2.22,0,.31-.64c-.43-.16-.5-.77-.45-1.43,0-.49,0-1.59,0-1.59a1.3,1.3,0,0,1-.37-.6c.12-.05.68,0,1-.41.17-.23.4-.71.69-.61s1,.18,1,0A1.73,1.73,0,0,1,28.73.81c1.67,0,3.82-.63,4.53-.42s1.62-.27,2-.25.53.47,1.09.09c.21-.14,1,.45,1.68.24a.8.8,0,0,0-.45.63c0,.68-.1,2.79-.1,2.79s-.58,0-.66.32-.64.35-.68.58c-.08.48.33.92.82,1.34.13.11,0,.72.08.83a3.7,3.7,0,0,0,1.05.57,19.4,19.4,0,0,0,.43,2.63c-.71,0-.33.71.15,1.41l0,4s-.64.13-.6.3A1.68,1.68,0,0,0,38.73,17,1.21,1.21,0,0,1,39,18a.48.48,0,0,0,.41.5c.71,0,1.3-.36,2,1.48l-8.46,5.56a13.81,13.81,0,0,1-3.39.83c-.47-.21.07-.73-.08-1.07a.77.77,0,0,0-.89-.55c-.29,0-.44-.34-.55-.32-.46.08-.57-.44-.68-.54-.4-.37-.8-.47-.71-.81L14.27,13.67Z"/></g><g id="g288"><path id="path290" class="cls-1" d="M41.08,79.05c.31-.08.64-.49.92-.16.28-.34,1-1,2.27.25l6.21-.08.67.58,3.91.51,2.47-.56-1.67-1.49L56,72.8l3,.09-.32-.35.35-2.8s-.09,0-.13,0a6.88,6.88,0,0,1-2.26.22l-.27.53-.49-.41.55-.73-.74-1.49-.11-3.35-1.27.09V64l-.57-.08-.15.27-1-.05-.4,1.52a2.35,2.35,0,0,0-1.77.17c-.68-.22-1.3.29-2.27-3.14l-.37-.22L43.8,62.4,42,63c.45,1.28,1.39,2,1.36,3.92l-.31.29a4.12,4.12,0,0,0,1,2.17c.06.24-.07.41-.08.6-.06.66-.4,2.53-.56,2.2,0,0-.63.14-.68.64,0,.25-.33.28-.44.59a24.7,24.7,0,0,0-.89,3.42c0,.14-.21.08-.24.21a9.42,9.42,0,0,0,0,1.08c0,.12-.16-.08-.2.07S41.12,78.92,41.08,79.05Z"/></g><g id="g292"><path id="path294" class="cls-1" d="M41.08,79.05c.31-.08.64-.49.92-.16.28-.34,1-1,2.27.25l6.21-.08.67.58,3.91.51,2.47-.56-1.67-1.49L56,72.8l3,.09-.32-.35.35-2.8s-.09,0-.13,0a6.88,6.88,0,0,1-2.26.22l-.27.53-.49-.41.55-.73-.74-1.49-.11-3.35-1.27.09V64l-.57-.08-.15.27-1-.05-.4,1.52a2.35,2.35,0,0,0-1.77.17c-.68-.22-1.3.29-2.27-3.14l-.37-.22L43.8,62.4,42,63c.45,1.28,1.39,2,1.36,3.92l-.31.29a4.12,4.12,0,0,0,1,2.17c.06.24-.07.41-.08.6-.06.66-.4,2.53-.56,2.2,0,0-.63.14-.68.64,0,.25-.33.28-.44.59a24.7,24.7,0,0,0-.89,3.42c0,.14-.21.08-.24.21a9.42,9.42,0,0,0,0,1.08c0,.12-.16-.08-.2.07S41.12,78.92,41.08,79.05Z"/></g><g id="g296"><path id="path298" class="cls-1" d="M41.52,61.35l.69-.42c.29-.68.53-.48.76-.18a1.44,1.44,0,0,0-.63,1c.07.65-.23.6-.45.71-.1-.18-.23-.35-.18-.55A.68.68,0,0,0,41.52,61.35Z"/></g><g id="g300"><path id="path302" class="cls-1" d="M41.52,61.35l.69-.42c.29-.68.53-.48.76-.18a1.44,1.44,0,0,0-.63,1c.07.65-.23.6-.45.71-.1-.18-.23-.35-.18-.55A.68.68,0,0,0,41.52,61.35Z"/></g><g id="g304"><path id="path306" class="cls-1" d="M28.19,44.79,26.88,45l-.68-5.33c-.09-.41-.49-.59-.8-.84l.16-.87.85-.67.89,0L28,36.24l1.47.24v1.17a.83.83,0,0,1,0,1.24c0,.56-.07,1-.45,1a4.34,4.34,0,0,1-.74,1.59Z"/></g><g id="g308"><path id="path310" class="cls-1" d="M28.19,44.79,26.88,45l-.68-5.33c-.09-.41-.49-.59-.8-.84l.16-.87.85-.67.89,0L28,36.24l1.47.24v1.17a.83.83,0,0,1,0,1.24c0,.56-.07,1-.45,1a4.34,4.34,0,0,1-.74,1.59Z"/></g><g id="g312"><path id="path314" class="cls-1" d="M60.07,79.7l-.91.51c-.9,0-1,.54-1.3.82l-.25-.71-3.42.3L54,85.92l-1.4,0-.09,3.82c.38.47.9,1,1.16,1.32s.09,1-.15,1.59a3,3,0,0,0,2,.13,1,1,0,0,1,.41-.54,1.14,1.14,0,0,0,.6-.71l.85-.71a2.56,2.56,0,0,1,1.34.55A3.59,3.59,0,0,0,60.43,91l.17-.8,5-4a2.3,2.3,0,0,0-1.3-.44c-.36-.09-.81-.73-.69-1.83a1.29,1.29,0,0,1-.76-.49c-.22-.36-.5-.33-.75-.48-.39-.54-1.11-1.24-1.17-1.66,0-.2-.13-.19-.29-.42S60.23,80,60.07,79.7Z"/></g><g id="g316"><path id="path318" class="cls-1" d="M60.07,79.7l-.91.51c-.9,0-1,.54-1.3.82l-.25-.71-3.42.3L54,85.92l-1.4,0-.09,3.82c.38.47.9,1,1.16,1.32s.09,1-.15,1.59a3,3,0,0,0,2,.13,1,1,0,0,1,.41-.54,1.14,1.14,0,0,0,.6-.71l.85-.71a2.56,2.56,0,0,1,1.34.55A3.59,3.59,0,0,0,60.43,91l.17-.8,5-4a2.3,2.3,0,0,0-1.3-.44c-.36-.09-.81-.73-.69-1.83a1.29,1.29,0,0,1-.76-.49c-.22-.36-.5-.33-.75-.48-.39-.54-1.11-1.24-1.17-1.66,0-.2-.13-.19-.29-.42S60.23,80,60.07,79.7Z"/></g><g id="g320"><path id="path322" class="cls-1" d="M66.41,57.89l.21-.2h.25l.13.35.71-.14,0-.44.89-.05c-.29.51.14.79.33,1-.59,1.39-1.1,1.88-1.56,1.9s-.53.23-.59.42a11.45,11.45,0,0,1,0-1.7A1.22,1.22,0,0,0,66.41,57.89Z"/></g><g id="g324"><path id="path326" class="cls-1" d="M66.41,57.89l.21-.2h.25l.13.35.71-.14,0-.44.89-.05c-.29.51.14.79.33,1-.59,1.39-1.1,1.88-1.56,1.9s-.53.23-.59.42a11.45,11.45,0,0,1,0-1.7A1.22,1.22,0,0,0,66.41,57.89Z"/></g><g id="g328"><path id="path330" class="cls-1" d="M20.48,40.09c-.27,0-.37-.41-.59-.62-.44-.42-1.28-.11-1.94.3a1.82,1.82,0,0,1-1.07-1.11c.16-.44.05-1,.27-1.48a2.52,2.52,0,0,1,1.14-1.13L19,34.53c.63-.21,1.2-.29,1.69-.46a2.46,2.46,0,0,0,1.16-.79c.94-.58,2.1-1.32,2.82-1.14a1,1,0,0,0,.13.67c.24.17.19.44.14.71l1.45,1.94.55.18c.08-.09.47-.58.67.49l.33.07-.63,1.07-.9,0-.86.67-1.3-.15a2.35,2.35,0,0,0-1.13.22l-2.88-.08Z"/></g><g id="g332"><path id="path334" class="cls-1" d="M20.48,40.09c-.27,0-.37-.41-.59-.62-.44-.42-1.28-.11-1.94.3a1.82,1.82,0,0,1-1.07-1.11c.16-.44.05-1,.27-1.48a2.52,2.52,0,0,1,1.14-1.13L19,34.53c.63-.21,1.2-.29,1.69-.46a2.46,2.46,0,0,0,1.16-.79c.94-.58,2.1-1.32,2.82-1.14a1,1,0,0,0,.13.67c.24.17.19.44.14.71l1.45,1.94.55.18c.08-.09.47-.58.67.49l.33.07-.63,1.07-.9,0-.86.67-1.3-.15a2.35,2.35,0,0,0-1.13.22l-2.88-.08Z"/></g><g id="g336"><path id="path338" class="cls-1" d="M51.3,48.81c-.25.75-.55,1.28-.86,2.1a23.72,23.72,0,0,0-.53,4.18c-1.09.49-1.43,1.28-2,2l-.43,2.08C46.7,59.92,46,60.91,45,61c-.06-1.16-1.06-.6-1.17-.15-.48.32-.63,0-.9-.11a1.2,1.2,0,0,0-.6,1c0,.67-.26.63-.48.77L42,63l1.79-.61,3.92.07.36.21c.89,3.3,1.61,3,2.25,3.14a2.92,2.92,0,0,1,1.79-.19l.38-1.5,1,.06.13-.27.58.09v.61l1.26-.09.13,3.33.72,1.5-.55.74.5.42.27-.54,1.65,0,.6-.2h.52l.19.74,1-.32a1,1,0,0,0,.27.5,2.47,2.47,0,0,0,1.42.7c.37,0,.66-.37,1-.3a1.9,1.9,0,0,0,1.51.83c.41.63.68,1.39,1.83,1.27l.45.31,0-1.61a1.43,1.43,0,0,1-1.7-.63,5.37,5.37,0,0,1,.63-1.78,6.71,6.71,0,0,0-.22-1.91,1.93,1.93,0,0,1,.39-1l2.59-.64c-.27-1.45-1.21-1.75-1.48-2.78a11.63,11.63,0,0,1-.32-4.24A1.32,1.32,0,0,0,66,57.66l.77-1.11.63-.69.1-2.41.88-1.34,1.42-1.27L69,50.29V48.77l-1.77-1.5c-.16,0-.23.17-.34.26a2.27,2.27,0,0,1-1-.11c-.18.41-.94.19-1,0,0-.07,0-.21-.07-.24a4,4,0,0,0-.68-.69l-.74,0-.24.28-.27-.22-.17.26-.35-.46-1.59.14v.26l-.71.13-.11-.27-1.8.64c-.5-.37-.69-.17-1-.18l-.32.69c-1.5-.06-2.12-.06-2.37-.39-.47.52-.59-.12-.88-.2-.16-.76-.6-.54-.9-.79a4,4,0,0,0-1.13,1.13A3.52,3.52,0,0,1,51.3,48.81Z"/></g><g id="g340"><path id="path342" class="cls-1" d="M51.3,48.81c-.25.75-.55,1.28-.86,2.1a23.72,23.72,0,0,0-.53,4.18c-1.09.49-1.43,1.28-2,2l-.43,2.08C46.7,59.92,46,60.91,45,61c-.06-1.16-1.06-.6-1.17-.15-.48.32-.63,0-.9-.11a1.2,1.2,0,0,0-.6,1c0,.67-.26.63-.48.77L42,63l1.79-.61,3.92.07.36.21c.89,3.3,1.61,3,2.25,3.14a2.92,2.92,0,0,1,1.79-.19l.38-1.5,1,.06.13-.27.58.09v.61l1.26-.09.13,3.33.72,1.5-.55.74.5.42.27-.54,1.65,0,.6-.2h.52l.19.74,1-.32a1,1,0,0,0,.27.5,2.47,2.47,0,0,0,1.42.7c.37,0,.66-.37,1-.3a1.9,1.9,0,0,0,1.51.83c.41.63.68,1.39,1.83,1.27l.45.31,0-1.61a1.43,1.43,0,0,1-1.7-.63,5.37,5.37,0,0,1,.63-1.78,6.71,6.71,0,0,0-.22-1.91,1.93,1.93,0,0,1,.39-1l2.59-.64c-.27-1.45-1.21-1.75-1.48-2.78a11.63,11.63,0,0,1-.32-4.24A1.32,1.32,0,0,0,66,57.66l.77-1.11.63-.69.1-2.41.88-1.34,1.42-1.27L69,50.29V48.77l-1.77-1.5c-.16,0-.23.17-.34.26a2.27,2.27,0,0,1-1-.11c-.18.41-.94.19-1,0,0-.07,0-.21-.07-.24a4,4,0,0,0-.68-.69l-.74,0-.24.28-.27-.22-.17.26-.35-.46-1.59.14v.26l-.71.13-.11-.27-1.8.64c-.5-.37-.69-.17-1-.18l-.32.69c-1.5-.06-2.12-.06-2.37-.39-.47.52-.59-.12-.88-.2-.16-.76-.6-.54-.9-.79a4,4,0,0,0-1.13,1.13A3.52,3.52,0,0,1,51.3,48.81Z"/></g><g id="g344"><path id="path346" class="cls-1" d="M85.87,34.84l-.85.63c-.15.43-.07.77-.19,1-.49.82-.42.89-.27,1.07s.74.07,1-.09l.44.19.49-.75c-.3-.26-.61-.12-.91-.14.08-.37.5-.46.8-.64A1,1,0,0,0,85.87,34.84Z"/></g><g id="g348"><path id="path350" class="cls-1" d="M85.87,34.84l-.85.63c-.15.43-.07.77-.19,1-.49.82-.42.89-.27,1.07s.74.07,1-.09l.44.19.49-.75c-.3-.26-.61-.12-.91-.14.08-.37.5-.46.8-.64A1,1,0,0,0,85.87,34.84Z"/></g><g id="g352"><path id="path354" class="cls-1" d="M13.18,47.54l.55.05,4.37-1.24,1.57.18.23-.93c0-.74-.68-1.5.18-2.22.08-.54,0-1.13.62-1.48l-.2-1.83c-.24,0-.34-.24-.47-.46-.28-.48-1.22-.42-2.09.17-.41-.29-.89-.49-1.06-1.12a1.31,1.31,0,0,0-1.4.22l.07-.63c-.09-.24-.42-.17-.8,0-.1,0,0,.16.08.35a2.41,2.41,0,0,1-.42.09.76.76,0,0,1-.4.28c-.39-.69-.62-.56-1.09-.18a1.44,1.44,0,0,0-.33.72c-.07.31.06.61.4.56l0,.42c.24.11.19.15,0,.39s.28.59.24.71l-.74-.15c0,.12,0,.28-.06.41l.35.15-.27.72c0,.06-.33,0-.42,0v.45c.38.1.17,1-.18,1.13l.52.33c.11-.09.43,0,.64.56,0,0,.52.33.51.74s-.23.38-.29.63Z"/></g><g id="g356"><path id="path358" class="cls-1" d="M13.18,47.54l.55.05,4.37-1.24,1.57.18.23-.93c0-.74-.68-1.5.18-2.22.08-.54,0-1.13.62-1.48l-.2-1.83c-.24,0-.34-.24-.47-.46-.28-.48-1.22-.42-2.09.17-.41-.29-.89-.49-1.06-1.12a1.31,1.31,0,0,0-1.4.22l.07-.63c-.09-.24-.42-.17-.8,0-.1,0,0,.16.08.35a2.41,2.41,0,0,1-.42.09.76.76,0,0,1-.4.28c-.39-.69-.62-.56-1.09-.18a1.44,1.44,0,0,0-.33.72c-.07.31.06.61.4.56l0,.42c.24.11.19.15,0,.39s.28.59.24.71l-.74-.15c0,.12,0,.28-.06.41l.35.15-.27.72c0,.06-.33,0-.42,0v.45c.38.1.17,1-.18,1.13l.52.33c.11-.09.43,0,.64.56,0,0,.52.33.51.74s-.23.38-.29.63Z"/></g><g id="g360"><path id="path362" class="cls-1" d="M78.35,32.1c.26.18.53.16.79.57l.7-.14.14-.22.12,0,.16.29a.8.8,0,0,1,.9,0c.14.11.34,0,.49-.1a1.47,1.47,0,0,0,.84.46A21.66,21.66,0,0,1,85,35.46l.83-.58a.81.81,0,0,0-.85-.62.69.69,0,0,0-.5-.62c-.08-.31-.34-.3-.55-.39a3,3,0,0,0-1-1.09c-.4.09-.58-.17-.77-.42l-.3-.06-.22.13a1.18,1.18,0,0,1-.35-.7L81.07,31l.08.45c-.2.12-.3-.2-.4-.55l-.66-1a5.29,5.29,0,0,0-1.19-2.79c-.11.25-.12.55-.3.69l-1,.5a.69.69,0,0,1-.66.35A18.2,18.2,0,0,0,76.45,33h.75l.07-.24.34,0,.28.45Z"/></g><g id="g364"><path id="path366" class="cls-1" d="M78.35,32.1c.26.18.53.16.79.57l.7-.14.14-.22.12,0,.16.29a.8.8,0,0,1,.9,0c.14.11.34,0,.49-.1a1.47,1.47,0,0,0,.84.46A21.66,21.66,0,0,1,85,35.46l.83-.58a.81.81,0,0,0-.85-.62.69.69,0,0,0-.5-.62c-.08-.31-.34-.3-.55-.39a3,3,0,0,0-1-1.09c-.4.09-.58-.17-.77-.42l-.3-.06-.22.13a1.18,1.18,0,0,1-.35-.7L81.07,31l.08.45c-.2.12-.3-.2-.4-.55l-.66-1a5.29,5.29,0,0,0-1.19-2.79c-.11.25-.12.55-.3.69l-1,.5a.69.69,0,0,1-.66.35A18.2,18.2,0,0,0,76.45,33h.75l.07-.24.34,0,.28.45Z"/></g><g id="g368"><path id="path370" class="cls-1" d="M40.09,59.48,37.5,56.8l-.62-1.58.57-.55.16-.89.73.16s.11-.07.07-.16l-.63-.32.2-.9,2.42-.12V50.88h3l-.23.33,0,1c.27.1.45-.12.63-.44.46-.07,1.31.35,1.08,1.14-.38.43-.56.84-.42,1.2a5.15,5.15,0,0,1,.3.94l-.23,2.12-.48.35a1.09,1.09,0,0,0-1.18-.42c-.17-.22-.34-.49-.67-.06l-1.25.77.11,1Z"/></g><g id="g372"><path id="path374" class="cls-1" d="M40.09,59.48,37.5,56.8l-.62-1.58.57-.55.16-.89.73.16s.11-.07.07-.16l-.63-.32.2-.9,2.42-.12V50.88h3l-.23.33,0,1c.27.1.45-.12.63-.44.46-.07,1.31.35,1.08,1.14-.38.43-.56.84-.42,1.2a5.15,5.15,0,0,1,.3.94l-.23,2.12-.48.35a1.09,1.09,0,0,0-1.18-.42c-.17-.22-.34-.49-.67-.06l-1.25.77.11,1Z"/></g><g id="g376"><path id="path378" class="cls-1" d="M.85,33.34H2.43c.34-.45.84-.31,1.41.1l.91.07.2.26L4.3,34a3.86,3.86,0,0,1-1.23-.5,1.51,1.51,0,0,1-.95.22L1.95,34l-1.37.06Z"/></g><g id="g380"><path id="path382" class="cls-1" d="M.85,33.34H2.43c.34-.45.84-.31,1.41.1l.91.07.2.26L4.3,34a3.86,3.86,0,0,1-1.23-.5,1.51,1.51,0,0,1-.95.22L1.95,34l-1.37.06Z"/></g><g id="g384"><path id="path386" class="cls-1" d="M25.83,45.25c-.14.18-.15.57-.54.35-1.89.23-2.64,1-4,1.55l-1.67-.61.23-.93c0-.74-.68-1.5.18-2.22.08-.54,0-1.13.62-1.48l-.44-4,2.88.09a2.47,2.47,0,0,1,1.2-.23c-.23.45-.11.88.44,1.29a31.78,31.78,0,0,1,.53,5.3Z"/></g><g id="g388"><path id="path390" class="cls-1" d="M25.83,45.25c-.14.18-.15.57-.54.35-1.89.23-2.64,1-4,1.55l-1.67-.61.23-.93c0-.74-.68-1.5.18-2.22.08-.54,0-1.13.62-1.48l-.44-4,2.88.09a2.47,2.47,0,0,1,1.2-.23c-.23.45-.11.88.44,1.29a31.78,31.78,0,0,1,.53,5.3Z"/></g><g id="g392"><path id="path394" class="cls-1" d="M2.76,37.5c0,.15,0,.23.16.23s.37-.59.32.1l.26,0a.91.91,0,0,0,.43.94c.32.11.5.48.68.65l.44.8c.3.21.72.06,1.36-.82-.07-.29.33-.45,1.53-.37a2,2,0,0,1,.91,2.48c.44-.11.69-.41,1.42-.22A1.48,1.48,0,0,1,10.56,43c.41.15.55.6,1.12-.15,0-.17.1-.23.28-.1s.29,0,.46,0l.3-.77-.37-.15.07-.41.75.15c-.06-.28-.43-.64-.15-.82.12-.13.07-.23-.06-.32l0-.35c-.73-.09-.31-.89-.06-1.3l-.45-.4-.05-.89-.37.27-.14-.21.49-.45-.66-.5a2.34,2.34,0,0,0-.16-1.21l-.47-.1a.37.37,0,0,1-.27.42q-.26-.08-.32.34l-.83-.34L9,36.16c.08-.21-.13-.34-.26-.5l-.36.24c-.28.1-.32-.06-.31-.25s.13-.11.15-.21a7.81,7.81,0,0,1-3-.66H4.94l-.13,1.58-.8,0A2.84,2.84,0,0,0,2.76,37.5Z"/></g><g id="g396"><path id="path398" class="cls-1" d="M2.76,37.5c0,.15,0,.23.16.23s.37-.59.32.1l.26,0a.91.91,0,0,0,.43.94c.32.11.5.48.68.65l.44.8c.3.21.72.06,1.36-.82-.07-.29.33-.45,1.53-.37a2,2,0,0,1,.91,2.48c.44-.11.69-.41,1.42-.22A1.48,1.48,0,0,1,10.56,43c.41.15.55.6,1.12-.15,0-.17.1-.23.28-.1s.29,0,.46,0l.3-.77-.37-.15.07-.41.75.15c-.06-.28-.43-.64-.15-.82.12-.13.07-.23-.06-.32l0-.35c-.73-.09-.31-.89-.06-1.3l-.45-.4-.05-.89-.37.27-.14-.21.49-.45-.66-.5a2.34,2.34,0,0,0-.16-1.21l-.47-.1a.37.37,0,0,1-.27.42q-.26-.08-.32.34l-.83-.34L9,36.16c.08-.21-.13-.34-.26-.5l-.36.24c-.28.1-.32-.06-.31-.25s.13-.11.15-.21a7.81,7.81,0,0,1-3-.66H4.94l-.13,1.58-.8,0A2.84,2.84,0,0,0,2.76,37.5Z"/></g><g id="g400"><path id="path402" class="cls-1" d="M.5,35.19l.1.27c.2.14.58-.13.55.52.18.09.41-.1.54.34.22.11.79-.94.58.63l.5.55A2.73,2.73,0,0,1,4,36.4l.82,0,.14-1.58H2.83A2,2,0,0,1,1.49,35,3.08,3.08,0,0,1,.5,35.19Z"/></g><g id="g404"><path id="path406" class="cls-1" d="M.5,35.19l.1.27c.2.14.58-.13.55.52.18.09.41-.1.54.34.22.11.79-.94.58.63l.5.55A2.73,2.73,0,0,1,4,36.4l.82,0,.14-1.58H2.83A2,2,0,0,1,1.49,35,3.08,3.08,0,0,1,.5,35.19Z"/></g><g id="g408"><path id="path410" class="cls-1" d="M47.43,51.65c-.38-.17-.85-.55-1.12-.4l-1-.35-1.94,0H40.34l-2.08,0,.21-1.59-.55-.71.2-.25-.14-.2-.36.11c-.45-.06-.61-.37-.72-.74-.24-.09-.58-.06-.58-.46.51-.88.62-2.09,1.62-2.58l0-.39L39.42,44c.53.34.36.73,1.26.62.63-1.13,1.08-3.2,1.89-3.29.49-1.21.64-2.94,1.48-3.64a1.68,1.68,0,0,0,.92-.59,1.6,1.6,0,0,0,0-.89c-.05-.17-.16,0-.32-.25L44.45,35l.2-.16.75.64a5.28,5.28,0,0,1,.32,1.57c-.05.82-.39.93.42,1.86a1.11,1.11,0,0,1,.14.73l-1.52-.15c-.17.41-.54,1.35,1,1.69l.7,2.12L45.1,45.51l.18,1.59A11,11,0,0,0,47.38,50Z"/></g><g id="g412"><path id="path414" class="cls-1" d="M47.43,51.65c-.38-.17-.85-.55-1.12-.4l-1-.35-1.94,0H40.34l-2.08,0,.21-1.59-.55-.71.2-.25-.14-.2-.36.11c-.45-.06-.61-.37-.72-.74-.24-.09-.58-.06-.58-.46.51-.88.62-2.09,1.62-2.58l0-.39L39.42,44c.53.34.36.73,1.26.62.63-1.13,1.08-3.2,1.89-3.29.49-1.21.64-2.94,1.48-3.64a1.68,1.68,0,0,0,.92-.59,1.6,1.6,0,0,0,0-.89c-.05-.17-.16,0-.32-.25L44.45,35l.2-.16.75.64a5.28,5.28,0,0,1,.32,1.57c-.05.82-.39.93.42,1.86a1.11,1.11,0,0,1,.14.73l-1.52-.15c-.17.41-.54,1.35,1,1.69l.7,2.12L45.1,45.51l.18,1.59A11,11,0,0,0,47.38,50Z"/></g><g id="g416"><path id="path418" class="cls-1" d="M84.64,56.4a1,1,0,0,1-.81.58,1.24,1.24,0,0,1-.87.91A20.49,20.49,0,0,1,81.25,61l-2-1.33L79,58.48l-6-3.79,2-3L75,50l-.68-.56c-.09-.66-.24-1.25-.78-1.49l.7-.61,2-.09,1.22.1a6.07,6.07,0,0,1,1.75,1.15l2.22.33a1.48,1.48,0,0,0,.93-.8c.54-.08,1.11-.54,1.8.12a2.29,2.29,0,0,0,1,0,19.73,19.73,0,0,1-1.28,1.75l0,5.51Z"/></g><g id="g420"><path id="path422" class="cls-1" d="M84.64,56.4a1,1,0,0,1-.81.58,1.24,1.24,0,0,1-.87.91A20.49,20.49,0,0,1,81.25,61l-2-1.33L79,58.48l-6-3.79,2-3L75,50l-.68-.56c-.09-.66-.24-1.25-.78-1.49l.7-.61,2-.09,1.22.1a6.07,6.07,0,0,1,1.75,1.15l2.22.33a1.48,1.48,0,0,0,.93-.8c.54-.08,1.11-.54,1.8.12a2.29,2.29,0,0,0,1,0,19.73,19.73,0,0,1-1.28,1.75l0,5.51Z"/></g><g id="g424"><path id="path426" class="cls-1" d="M41.19,6a1.27,1.27,0,0,1-.43,1.29l-1.38,1c.09.47.2,1.66-.83,1.82-.71.11-.34.68.14,1.45l0,4s-.63.12-.58.29A1.63,1.63,0,0,0,38.71,17,1.28,1.28,0,0,1,39,18c0,.34.36.49.45.49.71,0,1.26-.35,1.93,1.49l3.32.1c.39.08.8.67.8.67l1.9-.54,11.19,5.53,0-.9c1.24.1,1.38,0,1.38,0l-.76-13.07c-.45-.62-.89-1.22-.35-1.9a4.63,4.63,0,0,0-.13-1.14A.68.68,0,0,1,58.93,8c0-.55-1.07-.51-1.63-.54-.73,0-1.23-.14-1.1-.69,0,0-1.92-.69-2.66-.23-.4.24-1.23.63-1.38,1.12a1,1,0,0,0,.19.9c.35.59-.82,2.62-2.16,1,0,0-1.76-.48-2.75-.7s-1.64-1.07-1.24-1.58c0-.05-2.64-.83-2.64-.83A3,3,0,0,1,41.19,6Z"/></g><g id="g428"><path id="path430" class="cls-1" d="M41.19,6a1.27,1.27,0,0,1-.43,1.29l-1.38,1c.09.47.2,1.66-.83,1.82-.71.11-.34.68.14,1.45l0,4s-.63.12-.58.29A1.63,1.63,0,0,0,38.71,17,1.28,1.28,0,0,1,39,18c0,.34.36.49.45.49.71,0,1.26-.35,1.93,1.49l3.32.1c.39.08.8.67.8.67l1.9-.54,11.19,5.53,0-.9c1.24.1,1.38,0,1.38,0l-.76-13.07c-.45-.62-.89-1.22-.35-1.9a4.63,4.63,0,0,0-.13-1.14A.68.68,0,0,1,58.93,8c0-.55-1.07-.51-1.63-.54-.73,0-1.23-.14-1.1-.69,0,0-1.92-.69-2.66-.23-.4.24-1.23.63-1.38,1.12a1,1,0,0,0,.19.9c.35.59-.82,2.62-2.16,1,0,0-1.76-.48-2.75-.7s-1.64-1.07-1.24-1.58c0-.05-2.64-.83-2.64-.83A3,3,0,0,1,41.19,6Z"/></g><g id="g432"><path id="path434" class="cls-1" d="M13.17,47.54l-1.23-.43L7.6,43.55,9,42.4l0-.41.67-.65c.2-.14.44,0,.67,0A1.49,1.49,0,0,1,10.56,43c.33.08.58.63,1.12-.15,0-.22.12-.22.34-.09v.41a.56.56,0,0,1,.13.75c-.09.17-.15.35-.35.38l.57.35c.16,0,.3-.15.64.57.07.1.92.46.22,1.3Z"/></g><g id="g436"><path id="path438" class="cls-1" d="M13.17,47.54l-1.23-.43L7.6,43.55,9,42.4l0-.41.67-.65c.2-.14.44,0,.67,0A1.49,1.49,0,0,1,10.56,43c.33.08.58.63,1.12-.15,0-.22.12-.22.34-.09v.41a.56.56,0,0,1,.13.75c-.09.17-.15.35-.35.38l.57.35c.16,0,.3-.15.64.57.07.1.92.46.22,1.3Z"/></g><g id="g448"><path id="path450" class="cls-1" d="M18.69,17l-2.19.06.1,12.65.58.2-.4,1.24-6.46-.37-.74.52-.41-.15-.28-.84-.37-.1c-.73,1.59-.84,1.41-1.11,1.68,0,.16-.06.32,0,.47.16.47.27.94,0,1.14.34.3.77.54.9,1a1.84,1.84,0,0,1-.15,1.12c-.15.15,0,.49.33.23l.3-.18c.1.16.31.24.28.47l.65-.45.8.33c.08-.12,0-.31.29-.35s.28-.11.33-.4l.44.11a2.72,2.72,0,0,1,.19,1.22l.65.49-.49.45.14.21.36-.24.05.87.46.42c.19-.19.48-.42.71-.3s.31.54.51.41.25-.27.57-.27-.21-.42.09-.41c.14,0,.36-.16.61-.1s-.06.94.11.75a1.25,1.25,0,0,1,1.36-.18c.24-.85-.23-1.64,1.4-2.62L19,34.54c1-.4,2-.22,2.87-1.27,1.11-.74,2.22-1.3,2.82-1.13h1.12l.63-.54,3,0c.08-.15.12-.26.53-.46,0-.36.33-.38.56-.5l.12-4.46-1.13.16c-.45-.29-.07-.38-.07-1-.25-.57-.58-.66-.9-.6s-.41-.35-.55-.32-.53-.19-.7-.55c-.06-.12-.21-.18-.32-.25s-.45-.29-.39-.54C26.63,23.1,21.25,19,18.69,17Z"/></g><g id="g452"><path id="path454" class="cls-1" d="M18.69,17l-2.19.06.1,12.65.58.2-.4,1.24-6.46-.37-.74.52-.41-.15-.28-.84-.37-.1c-.73,1.59-.84,1.41-1.11,1.68,0,.16-.06.32,0,.47.16.47.27.94,0,1.14.34.3.77.54.9,1a1.84,1.84,0,0,1-.15,1.12c-.15.15,0,.49.33.23l.3-.18c.1.16.31.24.28.47l.65-.45.8.33c.08-.12,0-.31.29-.35s.28-.11.33-.4l.44.11a2.72,2.72,0,0,1,.19,1.22l.65.49-.49.45.14.21.36-.24.05.87.46.42c.19-.19.48-.42.71-.3s.31.54.51.41.25-.27.57-.27-.21-.42.09-.41c.14,0,.36-.16.61-.1s-.06.94.11.75a1.25,1.25,0,0,1,1.36-.18c.24-.85-.23-1.64,1.4-2.62L19,34.54c1-.4,2-.22,2.87-1.27,1.11-.74,2.22-1.3,2.82-1.13h1.12l.63-.54,3,0c.08-.15.12-.26.53-.46,0-.36.33-.38.56-.5l.12-4.46-1.13.16c-.45-.29-.07-.38-.07-1-.25-.57-.58-.66-.9-.6s-.41-.35-.55-.32-.53-.19-.7-.55c-.06-.12-.21-.18-.32-.25s-.45-.29-.39-.54C26.63,23.1,21.25,19,18.69,17Z"/></g><g id="g456"><path id="path458" class="cls-1" d="M73.21,68.24l.86,2.82-.25,2.51a7.13,7.13,0,0,1,1.73,2,1.6,1.6,0,0,1,.15.82l-.31,1.33-.78.34.06,1.16h-.41c.21-.54,0-.44-.08-.48a2,2,0,0,1-.88-1.35,2.53,2.53,0,0,0,.38-1.82l-.76-.14c-.59.14-.7-.07-.76-.27-.32-.75-.47-.46-.58-.51l-.45-.62.8-1.48.62-.07L72.12,72,72.49,70l.35-.26-1-2A2.53,2.53,0,0,0,73.21,68.24Z"/></g><g id="g460"><path id="path462" class="cls-1" d="M73.21,68.24l.86,2.82-.25,2.51a7.13,7.13,0,0,1,1.73,2,1.6,1.6,0,0,1,.15.82l-.31,1.33-.78.34.06,1.16h-.41c.21-.54,0-.44-.08-.48a2,2,0,0,1-.88-1.35,2.53,2.53,0,0,0,.38-1.82l-.76-.14c-.59.14-.7-.07-.76-.27-.32-.75-.47-.46-.58-.51l-.45-.62.8-1.48.62-.07L72.12,72,72.49,70l.35-.26-1-2A2.53,2.53,0,0,0,73.21,68.24Z"/></g><g id="g464"><path id="path466" class="cls-1" d="M14.4,12.82l.22-1.7,1.33-.69.3.09.47-.39.78.06,0-.37c1.64.08,2-.36,2.26-.8l1.37-.56h.52l-.26-.34.09-.32,0-.41c.54-.07,1.2,0,1.2-.55l2.23,0,.3-.69c-.43-.16-.5-.77-.45-1.43,0-.49,0-1.59,0-1.59a1.3,1.3,0,0,1-.37-.6c-.36-.07-.8-.07-.95-.29A5.69,5.69,0,0,0,22,2.19c-.85.09-1.2-.22-1.55-1-.82-.05-1.69,1.71-2.32,2.58a6.56,6.56,0,0,0-3.39,2c.1.37-.08.51-.45.75s-1.08,1.5-.8,2.25A2.77,2.77,0,0,1,11.69,11a4.62,4.62,0,0,1-1.58.89,6.14,6.14,0,0,0-1.64.5Z"/></g><g id="g468"><path id="path470" class="cls-1" d="M14.4,12.82l.22-1.7,1.33-.69.3.09.47-.39.78.06,0-.37c1.64.08,2-.36,2.26-.8l1.37-.56h.52l-.26-.34.09-.32,0-.41c.54-.07,1.2,0,1.2-.55l2.23,0,.3-.69c-.43-.16-.5-.77-.45-1.43,0-.49,0-1.59,0-1.59a1.3,1.3,0,0,1-.37-.6c-.36-.07-.8-.07-.95-.29A5.69,5.69,0,0,0,22,2.19c-.85.09-1.2-.22-1.55-1-.82-.05-1.69,1.71-2.32,2.58a6.56,6.56,0,0,0-3.39,2c.1.37-.08.51-.45.75s-1.08,1.5-.8,2.25A2.77,2.77,0,0,1,11.69,11a4.62,4.62,0,0,1-1.58.89,6.14,6.14,0,0,0-1.64.5Z"/></g><g id="g472"><path id="path474" class="cls-1" d="M7.31,21.87c.18-1.26-.61-3,1.85-3.09L9.67,15l4.38.39.24-1.72L18.7,17l-2.2.05.11,12.66.56.2-.38,1.23-6.48-.36-.74.52-.4-.13-.28-.86-.39-.1S7.79,32,7.33,31.82l-.43-.46a3.13,3.13,0,0,1-.58-.71c-.22-.41-.37-1.07-.67-1-.64.1-1.12-.74-1.12-.74a2.89,2.89,0,0,0-1.27-.06,11,11,0,0,1-1.6.08l.63-1.75.06-2L2,24.52c.21-.36.83-.7.42-1.78,0-.12-.27-.06-.27-.06l-.26-.8.33-.33Z"/></g><g id="g476"><path id="path478" class="cls-1" d="M7.31,21.87c.18-1.26-.61-3,1.85-3.09L9.67,15l4.38.39.24-1.72L18.7,17l-2.2.05.11,12.66.56.2-.38,1.23-6.48-.36-.74.52-.4-.13-.28-.86-.39-.1S7.79,32,7.33,31.82l-.43-.46a3.13,3.13,0,0,1-.58-.71c-.22-.41-.37-1.07-.67-1-.64.1-1.12-.74-1.12-.74a2.89,2.89,0,0,0-1.27-.06,11,11,0,0,1-1.6.08l.63-1.75.06-2L2,24.52c.21-.36.83-.7.42-1.78,0-.12-.27-.06-.27-.06l-.26-.8.33-.33Z"/></g><g id="g480"><path id="path482" class="cls-1" d="M67.24,76.09l.3.79,0,.4,1.05.08,2.46,1a6.32,6.32,0,0,1-.31,3.55,3.29,3.29,0,0,0-.05.57,2.09,2.09,0,0,1,0,1.21,16.62,16.62,0,0,1-1.08,2.1,2,2,0,0,0-.93,1.42l.25,6.08.93.06.25-.86-.37.14c.06-.34,0-.68.34-1l3-1.18a4,4,0,0,0,.86-1.07l-.35-.12.62-2.34-.32-.11-.26-2a.86.86,0,0,1,0-1.52l1.81-1.54.15.31.67-.74-.15-.23.44-.08.13-.38,2.21-1.09h.55a5.93,5.93,0,0,1,1.37-.92l0-.33.74-.57c.18-.18.33-.45.56-.44l0-.37-.14-.16.4-.61.1-.4-.06-.26-.25-.38.09-1.48c-.19-.18-.08-.31,0-.43l0-1.64.59-1a2,2,0,0,0-.06-.82c-.91.54-2.44,1.49-3.21,1a1.29,1.29,0,0,0-1,.47,4.31,4.31,0,0,0-.86-.05l-1.09.2c-.2-.24-.4-.47-.86-.21l-1.59-.05-.25,2.49a6.13,6.13,0,0,1,1.82,2.28c.21.51-.17,1.24-.24,1.88l-.79.34,0,1.11-.39.06c.09-.23.2-.47-.14-.5a2,2,0,0,1-.8-1.32,2.72,2.72,0,0,0,.37-1.82l-.77-.14c-.3.07-.64.07-.72-.17-.21-.63-.41-.66-.64-.6Z"/></g><g id="g484"><path id="path486" class="cls-1" d="M67.24,76.09l.3.79,0,.4,1.05.08,2.46,1a6.32,6.32,0,0,1-.31,3.55,3.29,3.29,0,0,0-.05.57,2.09,2.09,0,0,1,0,1.21,16.62,16.62,0,0,1-1.08,2.1,2,2,0,0,0-.93,1.42l.25,6.08.93.06.25-.86-.37.14c.06-.34,0-.68.34-1l3-1.18a4,4,0,0,0,.86-1.07l-.35-.12.62-2.34-.32-.11-.26-2a.86.86,0,0,1,0-1.52l1.81-1.54.15.31.67-.74-.15-.23.44-.08.13-.38,2.21-1.09h.55a5.93,5.93,0,0,1,1.37-.92l0-.33.74-.57c.18-.18.33-.45.56-.44l0-.37-.14-.16.4-.61.1-.4-.06-.26-.25-.38.09-1.48c-.19-.18-.08-.31,0-.43l0-1.64.59-1a2,2,0,0,0-.06-.82c-.91.54-2.44,1.49-3.21,1a1.29,1.29,0,0,0-1,.47,4.31,4.31,0,0,0-.86-.05l-1.09.2c-.2-.24-.4-.47-.86-.21l-1.59-.05-.25,2.49a6.13,6.13,0,0,1,1.82,2.28c.21.51-.17,1.24-.24,1.88l-.79.34,0,1.11-.39.06c.09-.23.2-.47-.14-.5a2,2,0,0,1-.8-1.32,2.72,2.72,0,0,0,.37-1.82l-.77-.14c-.3.07-.64.07-.72-.17-.21-.63-.41-.66-.64-.6Z"/></g><g id="g488"><path id="path490" class="cls-1" d="M41.08,79.05A2.68,2.68,0,0,0,42,81.22l3,5.41.08,2.48.54,1.15c0,.45-.13.89.14,1.34l.38,2.11,1.65,1.84c1-1.1,1.4-.21,1.65.49a7,7,0,0,1,1.88,0,3.63,3.63,0,0,1,1.06-.73l.24-9.42,1.39,0,.2-5.31,3.4-.3.26.71c.25-.27.58-.76,1.08-.79s.67-.31,1.12-.55l-.33-.47-2.19.36-2.45.57-4-.53-.66-.56-6.24.07c-.3-.39-1.43-1.29-2.24-.23C41.72,78.57,41.39,79,41.08,79.05Z"/></g><g id="g492"><path id="path494" class="cls-1" d="M41.08,79.05A2.68,2.68,0,0,0,42,81.22l3,5.41.08,2.48.54,1.15c0,.45-.13.89.14,1.34l.38,2.11,1.65,1.84c1-1.1,1.4-.21,1.65.49a7,7,0,0,1,1.88,0,3.63,3.63,0,0,1,1.06-.73l.24-9.42,1.39,0,.2-5.31,3.4-.3.26.71c.25-.27.58-.76,1.08-.79s.67-.31,1.12-.55l-.33-.47-2.19.36-2.45.57-4-.53-.66-.56-6.24.07c-.3-.39-1.43-1.29-2.24-.23C41.72,78.57,41.39,79,41.08,79.05Z"/></g><g id="g496"><path id="path498" class="cls-1" d="M30.68,26.23l-.12,4.47c-.2.11-.47,0-.55.48-.22.13-.49.22-.54.47l-3,0-.61.52H24.69a.77.77,0,0,0,.17.71c.17.14.15.42.1.67l1.44,1.93.52.2c.29-.25.56-.33.69.53l1.79.25c.12-.29.09-.68.42-.83.49-.28.41-.76.58-1.15.4-.19.14-.46,2.24-.44a5,5,0,0,1,1.64,1.14l.42,0c0-.14.44-.44.7-.49s.78.11,1.45.7l1.19.11,1.14-.82,2-.05c.3.12.52.39,1,.28a4.79,4.79,0,0,1,1.63-1,1.69,1.69,0,0,1-.13-1,.7.7,0,0,0,.4-.7l2.41-2.67.45-4.26.34-.86a1.72,1.72,0,0,1-1.31-1.5c-.08-.52,0-1.19,0-2.15l-.43.07a2,2,0,0,0-.76-.68L41.34,20l-8.56,5.64Z"/></g><g id="g500"><path id="path502" class="cls-1" d="M30.68,26.23l-.12,4.47c-.2.11-.47,0-.55.48-.22.13-.49.22-.54.47l-3,0-.61.52H24.69a.77.77,0,0,0,.17.71c.17.14.15.42.1.67l1.44,1.93.52.2c.29-.25.56-.33.69.53l1.79.25c.12-.29.09-.68.42-.83.49-.28.41-.76.58-1.15.4-.19.14-.46,2.24-.44a5,5,0,0,1,1.64,1.14l.42,0c0-.14.44-.44.7-.49s.78.11,1.45.7l1.19.11,1.14-.82,2-.05c.3.12.52.39,1,.28a4.79,4.79,0,0,1,1.63-1,1.69,1.69,0,0,1-.13-1,.7.7,0,0,0,.4-.7l2.41-2.67.45-4.26.34-.86a1.72,1.72,0,0,1-1.31-1.5c-.08-.52,0-1.19,0-2.15l-.43.07a2,2,0,0,0-.76-.68L41.34,20l-8.56,5.64Z"/></g><g id="g504"><path id="path506" class="cls-1" d="M36.33,47.07H36l-.09.51a4,4,0,0,1-1.49-.22c-1.18.74-2.12.62-2.61-1.09a2.28,2.28,0,0,0-1.6-1.47H28.2l.09-3.29a4.94,4.94,0,0,0,.71-1.6c.55-.14.43-.62.46-1,.55-.36.19-.94,0-1.32l0-1.07c0-.3,0-.63.41-.91.17-.21.34-.11.51-1.13.3-.23.62-.46,2.25-.41a3.94,3.94,0,0,1,1.69,1.15l.37,0c.24-.17.31-.46.74-.48.24,0,.26-.24,1.42.67l1.21.11,1.13-.81,2,0c.29.12.54.39.92.27a5,5,0,0,1,1.69-1,4,4,0,0,0,.84,1l-.19.15.24,1c.11.09.32.12.32.26.22,1-.32,1.25-1,1.46-.81.63-1,2.35-1.47,3.61-.9.27-1.2,1.94-1.89,3.31-.67.13-.83-.19-1.25-.65L38,44.08l0,.39C37,45,36.81,46,36.33,47.07Z"/></g><g id="g508"><path id="path510" class="cls-1" d="M36.33,47.07H36l-.09.51a4,4,0,0,1-1.49-.22c-1.18.74-2.12.62-2.61-1.09a2.28,2.28,0,0,0-1.6-1.47H28.2l.09-3.29a4.94,4.94,0,0,0,.71-1.6c.55-.14.43-.62.46-1,.55-.36.19-.94,0-1.32l0-1.07c0-.3,0-.63.41-.91.17-.21.34-.11.51-1.13.3-.23.62-.46,2.25-.41a3.94,3.94,0,0,1,1.69,1.15l.37,0c.24-.17.31-.46.74-.48.24,0,.26-.24,1.42.67l1.21.11,1.13-.81,2,0c.29.12.54.39.92.27a5,5,0,0,1,1.69-1,4,4,0,0,0,.84,1l-.19.15.24,1c.11.09.32.12.32.26.22,1-.32,1.25-1,1.46-.81.63-1,2.35-1.47,3.61-.9.27-1.2,1.94-1.89,3.31-.67.13-.83-.19-1.25-.65L38,44.08l0,.39C37,45,36.81,46,36.33,47.07Z"/></g><g id="g512"><path id="path514" class="cls-1" d="M41.53,61.35l-1.45-1.87,1-.61-.11-1,1.18-.72c.2-.16.35-.54.72,0,.63-.07,1,.09,1.2.4l.5-.34.2-2.08c0-.72-.81-1.19.15-2.21.16-.67-.44-1.13-1.1-1.1-.16.21-.22.54-.62.45l0-1,.24-.36,1.93,0,.93.33c.35-.18.82.35,1.14.41l0-1.6a3.16,3.16,0,0,1,1.88-1.35l.92.42,1.14-.32c-.28.75-.58,1.36-.87,2.1-.49,1.26-.32,2.79-.54,4.2a5,5,0,0,0-2,2l-.45,2.09c-1,1.06-1.86,1.91-2.43,1.86,0-.6-.65-1.12-1.18-.14-.37.24-.63.12-.92-.15-.41-.54-.54-.08-.73.19Z"/></g><g id="g516"><path id="path518" class="cls-1" d="M41.53,61.35l-1.45-1.87,1-.61-.11-1,1.18-.72c.2-.16.35-.54.72,0,.63-.07,1,.09,1.2.4l.5-.34.2-2.08c0-.72-.81-1.19.15-2.21.16-.67-.44-1.13-1.1-1.1-.16.21-.22.54-.62.45l0-1,.24-.36,1.93,0,.93.33c.35-.18.82.35,1.14.41l0-1.6a3.16,3.16,0,0,1,1.88-1.35l.92.42,1.14-.32c-.28.75-.58,1.36-.87,2.1-.49,1.26-.32,2.79-.54,4.2a5,5,0,0,0-2,2l-.45,2.09c-1,1.06-1.86,1.91-2.43,1.86,0-.6-.65-1.12-1.18-.14-.37.24-.63.12-.92-.15-.41-.54-.54-.08-.73.19Z"/></g><g id="g520"><path id="path522" class="cls-1" d="M68.44,55.52,67.8,56h-.22l-.13-.18A12.32,12.32,0,0,0,66,57.67a.61.61,0,0,1,.37.23l.21-.2.24,0L67,58l.73-.15,0-.44.91-.05a3.29,3.29,0,0,1,.45-.54Z"/></g><g id="g524"><path id="path526" class="cls-1" d="M68.44,55.52,67.8,56h-.22l-.13-.18A12.32,12.32,0,0,0,66,57.67a.61.61,0,0,1,.37.23l.21-.2.24,0L67,58l.73-.15,0-.44.91-.05a3.29,3.29,0,0,1,.45-.54Z"/></g><g id="g528"><path id="path530" class="cls-1" d="M68.68,65.93l-2.62.65a2.53,2.53,0,0,0-.36.84,5.41,5.41,0,0,0,.09.54,4.47,4.47,0,0,1,.07,1.64,5.17,5.17,0,0,0-.59,1.64,2,2,0,0,0,.88.67c.34.09.73,0,.81-.08l0,1.65a3,3,0,0,1-.42-.31c-.55,0-1,.25-1.85-1.28a1.89,1.89,0,0,1-1.51-.83c-.22-.06-.59.24-.92.32a2.4,2.4,0,0,1-1.46-.68.91.91,0,0,1-.3-.54l-1,.32-.18-.75H59l-.35,2.82.32.32-3-.08-.14,5.29,1.66,1.46,2.24-.35.33.49.14.33,1.76,0,.24.21.33-.09a6,6,0,0,1,2.68-2l0-.82a3.1,3.1,0,0,1,2.29-.5l-.32-.81,4.36-1.37L71.12,74l.79-1.47.61-.07L72.13,72,72.48,70l.36-.25-.72-1.39-.33-.65-1.67-.56c-.57-.81-.7-.66-.88-.61Z"/></g><g id="g532"><path id="path534" class="cls-1" d="M68.68,65.93l-2.62.65a2.53,2.53,0,0,0-.36.84,5.41,5.41,0,0,0,.09.54,4.47,4.47,0,0,1,.07,1.64,5.17,5.17,0,0,0-.59,1.64,2,2,0,0,0,.88.67c.34.09.73,0,.81-.08l0,1.65a3,3,0,0,1-.42-.31c-.55,0-1,.25-1.85-1.28a1.89,1.89,0,0,1-1.51-.83c-.22-.06-.59.24-.92.32a2.4,2.4,0,0,1-1.46-.68.91.91,0,0,1-.3-.54l-1,.32-.18-.75H59l-.35,2.82.32.32-3-.08-.14,5.29,1.66,1.46,2.24-.35.33.49.14.33,1.76,0,.24.21.33-.09a6,6,0,0,1,2.68-2l0-.82a3.1,3.1,0,0,1,2.29-.5l-.32-.81,4.36-1.37L71.12,74l.79-1.47.61-.07L72.13,72,72.48,70l.36-.25-.72-1.39-.33-.65-1.67-.56c-.57-.81-.7-.66-.88-.61Z"/></g><g id="g536"><path id="path538" class="cls-1" d="M1.69,28.87a2.14,2.14,0,0,0-.44,1C1.23,30.73.41,31,0,31.58a4,4,0,0,1,.86,1.75H2.44c.34-.45.84-.31,1.41.1l.91.07.2.26L4.3,34a3.86,3.86,0,0,1-1.23-.5,1.51,1.51,0,0,1-.95.22L2,34l-1.38.06a2.81,2.81,0,0,0-.09,1.12,2.27,2.27,0,0,0,1-.17,1.77,1.77,0,0,0,1.35-.23l2.38,0a7,7,0,0,0,3,.63c0-.54.35-1.08-.82-1.89a1.38,1.38,0,0,0,0-1.15c-.09-.22.08-.29,0-.52A3.89,3.89,0,0,1,7,31.45a9,9,0,0,1-.64-.77,2.71,2.71,0,0,0-.57-1.06c-.77.13-1.24-.74-1.24-.74a2.89,2.89,0,0,0-1.28,0A5.38,5.38,0,0,1,1.69,28.87Z"/></g><g id="g540"><path id="path542" class="cls-1" d="M1.69,28.87a2.14,2.14,0,0,0-.44,1C1.23,30.73.41,31,0,31.58a4,4,0,0,1,.86,1.75H2.44c.34-.45.84-.31,1.41.1l.91.07.2.26L4.3,34a3.86,3.86,0,0,1-1.23-.5,1.51,1.51,0,0,1-.95.22L2,34l-1.38.06a2.81,2.81,0,0,0-.09,1.12,2.27,2.27,0,0,0,1-.17,1.77,1.77,0,0,0,1.35-.23l2.38,0a7,7,0,0,0,3,.63c0-.54.35-1.08-.82-1.89a1.38,1.38,0,0,0,0-1.15c-.09-.22.08-.29,0-.52A3.89,3.89,0,0,1,7,31.45a9,9,0,0,1-.64-.77,2.71,2.71,0,0,0-.57-1.06c-.77.13-1.24-.74-1.24-.74a2.89,2.89,0,0,0-1.28,0A5.38,5.38,0,0,1,1.69,28.87Z"/></g><g id="g544"><path id="path546" class="cls-1" d="M7.6,43.56,6.47,43a1.52,1.52,0,0,0-.83-.73c0-.49-.29-.61-.51-.78L5.05,40.3c.5.19.93-.31,1.36-.86-.11-.43.88-.39,1.53-.38a2.06,2.06,0,0,1,.92,2.5,7,7,0,0,1,.85-.3L8.94,42l0,.41Z"/></g><g id="g548"><path id="path550" class="cls-1" d="M7.6,43.56,6.47,43a1.52,1.52,0,0,0-.83-.73c0-.49-.29-.61-.51-.78L5.05,40.3c.5.19.93-.31,1.36-.86-.11-.43.88-.39,1.53-.38a2.06,2.06,0,0,1,.92,2.5,7,7,0,0,1,.85-.3L8.94,42l0,.41Z"/></g><g id="g552"><path id="path554" class="cls-1" d="M60.21,80l.44.88c.14.17.33.32.32.59A12.08,12.08,0,0,0,62.12,83a1.41,1.41,0,0,1,.74.47,1.19,1.19,0,0,0,.76.5,1.69,1.69,0,0,0,.67,1.83,2,2,0,0,1,1.33.46,2.54,2.54,0,0,1,1.37.4c.83-.28,1.22.19,1.69.51a2.21,2.21,0,0,1,1-1.41,19.66,19.66,0,0,0,1-2c.25-.42,0-.87,0-1.3l.07-.56A6.36,6.36,0,0,0,71,78.32l-2.49-1-1-.07,0-.35a2.75,2.75,0,0,0-2.27.47l0,.82a5.79,5.79,0,0,0-2.71,2l-.3.09L62,80.06Z"/></g><g id="g556"><path id="path558" class="cls-1" d="M60.21,80l.44.88c.14.17.33.32.32.59A12.08,12.08,0,0,0,62.12,83a1.41,1.41,0,0,1,.74.47,1.19,1.19,0,0,0,.76.5,1.69,1.69,0,0,0,.67,1.83,2,2,0,0,1,1.33.46,2.54,2.54,0,0,1,1.37.4c.83-.28,1.22.19,1.69.51a2.21,2.21,0,0,1,1-1.41,19.66,19.66,0,0,0,1-2c.25-.42,0-.87,0-1.3l.07-.56A6.36,6.36,0,0,0,71,78.32l-2.49-1-1-.07,0-.35a2.75,2.75,0,0,0-2.27.47l0,.82a5.79,5.79,0,0,0-2.71,2l-.3.09L62,80.06Z"/></g><g id="g560"><path id="path562" class="cls-1" d="M86.52,36.83l-.51.79c-.49.71.86,1.79,2,2.82l4.28,1.37,1.38-.06-4.16,4.76-1.68,0a6.35,6.35,0,0,0-1.44,1,12.88,12.88,0,0,1-1.39.66,8.52,8.52,0,0,1-1.2,1.69v5.52l.84,1.06,1.94-2.17,3.25-3.06.37,0,1.36-1.29.05-.26a8.26,8.26,0,0,0,1.91-2A10.23,10.23,0,0,1,95,45.38l1.28-3.69a2.82,2.82,0,0,0,.59-.92c.06-.39.3-.52.47-.74l.15-1.85c.41.06.21-.76.24-1.26-.16-.14-.34-.38,0-.57v-.46c-.3,0-.6-.32-.9-.09a2.37,2.37,0,0,1-1.43.64c-.63.05-1.14.41-1.4.32a1.7,1.7,0,0,1-1.67.27,1.89,1.89,0,0,1-2.28.58l-1,.68C87.65,38.7,87.26,37.51,86.52,36.83Z"/></g><g id="g564"><path id="path566" class="cls-1" d="M86.52,36.83l-.51.79c-.49.71.86,1.79,2,2.82l4.28,1.37,1.38-.06-4.16,4.76-1.68,0a6.35,6.35,0,0,0-1.44,1,12.88,12.88,0,0,1-1.39.66,8.52,8.52,0,0,1-1.2,1.69v5.52l.84,1.06,1.94-2.17,3.25-3.06.37,0,1.36-1.29.05-.26a8.26,8.26,0,0,0,1.91-2A10.23,10.23,0,0,1,95,45.38l1.28-3.69a2.82,2.82,0,0,0,.59-.92c.06-.39.3-.52.47-.74l.15-1.85c.41.06.21-.76.24-1.26-.16-.14-.34-.38,0-.57v-.46c-.3,0-.6-.32-.9-.09a2.37,2.37,0,0,1-1.43.64c-.63.05-1.14.41-1.4.32a1.7,1.7,0,0,1-1.67.27,1.89,1.89,0,0,1-2.28.58l-1,.68C87.65,38.7,87.26,37.51,86.52,36.83Z"/></g><g id="g568"><path id="path570" class="cls-1" d="M59.79,22l.14,2.85a6.84,6.84,0,0,1-1.37,0l0,.91.13,5.38-1.54.08,0,.57-.88,1.12.06.79-.3.14c0,.5-.09.93-.3,1.06v.64l.64-.13a3.18,3.18,0,0,0,.77,2l.08.48L57,38a9.64,9.64,0,0,1,1.36,1.86c-.56,1.72.28,1.41.74,1.65.18.25.25.56,1.09.47l.48.44c-.1.73,1,1.13,1.61,1.66l.59,1.16c.51.25,1.11.35,1.19,1.2.34.19.47.47.72.72s0,.22.12.31c.32.25.9.31,1,0a2.44,2.44,0,0,0,.92.15c.24,0,.22-.26.46-.31L69,48.76l.31-.22a9.5,9.5,0,0,0,3.54-.05l1.41-1.2,1.95-.07,0-1-1-.35-.69-1.54-1-.85c.18-.27-.31-.54-.54-.81a1.41,1.41,0,0,1-1-.17l.26-.33v-.48h.92c.18-.11.37-.16.51-.44l0-2.62L74,38h.44l.21-1.11c.52-.64.72-1.46,1.56-1.92l.26-2.1A15.24,15.24,0,0,1,77,28.71c.21-.09.46.08.64-.33l1-.49a1.1,1.1,0,0,0,.31-.72c-.13-.29-.32-.24-.49-.27-.28-.54-.75-.59-1.16-.8l-.57-3.45-.45-.48c.12-1.24-1.34-1.45-2.05-2.19l-.47.48-.38-.09-.18.78-.83.22-.07.63-.74.08-.35-.36Z"/></g><g id="g572"><path id="path574" class="cls-1" d="M59.79,22l.14,2.85a6.84,6.84,0,0,1-1.37,0l0,.91.13,5.38-1.54.08,0,.57-.88,1.12.06.79-.3.14c0,.5-.09.93-.3,1.06v.64l.64-.13a3.18,3.18,0,0,0,.77,2l.08.48L57,38a9.64,9.64,0,0,1,1.36,1.86c-.56,1.72.28,1.41.74,1.65.18.25.25.56,1.09.47l.48.44c-.1.73,1,1.13,1.61,1.66l.59,1.16c.51.25,1.11.35,1.19,1.2.34.19.47.47.72.72s0,.22.12.31c.32.25.9.31,1,0a2.44,2.44,0,0,0,.92.15c.24,0,.22-.26.46-.31L69,48.76l.31-.22a9.5,9.5,0,0,0,3.54-.05l1.41-1.2,1.95-.07,0-1-1-.35-.69-1.54-1-.85c.18-.27-.31-.54-.54-.81a1.41,1.41,0,0,1-1-.17l.26-.33v-.48h.92c.18-.11.37-.16.51-.44l0-2.62L74,38h.44l.21-1.11c.52-.64.72-1.46,1.56-1.92l.26-2.1A15.24,15.24,0,0,1,77,28.71c.21-.09.46.08.64-.33l1-.49a1.1,1.1,0,0,0,.31-.72c-.13-.29-.32-.24-.49-.27-.28-.54-.75-.59-1.16-.8l-.57-3.45-.45-.48c.12-1.24-1.34-1.45-2.05-2.19l-.47.48-.38-.09-.18.78-.83.22-.07.63-.74.08-.35-.36Z"/></g><g id="g576"><path id="path578" class="cls-1" d="M47.77,95.54l2.31,4.65,0,1.06c-.12.26-.31.26-.52.22-.09.12-.17.28,0,.4a10.32,10.32,0,0,0,.86,1.56,9.1,9.1,0,0,0,1.1.85l.92.07c.19-.13,0-.31.7-.38h1.34c.42-.17-.05-.59,1.33-.48.23,0,.33.28.68.09a6.07,6.07,0,0,1,1.88.24c.18-.15.12-.4,1.16-.2l.11-.41,1.22,0,7.23-6.72c1.15-.48,1.4-1.87,1.72-3.19L69,93.25c0-.11-.87.51-1,.52-.47.05-.74-.1-.67-.92a1.92,1.92,0,0,1,.87-1.21c.23-.15.46.42.69.27,0,0-.08-2.59-.18-4.76-.49-.3-.84-.81-1.7-.51a3.07,3.07,0,0,0-1.37-.41l-5,4-.18.83a4.3,4.3,0,0,1-1.71.32,2.54,2.54,0,0,0-1.4-.55l-.83.73c-.08.4-.31.44-.49.61a1,1,0,0,0-.49.61,3.16,3.16,0,0,1-2-.12c.11-.49.42-.81.16-1.61l-1.16-1.3-.15,5.59a3.58,3.58,0,0,0-1.06.72,6.08,6.08,0,0,0-1.89,0C49.29,95.43,48.72,94.41,47.77,95.54Z"/></g><g id="g580"><path id="path582" class="cls-1" d="M47.77,95.54l2.31,4.65,0,1.06c-.12.26-.31.26-.52.22-.09.12-.17.28,0,.4a10.32,10.32,0,0,0,.86,1.56,9.1,9.1,0,0,0,1.1.85l.92.07c.19-.13,0-.31.7-.38h1.34c.42-.17-.05-.59,1.33-.48.23,0,.33.28.68.09a6.07,6.07,0,0,1,1.88.24c.18-.15.12-.4,1.16-.2l.11-.41,1.22,0,7.23-6.72c1.15-.48,1.4-1.87,1.72-3.19L69,93.25c0-.11-.87.51-1,.52-.47.05-.74-.1-.67-.92a1.92,1.92,0,0,1,.87-1.21c.23-.15.46.42.69.27,0,0-.08-2.59-.18-4.76-.49-.3-.84-.81-1.7-.51a3.07,3.07,0,0,0-1.37-.41l-5,4-.18.83a4.3,4.3,0,0,1-1.71.32,2.54,2.54,0,0,0-1.4-.55l-.83.73c-.08.4-.31.44-.49.61a1,1,0,0,0-.49.61,3.16,3.16,0,0,1-2-.12c.11-.49.42-.81.16-1.61l-1.16-1.3-.15,5.59a3.58,3.58,0,0,0-1.06.72,6.08,6.08,0,0,0-1.89,0C49.29,95.43,48.72,94.41,47.77,95.54Z"/></g><g id="g584"><path id="path586" class="cls-1" d="M68.87,92l.07,1.27c-.38.19-.66.38-1,.57-.35,0-.58-.1-.64-.38a1.35,1.35,0,0,1,.21-1.14c.18-.28.51-.62.73-.66s.28.15.38.29Z"/></g><g id="g588"><path id="path590" class="cls-1" d="M68.87,92l.07,1.27c-.38.19-.66.38-1,.57-.35,0-.58-.1-.64-.38a1.35,1.35,0,0,1,.21-1.14c.18-.28.51-.62.73-.66s.28.15.38.29Z"/></g><g id="g592"><path id="path594" class="cls-1" d="M72.93,54.68l-.52.78-4,.07.65,1.33c-1,1-.37,1.23-.13,1.62-.45.83-.79,1.85-1.69,1.89-.23.06-.39,0-.43.28a7.87,7.87,0,0,0,.45,2.77c.27.6.74,1,1,1.51a3.62,3.62,0,0,1,.41,1l.55.62c.23-.07.49,0,.86.59l1.65.54a2.92,2.92,0,0,0,1.47.52l.86,2.85,1.61,0a.57.57,0,0,1,.84.2,6.12,6.12,0,0,1,1.93-.16,1.25,1.25,0,0,1,1.08-.43c.62.49,2.39-.51,3.15-1a2.28,2.28,0,0,0-.84-.72,3.39,3.39,0,0,0-.27-1.21c-.16-.25-.28-.5-.18-.68L81,66.3l.23-.08a2,2,0,0,1,.31-1.6c-.26-.53-1.12-.95-1.07-1.57L81.25,61l-2-1.31-.33-1.16Z"/></g><g id="g596"><path id="path598" class="cls-1" d="M72.93,54.68l-.52.78-4,.07.65,1.33c-1,1-.37,1.23-.13,1.62-.45.83-.79,1.85-1.69,1.89-.23.06-.39,0-.43.28a7.87,7.87,0,0,0,.45,2.77c.27.6.74,1,1,1.51a3.62,3.62,0,0,1,.41,1l.55.62c.23-.07.49,0,.86.59l1.65.54a2.92,2.92,0,0,0,1.47.52l.86,2.85,1.61,0a.57.57,0,0,1,.84.2,6.12,6.12,0,0,1,1.93-.16,1.25,1.25,0,0,1,1.08-.43c.62.49,2.39-.51,3.15-1a2.28,2.28,0,0,0-.84-.72,3.39,3.39,0,0,0-.27-1.21c-.16-.25-.28-.5-.18-.68L81,66.3l.23-.08a2,2,0,0,1,.31-1.6c-.26-.53-1.12-.95-1.07-1.57L81.25,61l-2-1.31-.33-1.16Z"/></g><g id="g600"><path id="path602" class="cls-1" d="M25.83,45.25l1-.3-.68-5.33c-.09-.41-.49-.59-.8-.84l.16-.87-1.21-.16c-.23.45-.11.88.44,1.29a31.79,31.79,0,0,1,.53,5.3Z"/></g><g id="g604"><path id="path606" class="cls-1" d="M25.83,45.25l1-.3-.68-5.33c-.09-.41-.49-.59-.8-.84l.16-.87-1.21-.16c-.23.45-.11.88.44,1.29a31.79,31.79,0,0,1,.53,5.3Z"/></g><g id="g608"><path id="path610" class="cls-1" d="M39.91.16c-.26,0-1.28-.52-1.85.31a.8.8,0,0,0-.45.63c0,.68-.1,2.8-.1,2.8s-.58,0-.66.32-.64.35-.68.58c-.08.48.33.92.82,1.34.13.11,0,.72.08.83a3.7,3.7,0,0,0,1.05.57,19.51,19.51,0,0,0,.43,2.63c.1.06,1.19-.31.81-1.84,0-.18,2.23-.91,1.82-2.33,0-.15-.41,0-.47-.24-.13-.6-.12-.75-.35-.84s-.59.41-.69.35-.48-.43-.37-.58S41,3.53,41,3c0-.74-.25-.81-.61-1-.2-.11-.13-.46-.07-.66S41.12,1,41,.7s-.17-.22-.22-.37-.62.51-.66.41A2.93,2.93,0,0,0,39.91.16Z"/></g><g id="g612"><path id="path614" class="cls-1" d="M39.91.16c-.26,0-1.28-.52-1.85.31a.8.8,0,0,0-.45.63c0,.68-.1,2.8-.1,2.8s-.58,0-.66.32-.64.35-.68.58c-.08.48.33.92.82,1.34.13.11,0,.72.08.83a3.7,3.7,0,0,0,1.05.57,19.51,19.51,0,0,0,.43,2.63c.1.06,1.19-.31.81-1.84,0-.18,2.23-.91,1.82-2.33,0-.15-.41,0-.47-.24-.13-.6-.12-.75-.35-.84s-.59.41-.69.35-.48-.43-.37-.58S41,3.53,41,3c0-.74-.25-.81-.61-1-.2-.11-.13-.46-.07-.66S41.12,1,41,.7s-.17-.22-.22-.37-.62.51-.66.41A2.93,2.93,0,0,0,39.91.16Z"/></g><g id="g616"><path id="path618" class="cls-1" d="M58.56,25.75l-11.2-5.51-1.48.45a18.2,18.2,0,0,1,0,2.09,1.78,1.78,0,0,0,1.32,1.6l-.33.81-.48,4.33-2.34,2.57a.85.85,0,0,0-.11.44.5.5,0,0,1-.27.28c-.16.1-.08.27-.1.4-.14.91,1.77,2.26,1.77,2.26.1.41.24.78.32,1.21s-.15,1-.09,1.44c.1.59.75.65.66,1.55l-1.5-.14c-.44.87-.13,1.44.94,1.69l.71,2.11a12.69,12.69,0,0,0,3.42-.79l1.35-.13c.25-.42.78-.65.59-1.38l1.87-.2c.15-.14.22-.35.45-.39s.47-.25.57-.49c.17-.4.6-.55.92-.8.06-1.33,1.07-1,1.68-1.2l-.07-.46a3,3,0,0,1-.76-2l-.65.12V35a1.55,1.55,0,0,0,.29-1.09l.31-.14L56.29,33l.9-1.15,0-.56,1.55-.08Z"/></g><g id="g620"><path id="path622" class="cls-1" d="M58.56,25.75l-11.2-5.51-1.48.45a18.2,18.2,0,0,1,0,2.09,1.78,1.78,0,0,0,1.32,1.6l-.33.81-.48,4.33-2.34,2.57a.85.85,0,0,0-.11.44.5.5,0,0,1-.27.28c-.16.1-.08.27-.1.4-.14.91,1.77,2.26,1.77,2.26.1.41.24.78.32,1.21s-.15,1-.09,1.44c.1.59.75.65.66,1.55l-1.5-.14c-.44.87-.13,1.44.94,1.69l.71,2.11a12.69,12.69,0,0,0,3.42-.79l1.35-.13c.25-.42.78-.65.59-1.38l1.87-.2c.15-.14.22-.35.45-.39s.47-.25.57-.49c.17-.4.6-.55.92-.8.06-1.33,1.07-1,1.68-1.2l-.07-.46a3,3,0,0,1-.76-2l-.65.12V35a1.55,1.55,0,0,0,.29-1.09l.31-.14L56.29,33l.9-1.15,0-.56,1.55-.08Z"/></g><g id="g624"><path id="path626" class="cls-1" d="M69,48.74l.28-.22a9.14,9.14,0,0,0,3.52,0l.71-.59a1.68,1.68,0,0,1,.77,1.5l.69.55v1.67l-2.55,3.84-4,.07-.61.49h-.24l-.14-.18.09-2.37.89-1.35,1.42-1.28L69,50.29Z"/></g><g id="g628"><path id="path630" class="cls-1" d="M69,48.74l.28-.22a9.14,9.14,0,0,0,3.52,0l.71-.59a1.68,1.68,0,0,1,.77,1.5l.69.55v1.67l-2.55,3.84-4,.07-.61.49h-.24l-.14-.18.09-2.37.89-1.35,1.42-1.28L69,50.29Z"/></g><g id="g632"><path id="path634" class="cls-1" d="M7.31,21.89c.18-1.26-.61-3,1.85-3.09L9.67,15l4.38.39.33-2.58-5.86-.43c-.54.83-.86,1.54-1.68,1.87s-1.08,1.26-1.3,2.09L3.24,18.95a1.85,1.85,0,0,1-.9,1.31A3.8,3.8,0,0,0,1.6,22.1l.59-.53Z"/></g><g id="g636"><path id="path638" class="cls-1" d="M7.31,21.89c.18-1.26-.61-3,1.85-3.09L9.67,15l4.38.39.33-2.58-5.86-.43c-.54.83-.86,1.54-1.68,1.87s-1.08,1.26-1.3,2.09L3.24,18.95a1.85,1.85,0,0,1-.9,1.31A3.8,3.8,0,0,0,1.6,22.1l.59-.53Z"/></g><g id="g640"><path id="path642" class="cls-1" d="M46.43,43.32l-1.32,2.17.18,1.58a10.6,10.6,0,0,0,2.1,3,3.15,3.15,0,0,1,1.87-1.35l.94.41,1.05-.3a2,2,0,0,0,.26-1.24,3.81,3.81,0,0,1,1.15-1.18c.29.23.81.05.85.73.35.39.67.62.92.26.29.43,1.53.29,2.38.39a3.76,3.76,0,0,1,.31-.69,1,1,0,0,1,1,.16l1.8-.63.12.27.72-.12v-.27l1.59-.13.35.45.16-.25.27.2.23-.26.74,0c-.15-.42-.09-.92-1.21-1.18l-.58-1.18c-.58-.55-1.61-.81-1.68-1.7L60.16,42c-.38,0-.7.18-1.12-.5-.68-.1-1.14-.21-.69-1.58A8.61,8.61,0,0,0,57,38c-1,.19-1.36.14-1.4,1.14-.31.25-.76.37-.9.76s-.22.5-.66.54a2.41,2.41,0,0,0-.43.4L51.78,41a1,1,0,0,1-.34,1c-.11.1-.18.23-.28.34l-1.33.12A12.8,12.8,0,0,1,46.43,43.32Z"/></g><g id="g644"><path id="path646" class="cls-1" d="M46.43,43.32l-1.32,2.17.18,1.58a10.6,10.6,0,0,0,2.1,3,3.15,3.15,0,0,1,1.87-1.35l.94.41,1.05-.3a2,2,0,0,0,.26-1.24,3.81,3.81,0,0,1,1.15-1.18c.29.23.81.05.85.73.35.39.67.62.92.26.29.43,1.53.29,2.38.39a3.76,3.76,0,0,1,.31-.69,1,1,0,0,1,1,.16l1.8-.63.12.27.72-.12v-.27l1.59-.13.35.45.16-.25.27.2.23-.26.74,0c-.15-.42-.09-.92-1.21-1.18l-.58-1.18c-.58-.55-1.61-.81-1.68-1.7L60.16,42c-.38,0-.7.18-1.12-.5-.68-.1-1.14-.21-.69-1.58A8.61,8.61,0,0,0,57,38c-1,.19-1.36.14-1.4,1.14-.31.25-.76.37-.9.76s-.22.5-.66.54a2.41,2.41,0,0,0-.43.4L51.78,41a1,1,0,0,1-.34,1c-.11.1-.18.23-.28.34l-1.33.12A12.8,12.8,0,0,1,46.43,43.32Z"/></g><g id="g648"><path id="path650" class="cls-1" d="M64.21,98a1.67,1.67,0,0,0-.42.09.73.73,0,0,0-.25.15.46.46,0,0,0-.09.22c0,.08-.18.18-.24.2a1.35,1.35,0,0,1-.3,0,.4.4,0,0,1-.38-.18,6,6,0,0,1-.42-.51,1.78,1.78,0,0,1-.21-.37,1.1,1.1,0,0,1,0-.35.37.37,0,0,1,.2-.35l0,0c.15-.07.19-.25.3-.36s.28-.23.42-.35a1.54,1.54,0,0,1,.3-.18,2,2,0,0,1,.44-.15l.35-.09H64a.42.42,0,0,1,.38.14c.1.13.23.26.32.39s0,.23.09.32a2.67,2.67,0,0,1,.18.36.55.55,0,0,1-.08.4,1.25,1.25,0,0,1-.28.33,2.5,2.5,0,0,1-.28.23A1.69,1.69,0,0,1,64.21,98Z"/></g><g id="g652"><path id="path654" class="cls-1" d="M64.21,98a1.67,1.67,0,0,0-.42.09.73.73,0,0,0-.25.15.46.46,0,0,0-.09.22c0,.08-.18.18-.24.2a1.35,1.35,0,0,1-.3,0,.4.4,0,0,1-.38-.18,6,6,0,0,1-.42-.51,1.78,1.78,0,0,1-.21-.37,1.1,1.1,0,0,1,0-.35.37.37,0,0,1,.2-.35l0,0c.15-.07.19-.25.3-.36s.28-.23.42-.35a1.54,1.54,0,0,1,.3-.18,2,2,0,0,1,.44-.15l.35-.09H64a.42.42,0,0,1,.38.14c.1.13.23.26.32.39s0,.23.09.32a2.67,2.67,0,0,1,.18.36.55.55,0,0,1-.08.4,1.25,1.25,0,0,1-.28.33,2.5,2.5,0,0,1-.28.23A1.69,1.69,0,0,1,64.21,98Z"/></g></g></g><path class="cls-2" d="M224.36,61.71H214.7V57.66a13.46,13.46,0,0,1-11,5c-10.11,0-17.76-8.29-17.76-19.31S193.61,24,203.72,24a13.43,13.43,0,0,1,11,5V25h9.66ZM196.08,43.35c0,5.6,3.67,10.11,9.47,10.11,5.64,0,9.47-4.32,9.47-10.11s-3.82-10.11-9.47-10.11C199.75,33.24,196.08,37.75,196.08,43.35Z"/><path class="cls-2" d="M288.27,43.35c0,11-7.65,19.31-17.76,19.31a13.42,13.42,0,0,1-10.79-4.77v19h-9.85V25h9.66v4.05a13.31,13.31,0,0,1,10.94-5C280.62,24,288.27,32.33,288.27,43.35Zm-29,0c0,5.79,3.83,10.11,9.43,10.11,5.83,0,9.47-4.51,9.47-10.11s-3.64-10.11-9.47-10.11C263,33.24,259.22,37.56,259.22,43.35Z"/><path class="cls-2" d="M349.86,43.35c0,11-7.65,19.31-17.76,19.31a13.42,13.42,0,0,1-10.79-4.77v19h-9.84V25h9.66v4.05a13.3,13.3,0,0,1,10.94-5C342.21,24,349.86,32.33,349.86,43.35Zm-29,0c0,5.79,3.83,10.11,9.43,10.11,5.83,0,9.47-4.51,9.47-10.11s-3.64-10.11-9.47-10.11C324.65,33.24,320.82,37.56,320.82,43.35Z"/><path class="cls-2" d="M69,29.11V25h9.69V58.69c0,11.78-7.69,18.89-19.8,18.89-5.79,0-11.93-1.52-16.06-4.43l3.52-8.07a21.68,21.68,0,0,0,12.11,3.75c6.13,0,10.45-3.41,10.45-9.73V56.53c-2.5,3.07-6.21,5-11.28,5-8.94,0-16.89-7.46-16.89-18.71S48.67,24,57.61,24C62.72,24,66.47,26,69,29.11ZM50.87,42.78c0,5.3,3.6,9.62,9.24,9.62,5.49,0,9.2-4.16,9.2-9.62s-3.71-9.66-9.2-9.66C54.47,33.13,50.87,37.44,50.87,42.78Z"/><line class="cls-3" x1="68.43" y1="42.94" x2="205.56" y2="42.94"/><circle class="cls-1" cx="204.75" cy="43.31" r="10.96"/></g></g></svg>