<svg xmlns="http://www.w3.org/2000/svg" viewBox="0 0 167.52 29.01"><defs><style>.cls-1{fill:#fff;}.cls-2{fill:none;stroke:#e74c3c;stroke-miterlimit:10;stroke-width:3.55px;}.cls-3{fill:#e74c3c;}</style></defs><title>logo_white</title><g id="Layer_2" data-name="Layer 2"><g id="Content"><path class="cls-1" d="M99.51,20.42H94.28v-2.2a7.29,7.29,0,0,1-6,2.71c-5.48,0-9.62-4.49-9.62-10.46S82.85,0,88.33,0a7.28,7.28,0,0,1,6,2.73V.53h5.23Zm-15.33-10c0,3,2,5.48,5.13,5.48s5.13-2.34,5.13-5.48S92.37,5,89.31,5,84.18,7.43,84.18,10.46Z"/><path class="cls-1" d="M134.14,10.46c0,6-4.14,10.46-9.62,10.46a7.27,7.27,0,0,1-5.85-2.59V28.62h-5.34V.53h5.23v2.2A7.21,7.21,0,0,1,124.5,0C130,0,134.14,4.49,134.14,10.46Zm-15.74,0c0,3.14,2.07,5.48,5.11,5.48s5.13-2.44,5.13-5.48S126.67,5,123.51,5,118.4,7.33,118.4,10.46Z"/><path class="cls-1" d="M167.52,10.46c0,6-4.15,10.46-9.62,10.46a7.27,7.27,0,0,1-5.85-2.59V28.62h-5.33V.53h5.23v2.2A7.21,7.21,0,0,1,157.88,0C163.38,0,167.52,4.49,167.52,10.46Zm-15.74,0c0,3.14,2.07,5.48,5.11,5.48S162,13.5,162,10.46,160.05,5,156.89,5,151.78,7.33,151.78,10.46Z"/><path class="cls-1" d="M15.31,2.75V.53h5.25V18.78C20.56,25.16,16.39,29,9.83,29a15.71,15.71,0,0,1-8.7-2.4L3,22.24a11.75,11.75,0,0,0,6.56,2c3.32,0,5.66-1.85,5.66-5.27v-1.4a7.5,7.5,0,0,1-6.11,2.69c-4.84,0-9.15-4-9.15-10.14S4.31,0,9.15,0A7.53,7.53,0,0,1,15.31,2.75ZM5.5,10.16a4.94,4.94,0,0,0,5,5.21,4.92,4.92,0,0,0,5-5.21,4.93,4.93,0,0,0-5-5.23A4.94,4.94,0,0,0,5.5,10.16Z"/><line class="cls-2" x1="15.01" y1="10.25" x2="89.33" y2="10.25"/><circle class="cls-3" cx="88.88" cy="10.44" r="5.94"/><circle class="cls-3" cx="10.23" cy="10.25" r="5.94"/></g></g></svg>