<svg xmlns="http://www.w3.org/2000/svg" viewBox="0 0 219.42 38"><defs><style>.cls-1{fill:#282828;}.cls-2{fill:none;stroke:#e74c3c;stroke-miterlimit:10;stroke-width:4.65px;}.cls-3{fill:#e74c3c;}</style></defs><title>logo</title><g id="Layer_2" data-name="Layer 2"><g id="Content"><path class="cls-1" d="M130.34,26.74h-6.85V23.87a9.55,9.55,0,0,1-7.79,3.55c-7.18,0-12.6-5.89-12.6-13.71S108.52,0,115.69,0a9.53,9.53,0,0,1,7.79,3.57V.7h6.85Zm-20.07-13c0,4,2.6,7.18,6.72,7.18s6.72-3.06,6.72-7.18S121,6.53,117,6.53,110.26,9.73,110.26,13.71Z"/><path class="cls-1" d="M175.7,13.71c0,7.82-5.43,13.71-12.6,13.71A9.52,9.52,0,0,1,155.43,24V37.49h-7V.7h6.85V3.57A9.45,9.45,0,0,1,163.07,0C170.27,0,175.7,5.89,175.7,13.71Zm-20.61,0c0,4.11,2.72,7.18,6.69,7.18,4.14,0,6.72-3.2,6.72-7.18s-2.58-7.18-6.72-7.18C157.8,6.53,155.08,9.59,155.08,13.71Z"/><path class="cls-1" d="M219.42,13.71c0,7.82-5.43,13.71-12.6,13.71A9.53,9.53,0,0,1,199.15,24V37.49h-7V.7H199V3.57A9.44,9.44,0,0,1,206.79,0C214,0,219.42,5.89,219.42,13.71Zm-20.61,0c0,4.11,2.72,7.18,6.69,7.18,4.14,0,6.72-3.2,6.72-7.18s-2.58-7.18-6.72-7.18C201.52,6.53,198.8,9.59,198.8,13.71Z"/><path class="cls-1" d="M20,3.6V.7h6.88V24.59C26.93,32.95,21.47,38,12.87,38c-4.11,0-8.47-1.08-11.4-3.14L4,29.13a15.39,15.39,0,0,0,8.6,2.66c4.35,0,7.42-2.42,7.42-6.91V23.06a9.83,9.83,0,0,1-8,3.52c-6.34,0-12-5.29-12-13.28S5.64,0,12,0A9.87,9.87,0,0,1,20,3.6ZM7.2,13.3c0,3.76,2.55,6.83,6.56,6.83s6.53-3,6.53-6.83-2.63-6.85-6.53-6.85S7.2,9.51,7.2,13.3Z"/><line class="cls-2" x1="19.67" y1="13.42" x2="117" y2="13.42"/><circle class="cls-3" cx="116.42" cy="13.68" r="7.78"/><circle class="cls-3" cx="13.41" cy="13.42" r="7.78"/></g></g></svg>