<svg xmlns="http://www.w3.org/2000/svg" viewBox="0 0 41.93 41.93"><defs><style>.cls-1{fill:#fff;}</style></defs><title>Asset 13</title><g id="Layer_2" data-name="Layer 2"><g id="Content"><path id="WhatsApp" class="cls-1" d="M41.93,20.43A20.62,20.62,0,0,1,11.4,38.31L0,41.93,3.72,31a20.21,20.21,0,0,1-3-10.55,20.59,20.59,0,0,1,41.17,0ZM21.35,3.25A17.26,17.26,0,0,0,4,20.43,17,17,0,0,0,7.34,30.5L5.18,36.87l6.65-2.11A17.32,17.32,0,0,0,38.66,20.43,17.26,17.26,0,0,0,21.35,3.25Zm10.4,21.88c-.13-.21-.46-.33-1-.58s-3-1.46-3.45-1.63-.8-.25-1.14.25-1.3,1.63-1.6,2-.59.38-1.09.13a13.81,13.81,0,0,1-4.06-2.48,15.1,15.1,0,0,1-2.81-3.47c-.29-.5,0-.77.22-1s.51-.58.76-.88a3.36,3.36,0,0,0,.5-.84.91.91,0,0,0,0-.88C18,15.45,16.94,13,16.52,12s-.84-.83-1.13-.83-.63,0-1,0a1.86,1.86,0,0,0-1.35.63,5.6,5.6,0,0,0-1.77,4.18,9.69,9.69,0,0,0,2.06,5.18c.25.33,3.49,5.55,8.62,7.56S27.12,30,28,29.89s3-1.21,3.41-2.38A4.17,4.17,0,0,0,31.74,25.13Z"/></g></g></svg>