<svg xmlns="http://www.w3.org/2000/svg" viewBox="0 0 210.42 62.76"><title>Asset 3</title><path d="M35.95,13.26l6.83-.2.22.22.45-.06,0-.38.5-.14.11-.47.22.07.28-.29-.15-.74h.24l-.58-.52L42.51,8.13V7.81a2.16,2.16,0,0,1-.82-.95V6.62l-.24-.18.06-.39.71,1c.06.07,0,.13.05.21a3.94,3.94,0,0,0,.7.67c.1,0,.21,0,.26-.2l.19-1.24-.84-1.71a1.16,1.16,0,0,1-1.7,0l-.69.05c-.16.07-.33.17-.42,0l-1.12.65L36.78,5a2.45,2.45,0,0,0-.8-.11c-.23.14-.4,0-.57-.08-.1.17-.2.33-.1.43l.07.67c-.16.26-.31.53.2,1.15Z" fill="#e74c3c"/><path d="M35.95,13.26l6.83-.2.22.22.45-.06,0-.38.5-.14.11-.47.22.07.28-.29-.15-.74h.24l-.58-.52L42.51,8.13V7.81a2.16,2.16,0,0,1-.82-.95V6.62l-.24-.18.06-.39.71,1c.06.07,0,.13.05.21a3.94,3.94,0,0,0,.7.67c.1,0,.21,0,.26-.2l.19-1.24-.84-1.71a1.16,1.16,0,0,1-1.7,0l-.69.05c-.16.07-.33.17-.42,0l-1.12.65L36.78,5a2.45,2.45,0,0,0-.8-.11c-.23.14-.4,0-.57-.08-.1.17-.2.33-.1.43l.07.67c-.16.26-.31.53.2,1.15Z" fill="#e74c3c"/><path d="M24.3,31.54l-1.4.07-.28-.18.42-.81h1.25Z" fill="#e74c3c"/><path d="M24.3,31.54l-1.4.07-.28-.18.42-.81h1.25Z" fill="#e74c3c"/><path d="M20.42,32.27a.15.15,0,1,1-.15-.15A.15.15,0,0,1,20.42,32.27Z" fill="#e74c3c"/><path d="M20.42,32.27a.15.15,0,1,1-.15-.15A.15.15,0,0,1,20.42,32.27Z" fill="#e74c3c"/><path d="M21,31.06a.12.12,0,1,1-.12-.12.12.12,0,0,1,.12.12Z" fill="#e74c3c"/><path d="M21,31.06a.12.12,0,1,1-.12-.12.12.12,0,0,1,.12.12Z" fill="#e74c3c"/><path d="M56.3,25.13,53.81,28l-1,0a3.64,3.64,0,0,0-.83.54,3.71,3.71,0,0,1-.87.45c-.2,0-.44.07-.58,0-.33-.32-.7-.16-1.07,0a.87.87,0,0,1-.57.47l-1.33-.21a4.49,4.49,0,0,0-1-.68l-.74-.05v-.6l-.58-.21-.42-1-.6-.48c.11-.18-.18-.33-.33-.49a.87.87,0,0,1-.61-.11l.18-.22v-.28h.53c.12-.07.24-.1.33-.29V23.22l.25-.4h.27l.12-.67c.32-.39.43-.87,1-1.18L46,19.83h.42l.06-.14h.2l.18.29.25-.67c.17.11.39.11.48.35l.43-.08.07-.14.08,0,.1.18a.44.44,0,0,1,.52,0c.06,0,.14,0,.3-.05.17.09.27.28.52.27a13.48,13.48,0,0,1,1.54,1.54s-.06.19-.09.53l-.2.36c-.16.27,0,.5.34.39l.27-.1.27.11c-.33.38.46,1,1.16,1.7l2.56.82Z" fill="#e74c3c"/><path d="M56.3,25.13,53.81,28l-1,0a3.64,3.64,0,0,0-.83.54,3.71,3.71,0,0,1-.87.45c-.2,0-.44.07-.58,0-.33-.32-.7-.16-1.07,0a.87.87,0,0,1-.57.47l-1.33-.21a4.49,4.49,0,0,0-1-.68l-.74-.05v-.6l-.58-.21-.42-1-.6-.48c.11-.18-.18-.33-.33-.49a.87.87,0,0,1-.61-.11l.18-.22v-.28h.53c.12-.07.24-.1.33-.29V23.22l.25-.4h.27l.12-.67c.32-.39.43-.87,1-1.18L46,19.83h.42l.06-.14h.2l.18.29.25-.67c.17.11.39.11.48.35l.43-.08.07-.14.08,0,.1.18a.44.44,0,0,1,.52,0c.06,0,.14,0,.3-.05.17.09.27.28.52.27a13.48,13.48,0,0,1,1.54,1.54s-.06.19-.09.53l-.2.36c-.16.27,0,.5.34.39l.27-.1.27.11c-.33.38.46,1,1.16,1.7l2.56.82Z" fill="#e74c3c"/><path d="M8.76,6.68l.83-.41.17.06L10,6.09l.48,0,0-.22c1,0,1.19-.22,1.37-.48l.83-.34H13l-.16-.21,0-.17V4.44c.32,0,.72,0,.72-.33l1.34,0,.19-.38c-.26-.09-.3-.46-.27-.86s0-1,0-1a.78.78,0,0,1-.22-.36c.07,0,.41,0,.61-.25s.24-.42.41-.37.6.11.62,0a1,1,0,0,1,1-.44c1,0,2.3-.38,2.72-.25s1-.16,1.22-.15.32.28.66.06c.13-.09.58.27,1,.14a.48.48,0,0,0-.27.38c0,.41-.06,1.68-.06,1.68s-.35,0-.4.19-.38.21-.41.35.2.55.49.81c.08.07,0,.43,0,.5a2.22,2.22,0,0,0,.63.34,11.67,11.67,0,0,0,.26,1.58c-.43,0-.2.43.09.85l0,2.43s-.39.08-.36.18a1,1,0,0,0,.36.64.73.73,0,0,1,.17.61.29.29,0,0,0,.25.3c.42,0,.78-.22,1.19.89L19.8,15.37a8.31,8.31,0,0,1-2,.5c-.28-.12,0-.44-.05-.65a.46.46,0,0,0-.53-.33c-.17,0-.26-.2-.33-.19-.28,0-.35-.27-.41-.32-.24-.22-.48-.29-.43-.49L8.58,8.22Z" fill="#e74c3c"/><path d="M8.76,6.68l.83-.41.17.06L10,6.09l.48,0,0-.22c1,0,1.19-.22,1.37-.48l.83-.34H13l-.16-.21,0-.17V4.44c.32,0,.72,0,.72-.33l1.34,0,.19-.38c-.26-.09-.3-.46-.27-.86s0-1,0-1a.78.78,0,0,1-.22-.36c.07,0,.41,0,.61-.25s.24-.42.41-.37.6.11.62,0a1,1,0,0,1,1-.44c1,0,2.3-.38,2.72-.25s1-.16,1.22-.15.32.28.66.06c.13-.09.58.27,1,.14a.48.48,0,0,0-.27.38c0,.41-.06,1.68-.06,1.68s-.35,0-.4.19-.38.21-.41.35.2.55.49.81c.08.07,0,.43,0,.5a2.22,2.22,0,0,0,.63.34,11.67,11.67,0,0,0,.26,1.58c-.43,0-.2.43.09.85l0,2.43s-.39.08-.36.18a1,1,0,0,0,.36.64.73.73,0,0,1,.17.61.29.29,0,0,0,.25.3c.42,0,.78-.22,1.19.89L19.8,15.37a8.31,8.31,0,0,1-2,.5c-.28-.12,0-.44-.05-.65a.46.46,0,0,0-.53-.33c-.17,0-.26-.2-.33-.19-.28,0-.35-.27-.41-.32-.24-.22-.48-.29-.43-.49L8.58,8.22Z" fill="#e74c3c"/><path d="M24.7,47.55c.19,0,.39-.3.55-.1.17-.2.62-.61,1.37.15l3.73-.05.4.35,2.35.3,1.49-.33-1-.9.08-3.18,1.79.05-.19-.21.21-1.68h-.08a4.13,4.13,0,0,1-1.36.13l-.16.32-.29-.25.33-.44-.44-.9-.07-2-.77.05v-.36l-.34-.05-.09.16-.63,0-.24.91a1.41,1.41,0,0,0-1.06.1c-.41-.13-.78.18-1.37-1.89l-.22-.13-2.36,0-1.07.37c.27.77.84,1.21.82,2.35l-.18.18a2.48,2.48,0,0,0,.63,1.3c0,.14,0,.25,0,.36,0,.4-.24,1.52-.34,1.32,0,0-.38.08-.41.39,0,.15-.2.17-.27.35a14.85,14.85,0,0,0-.53,2.06c0,.09-.13,0-.14.13a5.66,5.66,0,0,0,0,.65c0,.07-.1-.05-.12,0S24.73,47.47,24.7,47.55Z" fill="#e74c3c"/><path d="M24.7,47.55c.19,0,.39-.3.55-.1.17-.2.62-.61,1.37.15l3.73-.05.4.35,2.35.3,1.49-.33-1-.9.08-3.18,1.79.05-.19-.21.21-1.68h-.08a4.13,4.13,0,0,1-1.36.13l-.16.32-.29-.25.33-.44-.44-.9-.07-2-.77.05v-.36l-.34-.05-.09.16-.63,0-.24.91a1.41,1.41,0,0,0-1.06.1c-.41-.13-.78.18-1.37-1.89l-.22-.13-2.36,0-1.07.37c.27.77.84,1.21.82,2.35l-.18.18a2.48,2.48,0,0,0,.63,1.3c0,.14,0,.25,0,.36,0,.4-.24,1.52-.34,1.32,0,0-.38.08-.41.39,0,.15-.2.17-.27.35a14.85,14.85,0,0,0-.53,2.06c0,.09-.13,0-.14.13a5.66,5.66,0,0,0,0,.65c0,.07-.1-.05-.12,0S24.73,47.47,24.7,47.55Z" fill="#e74c3c"/><path d="M25,36.9l.42-.25c.17-.41.32-.29.45-.11a.87.87,0,0,0-.38.6c0,.39-.14.36-.27.43-.06-.11-.14-.21-.11-.33A.41.41,0,0,0,25,36.9Z" fill="#e74c3c"/><path d="M25,36.9l.42-.25c.17-.41.32-.29.45-.11a.87.87,0,0,0-.38.6c0,.39-.14.36-.27.43-.06-.11-.14-.21-.11-.33A.41.41,0,0,0,25,36.9Z" fill="#e74c3c"/><path d="M17,26.94l-.79.11-.41-3.21c-.05-.24-.3-.35-.48-.5l.1-.52.51-.4.53,0,.39-.63.88.14v.7a.5.5,0,0,1,0,.74c0,.34,0,.62-.27.61a2.61,2.61,0,0,1-.45,1Z" fill="#e74c3c"/><path d="M17,26.94l-.79.11-.41-3.21c-.05-.24-.3-.35-.48-.5l.1-.52.51-.4.53,0,.39-.63.88.14v.7a.5.5,0,0,1,0,.74c0,.34,0,.62-.27.61a2.61,2.61,0,0,1-.45,1Z" fill="#e74c3c"/><path d="M36.13,47.94l-.55.31c-.54,0-.58.32-.78.49l-.15-.43-2.06.18-.12,3.18-.84,0L31.58,54c.23.28.54.59.7.8s.05.59-.09,1a1.8,1.8,0,0,0,1.19.08.6.6,0,0,1,.24-.33A.69.69,0,0,0,34,55l.51-.43a1.54,1.54,0,0,1,.8.33,2.16,2.16,0,0,0,1-.2l.1-.48,3-2.4a1.39,1.39,0,0,0-.78-.26c-.22-.05-.49-.44-.41-1.1a.78.78,0,0,1-.46-.29c-.13-.22-.3-.2-.45-.29-.24-.33-.67-.75-.7-1s-.08-.12-.17-.25S36.22,48.13,36.13,47.94Z" fill="#e74c3c"/><path d="M36.13,47.94l-.55.31c-.54,0-.58.32-.78.49l-.15-.43-2.06.18-.12,3.18-.84,0L31.58,54c.23.28.54.59.7.8s.05.59-.09,1a1.8,1.8,0,0,0,1.19.08.6.6,0,0,1,.24-.33A.69.69,0,0,0,34,55l.51-.43a1.54,1.54,0,0,1,.8.33,2.16,2.16,0,0,0,1-.2l.1-.48,3-2.4a1.39,1.39,0,0,0-.78-.26c-.22-.05-.49-.44-.41-1.1a.78.78,0,0,1-.46-.29c-.13-.22-.3-.2-.45-.29-.24-.33-.67-.75-.7-1s-.08-.12-.17-.25S36.22,48.13,36.13,47.94Z" fill="#e74c3c"/><path d="M39.94,34.82l.13-.12h.15l.08.21.43-.08,0-.27.53,0c-.18.31.09.47.2.63-.36.84-.66,1.13-.94,1.14s-.32.14-.36.25a6.89,6.89,0,0,1,0-1A.74.74,0,0,0,39.94,34.82Z" fill="#e74c3c"/><path d="M39.94,34.82l.13-.12h.15l.08.21.43-.08,0-.27.53,0c-.18.31.09.47.2.63-.36.84-.66,1.13-.94,1.14s-.32.14-.36.25a6.89,6.89,0,0,1,0-1A.74.74,0,0,0,39.94,34.82Z" fill="#e74c3c"/><path d="M12.32,24.11c-.16,0-.22-.24-.36-.37s-.77-.06-1.17.18a1.1,1.1,0,0,1-.64-.66c.1-.26,0-.61.16-.89a1.52,1.52,0,0,1,.68-.68l.44-.92c.38-.12.72-.17,1-.28a1.48,1.48,0,0,0,.7-.47c.56-.35,1.26-.79,1.69-.68a.62.62,0,0,0,.08.41c.15.1.12.26.09.43l.87,1.17.33.11c0-.06.29-.35.4.3l.2,0-.38.64-.54,0-.52.41-.78-.09a1.41,1.41,0,0,0-.68.13l-1.73,0Z" fill="#e74c3c"/><path d="M12.32,24.11c-.16,0-.22-.24-.36-.37s-.77-.06-1.17.18a1.1,1.1,0,0,1-.64-.66c.1-.26,0-.61.16-.89a1.52,1.52,0,0,1,.68-.68l.44-.92c.38-.12.72-.17,1-.28a1.48,1.48,0,0,0,.7-.47c.56-.35,1.26-.79,1.69-.68a.62.62,0,0,0,.08.41c.15.1.12.26.09.43l.87,1.17.33.11c0-.06.29-.35.4.3l.2,0-.38.64-.54,0-.52.41-.78-.09a1.41,1.41,0,0,0-.68.13l-1.73,0Z" fill="#e74c3c"/><path d="M30.85,29.36c-.15.45-.33.77-.52,1.26A14.26,14.26,0,0,0,30,33.13c-.65.3-.86.77-1.19,1.2l-.26,1.25c-.47.46-.91,1.05-1.48,1.13,0-.7-.64-.36-.7-.09-.29.19-.38,0-.54-.07a.72.72,0,0,0-.36.58c0,.4-.15.38-.29.46l.08.31,1.08-.37,2.36,0,.22.13c.54,2,1,1.79,1.36,1.89a1.75,1.75,0,0,1,1.08-.11l.23-.9.63,0,.08-.16.35.05v.37l.76-.06.08,2,.43.9-.33.45.3.25.16-.32,1,0,.36-.12h.31l.11.45.58-.19a.58.58,0,0,0,.17.3,1.49,1.49,0,0,0,.85.42c.22,0,.4-.22.59-.18a1.14,1.14,0,0,0,.91.5c.24.38.41.84,1.1.76l.27.19,0-1a.86.86,0,0,1-1-.38,3.23,3.23,0,0,1,.38-1.07,4,4,0,0,0-.13-1.15,1.16,1.16,0,0,1,.23-.59l1.56-.38c-.16-.87-.73-1.05-.89-1.67a7,7,0,0,1-.19-2.55.8.8,0,0,0-.49-.75l.47-.67.38-.41.06-1.45.53-.8.85-.77-.51-.33v-.91l-1.06-.9c-.09,0-.14.1-.21.16a1.37,1.37,0,0,1-.62-.06c-.11.25-.56.12-.62,0s0-.12,0-.15a2.42,2.42,0,0,0-.41-.42l-.44,0-.14.17L37.79,28l-.1.16-.21-.28-1,.08v.15l-.43.08L36,28l-1.08.38c-.3-.22-.42-.1-.59-.11l-.19.42c-.9,0-1.28,0-1.43-.24-.29.31-.35-.07-.53-.12-.1-.46-.36-.32-.54-.48a2.41,2.41,0,0,0-.68.68A2.12,2.12,0,0,1,30.85,29.36Z" fill="#e74c3c"/><path d="M30.85,29.36c-.15.45-.33.77-.52,1.26A14.26,14.26,0,0,0,30,33.13c-.65.3-.86.77-1.19,1.2l-.26,1.25c-.47.46-.91,1.05-1.48,1.13,0-.7-.64-.36-.7-.09-.29.19-.38,0-.54-.07a.72.72,0,0,0-.36.58c0,.4-.15.38-.29.46l.08.31,1.08-.37,2.36,0,.22.13c.54,2,1,1.79,1.36,1.89a1.75,1.75,0,0,1,1.08-.11l.23-.9.63,0,.08-.16.35.05v.37l.76-.06.08,2,.43.9-.33.45.3.25.16-.32,1,0,.36-.12h.31l.11.45.58-.19a.58.58,0,0,0,.17.3,1.49,1.49,0,0,0,.85.42c.22,0,.4-.22.59-.18a1.14,1.14,0,0,0,.91.5c.24.38.41.84,1.1.76l.27.19,0-1a.86.86,0,0,1-1-.38,3.23,3.23,0,0,1,.38-1.07,4,4,0,0,0-.13-1.15,1.16,1.16,0,0,1,.23-.59l1.56-.38c-.16-.87-.73-1.05-.89-1.67a7,7,0,0,1-.19-2.55.8.8,0,0,0-.49-.75l.47-.67.38-.41.06-1.45.53-.8.85-.77-.51-.33v-.91l-1.06-.9c-.09,0-.14.1-.21.16a1.37,1.37,0,0,1-.62-.06c-.11.25-.56.12-.62,0s0-.12,0-.15a2.42,2.42,0,0,0-.41-.42l-.44,0-.14.17L37.79,28l-.1.16-.21-.28-1,.08v.15l-.43.08L36,28l-1.08.38c-.3-.22-.42-.1-.59-.11l-.19.42c-.9,0-1.28,0-1.43-.24-.29.31-.35-.07-.53-.12-.1-.46-.36-.32-.54-.48a2.41,2.41,0,0,0-.68.68A2.12,2.12,0,0,1,30.85,29.36Z" fill="#e74c3c"/><path d="M51.64,21l-.51.38c-.09.26,0,.46-.11.58-.29.49-.26.53-.16.64s.44,0,.61-.06l.27.11.3-.45c-.18-.15-.36-.07-.55-.08.05-.22.3-.27.48-.39A.6.6,0,0,0,51.64,21Z" fill="#e74c3c"/><path d="M51.64,21l-.51.38c-.09.26,0,.46-.11.58-.29.49-.26.53-.16.64s.44,0,.61-.06l.27.11.3-.45c-.18-.15-.36-.07-.55-.08.05-.22.3-.27.48-.39A.6.6,0,0,0,51.64,21Z" fill="#e74c3c"/><path d="M7.93,28.59l.33,0,2.63-.74.94.11.14-.56c0-.45-.41-.9.11-1.34,0-.33,0-.68.37-.89l-.12-1.1c-.14,0-.2-.15-.28-.28-.17-.29-.73-.26-1.26.1-.25-.18-.54-.3-.64-.67a.79.79,0,0,0-.84.13l0-.38c-.05-.14-.25-.1-.48,0-.06,0,0,.1,0,.21a1.45,1.45,0,0,1-.25.05.46.46,0,0,1-.24.17c-.24-.41-.37-.34-.65-.11a.87.87,0,0,0-.2.43c0,.19,0,.36.24.34l0,.25c.14.06.11.09,0,.23s.17.36.14.43l-.44-.09c0,.07,0,.17,0,.25l.21.09-.16.43s-.2,0-.25,0V26c.23.06.1.59-.11.68l.31.2c.07-.05.26,0,.39.33,0,0,.31.2.3.44S8,27.85,8,28Z" fill="#e74c3c"/><path d="M7.93,28.59l.33,0,2.63-.74.94.11.14-.56c0-.45-.41-.9.11-1.34,0-.33,0-.68.37-.89l-.12-1.1c-.14,0-.2-.15-.28-.28-.17-.29-.73-.26-1.26.1-.25-.18-.54-.3-.64-.67a.79.79,0,0,0-.84.13l0-.38c-.05-.14-.25-.1-.48,0-.06,0,0,.1,0,.21a1.45,1.45,0,0,1-.25.05.46.46,0,0,1-.24.17c-.24-.41-.37-.34-.65-.11a.87.87,0,0,0-.2.43c0,.19,0,.36.24.34l0,.25c.14.06.11.09,0,.23s.17.36.14.43l-.44-.09c0,.07,0,.17,0,.25l.21.09-.16.43s-.2,0-.25,0V26c.23.06.1.59-.11.68l.31.2c.07-.05.26,0,.39.33,0,0,.31.2.3.44S8,27.85,8,28Z" fill="#e74c3c"/><path d="M47.12,19.31c.16.11.32.09.48.34l.42-.08.08-.13.07,0,.09.17a.48.48,0,0,1,.54,0c.08.06.2,0,.29-.06a.88.88,0,0,0,.51.27,13,13,0,0,1,1.54,1.53l.5-.35a.49.49,0,0,0-.51-.38.41.41,0,0,0-.3-.37c0-.19-.2-.18-.33-.23a1.83,1.83,0,0,0-.57-.66c-.24.06-.35-.1-.46-.26l-.18,0-.13.08a.71.71,0,0,1-.21-.42l-.19-.05,0,.27c-.12.07-.18-.12-.24-.33l-.4-.57a3.18,3.18,0,0,0-.71-1.68c-.06.15-.07.33-.18.41l-.58.3a.41.41,0,0,1-.39.21A11,11,0,0,0,46,19.82h.45l0-.15h.21l.17.27Z" fill="#e74c3c"/><path d="M47.12,19.31c.16.11.32.09.48.34l.42-.08.08-.13.07,0,.09.17a.48.48,0,0,1,.54,0c.08.06.2,0,.29-.06a.88.88,0,0,0,.51.27,13,13,0,0,1,1.54,1.53l.5-.35a.49.49,0,0,0-.51-.38.41.41,0,0,0-.3-.37c0-.19-.2-.18-.33-.23a1.83,1.83,0,0,0-.57-.66c-.24.06-.35-.1-.46-.26l-.18,0-.13.08a.71.71,0,0,1-.21-.42l-.19-.05,0,.27c-.12.07-.18-.12-.24-.33l-.4-.57a3.18,3.18,0,0,0-.71-1.68c-.06.15-.07.33-.18.41l-.58.3a.41.41,0,0,1-.39.21A11,11,0,0,0,46,19.82h.45l0-.15h.21l.17.27Z" fill="#e74c3c"/><path d="M24.11,35.78l-1.56-1.61-.37-.95.34-.33.1-.53.44.1s.06,0,0-.1l-.38-.19.12-.54,1.46-.07V30.6h1.81l-.14.2,0,.61c.16.06.27-.07.38-.27.28,0,.79.21.65.69-.23.26-.34.5-.25.72a3.1,3.1,0,0,1,.18.56l-.14,1.28-.29.21a.66.66,0,0,0-.71-.25c-.1-.13-.21-.3-.4,0l-.75.46.07.62Z" fill="#e74c3c"/><path d="M24.11,35.78l-1.56-1.61-.37-.95.34-.33.1-.53.44.1s.06,0,0-.1l-.38-.19.12-.54,1.46-.07V30.6h1.81l-.14.2,0,.61c.16.06.27-.07.38-.27.28,0,.79.21.65.69-.23.26-.34.5-.25.72a3.1,3.1,0,0,1,.18.56l-.14,1.28-.29.21a.66.66,0,0,0-.71-.25c-.1-.13-.21-.3-.4,0l-.75.46.07.62Z" fill="#e74c3c"/><path d="M.51,20.05h.95c.2-.27.51-.18.85.06l.55,0,.12.16-.4.14a2.32,2.32,0,0,1-.74-.3.91.91,0,0,1-.57.13l-.1.17-.82,0Z" fill="#e74c3c"/><path d="M.51,20.05h.95c.2-.27.51-.18.85.06l.55,0,.12.16-.4.14a2.32,2.32,0,0,1-.74-.3.91.91,0,0,1-.57.13l-.1.17-.82,0Z" fill="#e74c3c"/><path d="M15.54,27.21c-.08.11-.09.34-.32.21a7.63,7.63,0,0,0-2.38.93l-1-.37.14-.56c0-.45-.41-.9.11-1.34,0-.33,0-.68.37-.89l-.27-2.41,1.73.05a1.48,1.48,0,0,1,.72-.14c-.14.27-.06.53.27.77a19.12,19.12,0,0,1,.32,3.19Z" fill="#e74c3c"/><path d="M15.54,27.21c-.08.11-.09.34-.32.21a7.63,7.63,0,0,0-2.38.93l-1-.37.14-.56c0-.45-.41-.9.11-1.34,0-.33,0-.68.37-.89l-.27-2.41,1.73.05a1.48,1.48,0,0,1,.72-.14c-.14.27-.06.53.27.77a19.12,19.12,0,0,1,.32,3.19Z" fill="#e74c3c"/><path d="M1.66,22.55c0,.09,0,.14.1.14s.22-.35.19.06l.15,0a.54.54,0,0,0,.26.57c.19.07.3.29.41.39l.26.48c.18.12.43,0,.82-.49,0-.18.2-.27.92-.22A1.19,1.19,0,0,1,5.33,25c.26-.06.41-.24.85-.13a.89.89,0,0,1,.17,1c.24.09.33.36.67-.09,0-.1.06-.14.17-.06s.17,0,.28,0l.18-.46-.22-.09,0-.24.45.09c0-.17-.26-.38-.09-.5s0-.14,0-.19V24.1c-.44-.05-.19-.54,0-.78l-.27-.24,0-.54-.22.16-.08-.12.3-.27-.4-.3a1.41,1.41,0,0,0-.1-.73l-.28-.06a.22.22,0,0,1-.16.25q-.16,0-.19.2l-.5-.21-.39.29c.05-.13-.08-.2-.16-.3l-.22.15c-.17.06-.19,0-.19-.15s.08-.07.09-.12a4.7,4.7,0,0,1-1.82-.39H3l-.08,1H2.42A1.71,1.71,0,0,0,1.66,22.55Z" fill="#e74c3c"/><path d="M1.66,22.55c0,.09,0,.14.1.14s.22-.35.19.06l.15,0a.54.54,0,0,0,.26.57c.19.07.3.29.41.39l.26.48c.18.12.43,0,.82-.49,0-.18.2-.27.92-.22A1.19,1.19,0,0,1,5.33,25c.26-.06.41-.24.85-.13a.89.89,0,0,1,.17,1c.24.09.33.36.67-.09,0-.1.06-.14.17-.06s.17,0,.28,0l.18-.46-.22-.09,0-.24.45.09c0-.17-.26-.38-.09-.5s0-.14,0-.19V24.1c-.44-.05-.19-.54,0-.78l-.27-.24,0-.54-.22.16-.08-.12.3-.27-.4-.3a1.41,1.41,0,0,0-.1-.73l-.28-.06a.22.22,0,0,1-.16.25q-.16,0-.19.2l-.5-.21-.39.29c.05-.13-.08-.2-.16-.3l-.22.15c-.17.06-.19,0-.19-.15s.08-.07.09-.12a4.7,4.7,0,0,1-1.82-.39H3l-.08,1H2.42A1.71,1.71,0,0,0,1.66,22.55Z" fill="#e74c3c"/><path d="M.3,21.16l.06.16c.12.08.35-.08.33.31.11.06.24-.06.32.2.13.07.47-.56.35.38l.3.33a1.64,1.64,0,0,1,.73-.66h.49L3,20.93H1.7a1.23,1.23,0,0,1-.81.13A1.85,1.85,0,0,1,.3,21.16Z" fill="#e74c3c"/><path d="M.3,21.16l.06.16c.12.08.35-.08.33.31.11.06.24-.06.32.2.13.07.47-.56.35.38l.3.33a1.64,1.64,0,0,1,.73-.66h.49L3,20.93H1.7a1.23,1.23,0,0,1-.81.13A1.85,1.85,0,0,1,.3,21.16Z" fill="#e74c3c"/><path d="M28.52,31.06c-.23-.1-.51-.33-.67-.24l-.58-.21H23l.13-1-.33-.42.12-.15L22.85,29l-.22.07c-.27,0-.37-.23-.43-.45-.15-.06-.35,0-.35-.28.31-.53.37-1.26,1-1.55l0-.23.86,0c.32.21.22.44.76.37.38-.68.65-1.93,1.14-2,.3-.73.38-1.77.89-2.19a1,1,0,0,0,.55-.35,1,1,0,0,0,0-.53c0-.1-.09,0-.19-.15l-.15-.56.12-.1.45.38a3.18,3.18,0,0,1,.19.94c0,.49-.24.56.25,1.12a.67.67,0,0,1,.08.44l-.91-.09c-.1.25-.33.81.57,1l.42,1.27-.79,1.31.11,1a6.62,6.62,0,0,0,1.26,1.75Z" fill="#e74c3c"/><path d="M28.52,31.06c-.23-.1-.51-.33-.67-.24l-.58-.21H23l.13-1-.33-.42.12-.15L22.85,29l-.22.07c-.27,0-.37-.23-.43-.45-.15-.06-.35,0-.35-.28.31-.53.37-1.26,1-1.55l0-.23.86,0c.32.21.22.44.76.37.38-.68.65-1.93,1.14-2,.3-.73.38-1.77.89-2.19a1,1,0,0,0,.55-.35,1,1,0,0,0,0-.53c0-.1-.09,0-.19-.15l-.15-.56.12-.1.45.38a3.18,3.18,0,0,1,.19.94c0,.49-.24.56.25,1.12a.67.67,0,0,1,.08.44l-.91-.09c-.1.25-.33.81.57,1l.42,1.27-.79,1.31.11,1a6.62,6.62,0,0,0,1.26,1.75Z" fill="#e74c3c"/><path d="M50.9,33.92a.59.59,0,0,1-.49.35.75.75,0,0,1-.52.55,12.32,12.32,0,0,1-1,1.84l-1.19-.8-.19-.69-3.63-2.28,1.19-1.83,0-1-.41-.34c-.05-.39-.14-.75-.47-.89l.42-.37,1.18-.05.73.06a3.65,3.65,0,0,1,1.05.69l1.34.2a.89.89,0,0,0,.56-.48c.32,0,.67-.33,1.08.07a1.38,1.38,0,0,0,.57,0A11.87,11.87,0,0,1,50.37,30l0,3.32Z" fill="#e74c3c"/><path d="M50.9,33.92a.59.59,0,0,1-.49.35.75.75,0,0,1-.52.55,12.32,12.32,0,0,1-1,1.84l-1.19-.8-.19-.69-3.63-2.28,1.19-1.83,0-1-.41-.34c-.05-.39-.14-.75-.47-.89l.42-.37,1.18-.05.73.06a3.65,3.65,0,0,1,1.05.69l1.34.2a.89.89,0,0,0,.56-.48c.32,0,.67-.33,1.08.07a1.38,1.38,0,0,0,.57,0A11.87,11.87,0,0,1,50.37,30l0,3.32Z" fill="#e74c3c"/><path d="M24.77,3.63a.76.76,0,0,1-.26.77l-.83.6c.05.28.12,1-.5,1.09-.42.07-.2.41.08.87l0,2.42s-.38.07-.35.17a1,1,0,0,0,.35.64.77.77,0,0,1,.17.63c0,.21.21.3.27.29.42,0,.76-.21,1.16.9l2,.06c.23,0,.48.41.48.41l1.14-.32,6.73,3.33V15c.74.06.83,0,.83,0l-.46-7.86c-.27-.37-.54-.73-.21-1.15a2.79,2.79,0,0,0-.08-.68.41.41,0,0,1,.15-.43c0-.33-.64-.31-1-.33s-.74-.08-.66-.41c0,0-1.15-.41-1.6-.14-.24.15-.74.38-.83.67a.6.6,0,0,0,.11.54c.21.36-.5,1.58-1.3.6,0,0-1.06-.29-1.66-.42s-1-.64-.75-1c0,0-1.59-.5-1.59-.5A1.83,1.83,0,0,1,24.77,3.63Z" fill="#e74c3c"/><path d="M24.77,3.63a.76.76,0,0,1-.26.77l-.83.6c.05.28.12,1-.5,1.09-.42.07-.2.41.08.87l0,2.42s-.38.07-.35.17a1,1,0,0,0,.35.64.77.77,0,0,1,.17.63c0,.21.21.3.27.29.42,0,.76-.21,1.16.9l2,.06c.23,0,.48.41.48.41l1.14-.32,6.73,3.33V15c.74.06.83,0,.83,0l-.46-7.86c-.27-.37-.54-.73-.21-1.15a2.79,2.79,0,0,0-.08-.68.41.41,0,0,1,.15-.43c0-.33-.64-.31-1-.33s-.74-.08-.66-.41c0,0-1.15-.41-1.6-.14-.24.15-.74.38-.83.67a.6.6,0,0,0,.11.54c.21.36-.5,1.58-1.3.6,0,0-1.06-.29-1.66-.42s-1-.64-.75-1c0,0-1.59-.5-1.59-.5A1.83,1.83,0,0,1,24.77,3.63Z" fill="#e74c3c"/><path d="M7.92,28.59l-.74-.26L4.57,26.19l.83-.69v-.25l.4-.39c.12-.08.27,0,.41,0a.9.9,0,0,1,.16,1c.2.05.35.38.67-.09,0-.13.07-.13.2-.05V26a.34.34,0,0,1,.08.45c-.05.1-.09.21-.21.23l.34.21c.1,0,.18-.09.38.34,0,.06.55.27.13.78Z" fill="#e74c3c"/><path d="M7.92,28.59l-.74-.26L4.57,26.19l.83-.69v-.25l.4-.39c.12-.08.27,0,.41,0a.9.9,0,0,1,.16,1c.2.05.35.38.67-.09,0-.13.07-.13.2-.05V26a.34.34,0,0,1,.08.45c-.05.1-.09.21-.21.23l.34.21c.1,0,.18-.09.38.34,0,.06.55.27.13.78Z" fill="#e74c3c"/><path d="M11.24,10.23l-1.32,0L10,17.88l.35.12-.24.74L6.2,18.52l-.45.31-.24-.09-.17-.5-.22-.06c-.44,1-.5.85-.67,1,0,.1,0,.19,0,.28.1.28.16.56,0,.69.2.18.46.32.54.58a1.1,1.1,0,0,1-.09.68c-.09.09,0,.29.2.14l.18-.11c.06.09.19.14.17.28l.39-.27.48.2c0-.07,0-.18.17-.21s.17-.07.2-.24l.26.06a1.64,1.64,0,0,1,.11.73l.39.29-.3.27.08.12.22-.14,0,.52.27.25c.11-.11.29-.25.43-.18s.19.33.31.25.15-.16.34-.16S8.72,23,8.91,23s.22-.1.37-.06,0,.56.07.45a.75.75,0,0,1,.82-.11c.14-.51-.14-1,.84-1.58l.43-.91c.58-.24,1.2-.13,1.73-.76.67-.45,1.33-.78,1.69-.68h.67l.38-.32,1.81,0c0-.09.07-.15.32-.28,0-.22.2-.23.33-.3l.07-2.69-.68.1c-.27-.17,0-.23,0-.62-.15-.34-.35-.4-.54-.36s-.24-.21-.33-.19-.32-.11-.42-.33-.13-.11-.19-.15S16,14,16,13.89Z" fill="#e74c3c"/><path d="M11.24,10.23l-1.32,0L10,17.88l.35.12-.24.74L6.2,18.52l-.45.31-.24-.09-.17-.5-.22-.06c-.44,1-.5.85-.67,1,0,.1,0,.19,0,.28.1.28.16.56,0,.69.2.18.46.32.54.58a1.1,1.1,0,0,1-.09.68c-.09.09,0,.29.2.14l.18-.11c.06.09.19.14.17.28l.39-.27.48.2c0-.07,0-.18.17-.21s.17-.07.2-.24l.26.06a1.64,1.64,0,0,1,.11.73l.39.29-.3.27.08.12.22-.14,0,.52.27.25c.11-.11.29-.25.43-.18s.19.33.31.25.15-.16.34-.16S8.72,23,8.91,23s.22-.1.37-.06,0,.56.07.45a.75.75,0,0,1,.82-.11c.14-.51-.14-1,.84-1.58l.43-.91c.58-.24,1.2-.13,1.73-.76.67-.45,1.33-.78,1.69-.68h.67l.38-.32,1.81,0c0-.09.07-.15.32-.28,0-.22.2-.23.33-.3l.07-2.69-.68.1c-.27-.17,0-.23,0-.62-.15-.34-.35-.4-.54-.36s-.24-.21-.33-.19-.32-.11-.42-.33-.13-.11-.19-.15S16,14,16,13.89Z" fill="#e74c3c"/><path d="M44,41l.52,1.7-.15,1.51a4.29,4.29,0,0,1,1,1.22,1,1,0,0,1,.09.49l-.19.8-.47.2,0,.7h-.25c.13-.33,0-.27,0-.29a1.2,1.2,0,0,1-.53-.81,1.52,1.52,0,0,0,.23-1.1l-.46-.08c-.35.09-.42,0-.46-.16-.19-.45-.28-.28-.35-.31l-.27-.38.48-.89.37,0-.25-.33.22-1.15.21-.16-.61-1.21A1.52,1.52,0,0,0,44,41Z" fill="#e74c3c"/><path d="M44,41l.52,1.7-.15,1.51a4.29,4.29,0,0,1,1,1.22,1,1,0,0,1,.09.49l-.19.8-.47.2,0,.7h-.25c.13-.33,0-.27,0-.29a1.2,1.2,0,0,1-.53-.81,1.52,1.52,0,0,0,.23-1.1l-.46-.08c-.35.09-.42,0-.46-.16-.19-.45-.28-.28-.35-.31l-.27-.38.48-.89.37,0-.25-.33.22-1.15.21-.16-.61-1.21A1.52,1.52,0,0,0,44,41Z" fill="#e74c3c"/><path d="M8.66,7.71l.13-1,.8-.41.18.05.28-.23.47,0,0-.23c1,0,1.19-.22,1.36-.48l.83-.34h.31l-.16-.21.05-.19,0-.25c.32,0,.72,0,.72-.33l1.34,0,.18-.41c-.26-.09-.3-.46-.27-.86s0-1,0-1a.78.78,0,0,1-.22-.36c-.22,0-.48,0-.57-.17a3.42,3.42,0,0,0-.9-.05c-.51.05-.72-.13-.93-.62-.49,0-1,1-1.39,1.55a4,4,0,0,0-2,1.21c.06.22,0,.31-.27.45s-.65.9-.48,1.36A1.66,1.66,0,0,1,7,6.6a2.78,2.78,0,0,1-1,.53,3.69,3.69,0,0,0-1,.3Z" fill="#e74c3c"/><path d="M8.66,7.71l.13-1,.8-.41.18.05.28-.23.47,0,0-.23c1,0,1.19-.22,1.36-.48l.83-.34h.31l-.16-.21.05-.19,0-.25c.32,0,.72,0,.72-.33l1.34,0,.18-.41c-.26-.09-.3-.46-.27-.86s0-1,0-1a.78.78,0,0,1-.22-.36c-.22,0-.48,0-.57-.17a3.42,3.42,0,0,0-.9-.05c-.51.05-.72-.13-.93-.62-.49,0-1,1-1.39,1.55a4,4,0,0,0-2,1.21c.06.22,0,.31-.27.45s-.65.9-.48,1.36A1.66,1.66,0,0,1,7,6.6a2.78,2.78,0,0,1-1,.53,3.69,3.69,0,0,0-1,.3Z" fill="#e74c3c"/><path d="M4.39,13.15C4.5,12.39,4,11.33,5.5,11.3L5.81,9l2.63.23.14-1,2.65,2-1.32,0L10,17.88l.33.12-.23.74-3.9-.21-.44.31-.24-.08-.17-.52-.24-.06s-.43,1.06-.7,1l-.26-.27a1.88,1.88,0,0,1-.35-.43c-.13-.25-.22-.64-.4-.61-.38.06-.67-.45-.67-.45a1.74,1.74,0,0,0-.77,0,6.63,6.63,0,0,1-1,0l.38-1.05,0-1.23-.23-.37c.12-.22.5-.42.25-1.07,0-.07-.16,0-.16,0l-.16-.48.2-.2Z" fill="#e74c3c"/><path d="M4.39,13.15C4.5,12.39,4,11.33,5.5,11.3L5.81,9l2.63.23.14-1,2.65,2-1.32,0L10,17.88l.33.12-.23.74-3.9-.21-.44.31-.24-.08-.17-.52-.24-.06s-.43,1.06-.7,1l-.26-.27a1.88,1.88,0,0,1-.35-.43c-.13-.25-.22-.64-.4-.61-.38.06-.67-.45-.67-.45a1.74,1.74,0,0,0-.77,0,6.63,6.63,0,0,1-1,0l.38-1.05,0-1.23-.23-.37c.12-.22.5-.42.25-1.07,0-.07-.16,0-.16,0l-.16-.48.2-.2Z" fill="#e74c3c"/><path d="M40.44,45.76l.18.48v.24l.63,0,1.48.58a3.8,3.8,0,0,1-.19,2.14,2,2,0,0,0,0,.35,1.26,1.26,0,0,1,0,.73,10,10,0,0,1-.65,1.26,1.22,1.22,0,0,0-.56.85l.15,3.66.56,0,.15-.52-.22.08c0-.2,0-.41.2-.62l1.8-.71a2.4,2.4,0,0,0,.52-.64l-.21-.07.37-1.41-.19-.06L44.27,51a.52.52,0,0,1,0-.91l1.09-.92.09.18.4-.45-.09-.14.26,0,.08-.23,1.33-.66h.33a3.56,3.56,0,0,1,.82-.55l0-.2.44-.34c.11-.11.2-.27.34-.27l0-.22-.08-.09.24-.36.06-.24,0-.16-.15-.23.05-.89c-.11-.11-.05-.19,0-.26l0-1,.36-.6a1.19,1.19,0,0,0,0-.49c-.55.33-1.46.89-1.93.6a.77.77,0,0,0-.63.28,2.59,2.59,0,0,0-.52,0l-.66.12c-.12-.14-.24-.28-.51-.13l-1,0-.15,1.5a3.68,3.68,0,0,1,1.09,1.37c.13.3-.1.74-.15,1.13l-.47.21,0,.67-.23,0c.06-.14.12-.28-.08-.3a1.18,1.18,0,0,1-.48-.79,1.64,1.64,0,0,0,.22-1.1l-.46-.08c-.18,0-.39,0-.43-.1-.12-.38-.24-.4-.39-.36Z" fill="#e74c3c"/><path d="M40.44,45.76l.18.48v.24l.63,0,1.48.58a3.8,3.8,0,0,1-.19,2.14,2,2,0,0,0,0,.35,1.26,1.26,0,0,1,0,.73,10,10,0,0,1-.65,1.26,1.22,1.22,0,0,0-.56.85l.15,3.66.56,0,.15-.52-.22.08c0-.2,0-.41.2-.62l1.8-.71a2.4,2.4,0,0,0,.52-.64l-.21-.07.37-1.41-.19-.06L44.27,51a.52.52,0,0,1,0-.91l1.09-.92.09.18.4-.45-.09-.14.26,0,.08-.23,1.33-.66h.33a3.56,3.56,0,0,1,.82-.55l0-.2.44-.34c.11-.11.2-.27.34-.27l0-.22-.08-.09.24-.36.06-.24,0-.16-.15-.23.05-.89c-.11-.11-.05-.19,0-.26l0-1,.36-.6a1.19,1.19,0,0,0,0-.49c-.55.33-1.46.89-1.93.6a.77.77,0,0,0-.63.28,2.59,2.59,0,0,0-.52,0l-.66.12c-.12-.14-.24-.28-.51-.13l-1,0-.15,1.5a3.68,3.68,0,0,1,1.09,1.37c.13.3-.1.74-.15,1.13l-.47.21,0,.67-.23,0c.06-.14.12-.28-.08-.3a1.18,1.18,0,0,1-.48-.79,1.64,1.64,0,0,0,.22-1.1l-.46-.08c-.18,0-.39,0-.43-.1-.12-.38-.24-.4-.39-.36Z" fill="#e74c3c"/><path d="M24.71,47.55a1.61,1.61,0,0,0,.52,1.3l1.83,3.25,0,1.49.33.69c0,.27-.08.54.08.81l.23,1.27,1,1.1c.62-.66.84-.13,1,.3a4.23,4.23,0,0,1,1.13,0,2.18,2.18,0,0,1,.64-.44l.14-5.67.84,0,.12-3.19,2-.18.16.43c.15-.16.35-.46.65-.47s.41-.19.67-.33l-.2-.29-1.32.22-1.47.34-2.38-.32-.4-.34-3.75,0c-.18-.24-.86-.78-1.35-.14C25.09,47.26,24.89,47.5,24.71,47.55Z" fill="#e74c3c"/><path d="M24.71,47.55a1.61,1.61,0,0,0,.52,1.3l1.83,3.25,0,1.49.33.69c0,.27-.08.54.08.81l.23,1.27,1,1.1c.62-.66.84-.13,1,.3a4.23,4.23,0,0,1,1.13,0,2.18,2.18,0,0,1,.64-.44l.14-5.67.84,0,.12-3.19,2-.18.16.43c.15-.16.35-.46.65-.47s.41-.19.67-.33l-.2-.29-1.32.22-1.47.34-2.38-.32-.4-.34-3.75,0c-.18-.24-.86-.78-1.35-.14C25.09,47.26,24.89,47.5,24.71,47.55Z" fill="#e74c3c"/><path d="M18.45,15.78l-.07,2.69c-.12.07-.28,0-.33.29-.13.08-.29.13-.32.28l-1.82,0-.37.31h-.69a.46.46,0,0,0,.1.42c.1.08.09.25.06.4l.87,1.16.32.12c.17-.15.33-.2.41.32l1.08.15c.07-.17.06-.41.25-.5s.24-.45.35-.69.09-.28,1.35-.26a3,3,0,0,1,1,.69h.25c0-.09.26-.26.42-.29s.47.07.87.42l.71.06.69-.49,1.2,0c.18.07.31.23.58.17a2.88,2.88,0,0,1,1-.6,1,1,0,0,1-.08-.62.42.42,0,0,0,.24-.42l1.45-1.61.27-2.56.2-.52a1,1,0,0,1-.79-.9c0-.31,0-.71,0-1.29l-.26,0a1.21,1.21,0,0,0-.46-.41l-2-.07-5.15,3.39Z" fill="#e74c3c"/><path d="M18.45,15.78l-.07,2.69c-.12.07-.28,0-.33.29-.13.08-.29.13-.32.28l-1.82,0-.37.31h-.69a.46.46,0,0,0,.1.42c.1.08.09.25.06.4l.87,1.16.32.12c.17-.15.33-.2.41.32l1.08.15c.07-.17.06-.41.25-.5s.24-.45.35-.69.09-.28,1.35-.26a3,3,0,0,1,1,.69h.25c0-.09.26-.26.42-.29s.47.07.87.42l.71.06.69-.49,1.2,0c.18.07.31.23.58.17a2.88,2.88,0,0,1,1-.6,1,1,0,0,1-.08-.62.42.42,0,0,0,.24-.42l1.45-1.61.27-2.56.2-.52a1,1,0,0,1-.79-.9c0-.31,0-.71,0-1.29l-.26,0a1.21,1.21,0,0,0-.46-.41l-2-.07-5.15,3.39Z" fill="#e74c3c"/><path d="M21.85,28.31h-.17l-.06.3a2.4,2.4,0,0,1-.89-.13c-.71.44-1.28.37-1.57-.65a1.37,1.37,0,0,0-1-.88H17L17,25a3,3,0,0,0,.43-1c.33-.08.26-.37.28-.62.33-.22.11-.56,0-.79l0-.64c0-.18,0-.38.25-.55.1-.13.2-.06.31-.68.18-.14.37-.28,1.35-.25a2.37,2.37,0,0,1,1,.69h.22c.14-.1.19-.28.44-.29s.16-.14.86.4l.73.07.68-.49,1.21,0c.18.07.32.24.55.17a3,3,0,0,1,1-.6,2.43,2.43,0,0,0,.5.58l-.12.09.15.59c.07.05.19.07.19.16.13.58-.19.75-.57.88-.49.38-.61,1.42-.89,2.17-.54.16-.72,1.16-1.14,2-.4.08-.5-.12-.75-.39l-.87.06,0,.23C22.27,27,22.14,27.7,21.85,28.31Z" fill="#e74c3c"/><path d="M21.85,28.31h-.17l-.06.3a2.4,2.4,0,0,1-.89-.13c-.71.44-1.28.37-1.57-.65a1.37,1.37,0,0,0-1-.88H17L17,25a3,3,0,0,0,.43-1c.33-.08.26-.37.28-.62.33-.22.11-.56,0-.79l0-.64c0-.18,0-.38.25-.55.1-.13.2-.06.31-.68.18-.14.37-.28,1.35-.25a2.37,2.37,0,0,1,1,.69h.22c.14-.1.19-.28.44-.29s.16-.14.86.4l.73.07.68-.49,1.21,0c.18.07.32.24.55.17a3,3,0,0,1,1-.6,2.43,2.43,0,0,0,.5.58l-.12.09.15.59c.07.05.19.07.19.16.13.58-.19.75-.57.88-.49.38-.61,1.42-.89,2.17-.54.16-.72,1.16-1.14,2-.4.08-.5-.12-.75-.39l-.87.06,0,.23C22.27,27,22.14,27.7,21.85,28.31Z" fill="#e74c3c"/><path d="M25,36.9l-.87-1.12.58-.37-.07-.63.71-.43c.12-.1.21-.33.43,0,.38,0,.6.05.72.24l.3-.21.12-1.25c0-.43-.49-.71.09-1.33.1-.4-.26-.68-.66-.66-.1.13-.13.33-.38.27v-.6l.14-.22h1.16l.56.2c.21-.11.49.21.69.24l0-1a1.9,1.9,0,0,1,1.13-.81l.55.25.68-.19c-.17.45-.35.82-.52,1.26A12.79,12.79,0,0,0,30,33.13a3,3,0,0,0-1.19,1.2l-.27,1.25c-.59.64-1.12,1.15-1.46,1.12,0-.36-.39-.68-.71-.09-.22.15-.38.07-.55-.09-.25-.32-.33,0-.44.12Z" fill="#e74c3c"/><path d="M25,36.9l-.87-1.12.58-.37-.07-.63.71-.43c.12-.1.21-.33.43,0,.38,0,.6.05.72.24l.3-.21.12-1.25c0-.43-.49-.71.09-1.33.1-.4-.26-.68-.66-.66-.1.13-.13.33-.38.27v-.6l.14-.22h1.16l.56.2c.21-.11.49.21.69.24l0-1a1.9,1.9,0,0,1,1.13-.81l.55.25.68-.19c-.17.45-.35.82-.52,1.26A12.79,12.79,0,0,0,30,33.13a3,3,0,0,0-1.19,1.2l-.27,1.25c-.59.64-1.12,1.15-1.46,1.12,0-.36-.39-.68-.71-.09-.22.15-.38.07-.55-.09-.25-.32-.33,0-.44.12Z" fill="#e74c3c"/><path d="M41.16,33.39l-.38.3h-.13l-.08-.11a7.41,7.41,0,0,0-.85,1.09.37.37,0,0,1,.22.14l.13-.12h.14l.07.19.44-.09,0-.26.54,0a2,2,0,0,1,.27-.33Z" fill="#e74c3c"/><path d="M41.16,33.39l-.38.3h-.13l-.08-.11a7.41,7.41,0,0,0-.85,1.09.37.37,0,0,1,.22.14l.13-.12h.14l.07.19.44-.09,0-.26.54,0a2,2,0,0,1,.27-.33Z" fill="#e74c3c"/><path d="M41.31,39.65,39.73,40a1.52,1.52,0,0,0-.21.51,3.26,3.26,0,0,0,.05.32,2.69,2.69,0,0,1,0,1,3.11,3.11,0,0,0-.36,1,1.18,1.18,0,0,0,.53.4c.21.05.44,0,.49,0l0,1A1.79,1.79,0,0,1,40,44c-.33,0-.63.15-1.11-.77a1.14,1.14,0,0,1-.91-.5c-.13,0-.35.15-.55.19a1.45,1.45,0,0,1-.88-.41.55.55,0,0,1-.18-.32l-.59.19-.11-.45h-.24l-.21,1.7.19.19-1.79,0L33.59,47l1,.88,1.35-.21.2.3.09.2h1.06l.14.13.2-.05A3.58,3.58,0,0,1,39.23,47l0-.49a1.86,1.86,0,0,1,1.38-.3l-.19-.49,2.62-.82-.28-.41.47-.88.37,0-.24-.32.22-1.16.21-.15-.43-.84-.2-.39-1-.34c-.34-.49-.42-.39-.53-.37Z" fill="#e74c3c"/><path d="M41.31,39.65,39.73,40a1.52,1.52,0,0,0-.21.51,3.26,3.26,0,0,0,.05.32,2.69,2.69,0,0,1,0,1,3.11,3.11,0,0,0-.36,1,1.18,1.18,0,0,0,.53.4c.21.05.44,0,.49,0l0,1A1.79,1.79,0,0,1,40,44c-.33,0-.63.15-1.11-.77a1.14,1.14,0,0,1-.91-.5c-.13,0-.35.15-.55.19a1.45,1.45,0,0,1-.88-.41.55.55,0,0,1-.18-.32l-.59.19-.11-.45h-.24l-.21,1.7.19.19-1.79,0L33.59,47l1,.88,1.35-.21.2.3.09.2h1.06l.14.13.2-.05A3.58,3.58,0,0,1,39.23,47l0-.49a1.86,1.86,0,0,1,1.38-.3l-.19-.49,2.62-.82-.28-.41.47-.88.37,0-.24-.32.22-1.16.21-.15-.43-.84-.2-.39-1-.34c-.34-.49-.42-.39-.53-.37Z" fill="#e74c3c"/><path d="M1,17.37A1.28,1.28,0,0,0,.75,18c0,.49-.5.65-.75,1A2.38,2.38,0,0,1,.52,20h.95c.2-.27.51-.18.85.06l.55,0,.12.16-.4.14a2.32,2.32,0,0,1-.74-.3.91.91,0,0,1-.57.13l-.1.17-.83,0a1.69,1.69,0,0,0-.05.67A1.37,1.37,0,0,0,.9,21a1.06,1.06,0,0,0,.81-.14l1.43,0A4.23,4.23,0,0,0,5,21.31c0-.32.21-.65-.5-1.14a.83.83,0,0,0,0-.69c-.05-.13,0-.17,0-.31a2.34,2.34,0,0,1-.26-.25,5.43,5.43,0,0,1-.38-.46,1.63,1.63,0,0,0-.34-.64c-.46.08-.75-.44-.75-.44a1.74,1.74,0,0,0-.77,0A3.24,3.24,0,0,1,1,17.37Z" fill="#e74c3c"/><path d="M1,17.37A1.28,1.28,0,0,0,.75,18c0,.49-.5.65-.75,1A2.38,2.38,0,0,1,.52,20h.95c.2-.27.51-.18.85.06l.55,0,.12.16-.4.14a2.32,2.32,0,0,1-.74-.3.91.91,0,0,1-.57.13l-.1.17-.83,0a1.69,1.69,0,0,0-.05.67A1.37,1.37,0,0,0,.9,21a1.06,1.06,0,0,0,.81-.14l1.43,0A4.23,4.23,0,0,0,5,21.31c0-.32.21-.65-.5-1.14a.83.83,0,0,0,0-.69c-.05-.13,0-.17,0-.31a2.34,2.34,0,0,1-.26-.25,5.43,5.43,0,0,1-.38-.46,1.63,1.63,0,0,0-.34-.64c-.46.08-.75-.44-.75-.44a1.74,1.74,0,0,0-.77,0A3.24,3.24,0,0,1,1,17.37Z" fill="#e74c3c"/><path d="M4.57,26.2l-.68-.34a.92.92,0,0,0-.5-.44c0-.3-.18-.36-.31-.47l0-.71c.3.12.56-.18.82-.52-.06-.26.53-.23.92-.23A1.24,1.24,0,0,1,5.33,25a4.19,4.19,0,0,1,.51-.18l-.47.44,0,.25Z" fill="#e74c3c"/><path d="M4.57,26.2l-.68-.34a.92.92,0,0,0-.5-.44c0-.3-.18-.36-.31-.47l0-.71c.3.12.56-.18.82-.52-.06-.26.53-.23.92-.23A1.24,1.24,0,0,1,5.33,25a4.19,4.19,0,0,1,.51-.18l-.47.44,0,.25Z" fill="#e74c3c"/><path d="M36.21,48.14l.26.53c.09.1.2.19.19.36a7.27,7.27,0,0,0,.69.89.85.85,0,0,1,.45.28.72.72,0,0,0,.45.3,1,1,0,0,0,.4,1.1,1.18,1.18,0,0,1,.8.27,1.53,1.53,0,0,1,.83.24c.5-.17.73.11,1,.3a1.33,1.33,0,0,1,.58-.85,11.82,11.82,0,0,0,.62-1.21c.15-.25,0-.52,0-.78l0-.34a3.82,3.82,0,0,0,.2-2.13l-1.5-.58-.63,0,0-.21a1.65,1.65,0,0,0-1.37.28l0,.49a3.48,3.48,0,0,0-1.63,1.19l-.18.06-.15-.13Z" fill="#e74c3c"/><path d="M36.21,48.14l.26.53c.09.1.2.19.19.36a7.27,7.27,0,0,0,.69.89.85.85,0,0,1,.45.28.72.72,0,0,0,.45.3,1,1,0,0,0,.4,1.1,1.18,1.18,0,0,1,.8.27,1.53,1.53,0,0,1,.83.24c.5-.17.73.11,1,.3a1.33,1.33,0,0,1,.58-.85,11.82,11.82,0,0,0,.62-1.21c.15-.25,0-.52,0-.78l0-.34a3.82,3.82,0,0,0,.2-2.13l-1.5-.58-.63,0,0-.21a1.65,1.65,0,0,0-1.37.28l0,.49a3.48,3.48,0,0,0-1.63,1.19l-.18.06-.15-.13Z" fill="#e74c3c"/><path d="M52,22.15l-.3.47c-.3.43.51,1.08,1.18,1.7l2.57.83.83,0L53.81,28l-1,0a3.82,3.82,0,0,0-.87.6,7.74,7.74,0,0,1-.84.4,5.12,5.12,0,0,1-.72,1v3.32l.51.64,1.16-1.3,2-1.84.22,0,.82-.77,0-.15a5,5,0,0,0,1.15-1.2,6.15,6.15,0,0,1,.92-1.33l.77-2.22a1.69,1.69,0,0,0,.36-.56c0-.23.18-.32.29-.45L58.65,23c.25,0,.13-.46.14-.76-.1-.09-.2-.23,0-.34v-.28c-.18,0-.36-.19-.54-.05a1.42,1.42,0,0,1-.86.39c-.38,0-.68.25-.84.2a1,1,0,0,1-1,.16,1.14,1.14,0,0,1-1.37.35L53.6,23C52.71,23.28,52.48,22.56,52,22.15Z" fill="#e74c3c"/><path d="M52,22.15l-.3.47c-.3.43.51,1.08,1.18,1.7l2.57.83.83,0L53.81,28l-1,0a3.82,3.82,0,0,0-.87.6,7.74,7.74,0,0,1-.84.4,5.12,5.12,0,0,1-.72,1v3.32l.51.64,1.16-1.3,2-1.84.22,0,.82-.77,0-.15a5,5,0,0,0,1.15-1.2,6.15,6.15,0,0,1,.92-1.33l.77-2.22a1.69,1.69,0,0,0,.36-.56c0-.23.18-.32.29-.45L58.65,23c.25,0,.13-.46.14-.76-.1-.09-.2-.23,0-.34v-.28c-.18,0-.36-.19-.54-.05a1.42,1.42,0,0,1-.86.39c-.38,0-.68.25-.84.2a1,1,0,0,1-1,.16,1.14,1.14,0,0,1-1.37.35L53.6,23C52.71,23.28,52.48,22.56,52,22.15Z" fill="#e74c3c"/><path d="M36,13.26,36,15a4.11,4.11,0,0,1-.83,0v.55l.08,3.24-.93.05v.35l-.53.67,0,.48-.18.08c0,.3-.05.56-.18.64v.39l.39-.08a1.91,1.91,0,0,0,.46,1.22l0,.29-.17,0A5.8,5.8,0,0,1,35.09,24c-.33,1,.17.85.45,1,.11.15.15.34.65.28l.29.27c-.06.44.59.68,1,1l.36.7c.3.15.67.21.72.72.2.12.28.29.43.43s0,.13.07.19.54.19.59,0a1.47,1.47,0,0,0,.55.09c.14,0,.13-.15.28-.18l1,.9.18-.13a5.71,5.71,0,0,0,2.13,0l.85-.72,1.17,0v-.61l-.6-.21-.42-.92-.6-.51c.11-.16-.18-.33-.32-.49a.85.85,0,0,1-.61-.1l.16-.2v-.29H44c.11-.07.23-.1.31-.27l0-1.58.26-.39h.26l.13-.67c.31-.38.44-.88.94-1.15L46,19.75a9.17,9.17,0,0,1,.31-2.48c.13-.05.28,0,.38-.2l.58-.29a.66.66,0,0,0,.19-.44c-.08-.17-.19-.14-.29-.16-.17-.33-.45-.36-.7-.48l-.34-2.07-.27-.29c.07-.74-.81-.87-1.23-1.32l-.28.29-.23-.05-.11.47-.5.13,0,.38-.44,0L42.79,13Z" fill="#e74c3c"/><path d="M36,13.26,36,15a4.11,4.11,0,0,1-.83,0v.55l.08,3.24-.93.05v.35l-.53.67,0,.48-.18.08c0,.3-.05.56-.18.64v.39l.39-.08a1.91,1.91,0,0,0,.46,1.22l0,.29-.17,0A5.8,5.8,0,0,1,35.09,24c-.33,1,.17.85.45,1,.11.15.15.34.65.28l.29.27c-.06.44.59.68,1,1l.36.7c.3.15.67.21.72.72.2.12.28.29.43.43s0,.13.07.19.54.19.59,0a1.47,1.47,0,0,0,.55.09c.14,0,.13-.15.28-.18l1,.9.18-.13a5.71,5.71,0,0,0,2.13,0l.85-.72,1.17,0v-.61l-.6-.21-.42-.92-.6-.51c.11-.16-.18-.33-.32-.49a.85.85,0,0,1-.61-.1l.16-.2v-.29H44c.11-.07.23-.1.31-.27l0-1.58.26-.39h.26l.13-.67c.31-.38.44-.88.94-1.15L46,19.75a9.17,9.17,0,0,1,.31-2.48c.13-.05.28,0,.38-.2l.58-.29a.66.66,0,0,0,.19-.44c-.08-.17-.19-.14-.29-.16-.17-.33-.45-.36-.7-.48l-.34-2.07-.27-.29c.07-.74-.81-.87-1.23-1.32l-.28.29-.23-.05-.11.47-.5.13,0,.38-.44,0L42.79,13Z" fill="#e74c3c"/><path d="M28.73,57.46l1.39,2.79,0,.64c-.07.15-.19.16-.31.13s-.1.17,0,.24a6.21,6.21,0,0,0,.52.94,5.47,5.47,0,0,0,.66.51l.55,0c.11-.08,0-.19.42-.23h.81c.26-.1,0-.35.8-.29.14,0,.2.17.41.05a3.65,3.65,0,0,1,1.13.14c.11-.09.07-.24.7-.12l.06-.24h.73L41,58c.69-.29.84-1.12,1-1.92l-.55,0c0-.07-.52.31-.59.31-.28,0-.44-.06-.4-.55a1.16,1.16,0,0,1,.53-.73c.14-.09.28.25.41.16s0-1.56-.11-2.86c-.29-.18-.5-.48-1-.31a1.85,1.85,0,0,0-.82-.25l-3,2.39-.11.5a2.59,2.59,0,0,1-1,.19,1.53,1.53,0,0,0-.84-.33L34,55c0,.24-.19.27-.3.37a.59.59,0,0,0-.3.37,1.9,1.9,0,0,1-1.19-.07c.06-.3.25-.49.1-1l-.7-.78-.09,3.36a2.15,2.15,0,0,0-.64.43,3.66,3.66,0,0,0-1.14,0C29.64,57.39,29.3,56.78,28.73,57.46Z" fill="#e74c3c"/><path d="M28.73,57.46l1.39,2.79,0,.64c-.07.15-.19.16-.31.13s-.1.17,0,.24a6.21,6.21,0,0,0,.52.94,5.47,5.47,0,0,0,.66.51l.55,0c.11-.08,0-.19.42-.23h.81c.26-.1,0-.35.8-.29.14,0,.2.17.41.05a3.65,3.65,0,0,1,1.13.14c.11-.09.07-.24.7-.12l.06-.24h.73L41,58c.69-.29.84-1.12,1-1.92l-.55,0c0-.07-.52.31-.59.31-.28,0-.44-.06-.4-.55a1.16,1.16,0,0,1,.53-.73c.14-.09.28.25.41.16s0-1.56-.11-2.86c-.29-.18-.5-.48-1-.31a1.85,1.85,0,0,0-.82-.25l-3,2.39-.11.5a2.59,2.59,0,0,1-1,.19,1.53,1.53,0,0,0-.84-.33L34,55c0,.24-.19.27-.3.37a.59.59,0,0,0-.3.37,1.9,1.9,0,0,1-1.19-.07c.06-.3.25-.49.1-1l-.7-.78-.09,3.36a2.15,2.15,0,0,0-.64.43,3.66,3.66,0,0,0-1.14,0C29.64,57.39,29.3,56.78,28.73,57.46Z" fill="#e74c3c"/><path d="M41.42,55.31l0,.76c-.23.11-.4.23-.59.34s-.35-.06-.38-.23a.81.81,0,0,1,.13-.68c.11-.17.31-.37.44-.4s.17.09.23.18Z" fill="#e74c3c"/><path d="M41.42,55.31l0,.76c-.23.11-.4.23-.59.34s-.35-.06-.38-.23a.81.81,0,0,1,.13-.68c.11-.17.31-.37.44-.4s.17.09.23.18Z" fill="#e74c3c"/><path d="M43.86,32.89l-.31.47-2.38,0,.39.8c-.61.62-.22.74-.08,1-.27.5-.48,1.12-1,1.14-.14,0-.23,0-.26.17a4.74,4.74,0,0,0,.27,1.66c.16.36.44.6.6.91a2.18,2.18,0,0,1,.24.63l.33.37c.14,0,.29,0,.51.36l1,.33A1.76,1.76,0,0,0,44,41l.52,1.71,1,0a.34.34,0,0,1,.5.12,3.68,3.68,0,0,1,1.16-.1.75.75,0,0,1,.65-.26c.37.3,1.44-.31,1.89-.6a1.37,1.37,0,0,0-.5-.44,2,2,0,0,0-.16-.73c-.1-.15-.17-.3-.11-.41l-.23-.49.14,0a1.19,1.19,0,0,1,.19-1c-.15-.32-.68-.57-.65-.95l.45-1.26-1.18-.78-.2-.7Z" fill="#e74c3c"/><path d="M43.86,32.89l-.31.47-2.38,0,.39.8c-.61.62-.22.74-.08,1-.27.5-.48,1.12-1,1.14-.14,0-.23,0-.26.17a4.74,4.74,0,0,0,.27,1.66c.16.36.44.6.6.91a2.18,2.18,0,0,1,.24.63l.33.37c.14,0,.29,0,.51.36l1,.33A1.76,1.76,0,0,0,44,41l.52,1.71,1,0a.34.34,0,0,1,.5.12,3.68,3.68,0,0,1,1.16-.1.75.75,0,0,1,.65-.26c.37.3,1.44-.31,1.89-.6a1.37,1.37,0,0,0-.5-.44,2,2,0,0,0-.16-.73c-.1-.15-.17-.3-.11-.41l-.23-.49.14,0a1.19,1.19,0,0,1,.19-1c-.15-.32-.68-.57-.65-.95l.45-1.26-1.18-.78-.2-.7Z" fill="#e74c3c"/><path d="M15.54,27.22l.62-.18-.41-3.21c-.05-.24-.3-.35-.48-.5l.1-.52-.73-.09c-.14.27-.06.53.27.77a19.12,19.12,0,0,1,.32,3.19Z" fill="#e74c3c"/><path d="M15.54,27.22l.62-.18-.41-3.21c-.05-.24-.3-.35-.48-.5l.1-.52-.73-.09c-.14.27-.06.53.27.77a19.12,19.12,0,0,1,.32,3.19Z" fill="#e74c3c"/><path d="M24,.1c-.16,0-.77-.31-1.11.19a.48.48,0,0,0-.27.38c0,.41-.06,1.68-.06,1.68s-.35,0-.4.19-.38.21-.41.35.2.55.49.81c.08.07,0,.43,0,.5a2.23,2.23,0,0,0,.63.34,11.73,11.73,0,0,0,.26,1.58c.06,0,.71-.19.49-1.1,0-.11,1.34-.55,1.09-1.4,0-.09-.25,0-.28-.14C24.4,3.1,24.41,3,24.27,3s-.35.25-.41.21-.29-.26-.22-.35,1-.7,1-1-.15-.49-.37-.6-.08-.28,0-.4.49-.23.44-.4S24.57.29,24.54.2s-.37.3-.4.25A1.76,1.76,0,0,0,24,.1Z" fill="#e74c3c"/><path d="M24,.1c-.16,0-.77-.31-1.11.19a.48.48,0,0,0-.27.38c0,.41-.06,1.68-.06,1.68s-.35,0-.4.19-.38.21-.41.35.2.55.49.81c.08.07,0,.43,0,.5a2.23,2.23,0,0,0,.63.34,11.73,11.73,0,0,0,.26,1.58c.06,0,.71-.19.49-1.1,0-.11,1.34-.55,1.09-1.4,0-.09-.25,0-.28-.14C24.4,3.1,24.41,3,24.27,3s-.35.25-.41.21-.29-.26-.22-.35,1-.7,1-1-.15-.49-.37-.6-.08-.28,0-.4.49-.23.44-.4S24.57.29,24.54.2s-.37.3-.4.25A1.76,1.76,0,0,0,24,.1Z" fill="#e74c3c"/><path d="M35.22,15.49l-6.73-3.32-.89.27a11,11,0,0,1,0,1.26,1.07,1.07,0,0,0,.79,1l-.2.49-.29,2.6L26.52,19.3a.51.51,0,0,0-.06.26.3.3,0,0,1-.16.17c-.1.06,0,.16-.06.24-.08.55,1.06,1.36,1.06,1.36.06.25.15.47.19.73s-.09.62-.05.87.45.39.4.93l-.9-.08c-.26.52-.08.86.56,1l.42,1.27A7.63,7.63,0,0,0,30,25.58l.81-.08c.15-.26.47-.39.36-.83l1.12-.12c.09-.08.13-.21.27-.24s.28-.15.34-.3.36-.33.56-.48c0-.8.64-.57,1-.72l0-.28a1.78,1.78,0,0,1-.46-1.22l-.39.07V21a.93.93,0,0,0,.18-.65l.18-.09,0-.46.54-.69,0-.34.93,0Z" fill="#e74c3c"/><path d="M35.22,15.49l-6.73-3.32-.89.27a11,11,0,0,1,0,1.26,1.07,1.07,0,0,0,.79,1l-.2.49-.29,2.6L26.52,19.3a.51.51,0,0,0-.06.26.3.3,0,0,1-.16.17c-.1.06,0,.16-.06.24-.08.55,1.06,1.36,1.06,1.36.06.25.15.47.19.73s-.09.62-.05.87.45.39.4.93l-.9-.08c-.26.52-.08.86.56,1l.42,1.27A7.63,7.63,0,0,0,30,25.58l.81-.08c.15-.26.47-.39.36-.83l1.12-.12c.09-.08.13-.21.27-.24s.28-.15.34-.3.36-.33.56-.48c0-.8.64-.57,1-.72l0-.28a1.78,1.78,0,0,1-.46-1.22l-.39.07V21a.93.93,0,0,0,.18-.65l.18-.09,0-.46.54-.69,0-.34.93,0Z" fill="#e74c3c"/><path d="M41.49,29.32l.17-.13a5.5,5.5,0,0,0,2.12,0l.43-.35a1,1,0,0,1,.46.9l.41.33v1l-1.54,2.31-2.39,0-.37.3h-.14l-.08-.11.05-1.43.54-.81.86-.77-.52-.33Z" fill="#e74c3c"/><path d="M41.49,29.32l.17-.13a5.5,5.5,0,0,0,2.12,0l.43-.35a1,1,0,0,1,.46.9l.41.33v1l-1.54,2.31-2.39,0-.37.3h-.14l-.08-.11.05-1.43.54-.81.86-.77-.52-.33Z" fill="#e74c3c"/><path d="M4.4,13.17c.11-.76-.37-1.83,1.11-1.86L5.82,9l2.63.23.2-1.55L5.13,7.43c-.33.5-.52.93-1,1.12s-.65.76-.78,1.26L2,11.4a1.11,1.11,0,0,1-.54.79A2.29,2.29,0,0,0,1,13.29L1.32,13Z" fill="#e74c3c"/><path d="M4.4,13.17c.11-.76-.37-1.83,1.11-1.86L5.82,9l2.63.23.2-1.55L5.13,7.43c-.33.5-.52.93-1,1.12s-.65.76-.78,1.26L2,11.4a1.11,1.11,0,0,1-.54.79A2.29,2.29,0,0,0,1,13.29L1.32,13Z" fill="#e74c3c"/><path d="M27.92,26.05l-.8,1.31.11.95a6.37,6.37,0,0,0,1.26,1.78,1.89,1.89,0,0,1,1.12-.81l.57.25.63-.18A1.23,1.23,0,0,0,31,28.6a2.29,2.29,0,0,1,.69-.71c.18.14.49,0,.51.44.21.23.4.37.55.16.18.26.92.18,1.43.23a2.26,2.26,0,0,1,.19-.41.62.62,0,0,1,.59.1L36,28l.07.16.43-.07v-.16l1-.08.21.27.1-.15.16.12.14-.16.45,0c-.09-.25-.05-.55-.73-.71l-.35-.71c-.35-.33-1-.49-1-1l-.27-.26c-.23,0-.42.11-.68-.3-.41-.06-.68-.13-.42-1a5.18,5.18,0,0,0-.81-1.13c-.58.11-.82.08-.84.69-.19.15-.46.22-.54.46s-.13.3-.39.33a1.45,1.45,0,0,0-.26.24l-1.11.12a.57.57,0,0,1-.2.63c-.06.06-.11.14-.17.2l-.8.07A7.7,7.7,0,0,1,27.92,26.05Z" fill="#e74c3c"/><path d="M27.92,26.05l-.8,1.31.11.95a6.37,6.37,0,0,0,1.26,1.78,1.89,1.89,0,0,1,1.12-.81l.57.25.63-.18A1.23,1.23,0,0,0,31,28.6a2.29,2.29,0,0,1,.69-.71c.18.14.49,0,.51.44.21.23.4.37.55.16.18.26.92.18,1.43.23a2.26,2.26,0,0,1,.19-.41.62.62,0,0,1,.59.1L36,28l.07.16.43-.07v-.16l1-.08.21.27.1-.15.16.12.14-.16.45,0c-.09-.25-.05-.55-.73-.71l-.35-.71c-.35-.33-1-.49-1-1l-.27-.26c-.23,0-.42.11-.68-.3-.41-.06-.68-.13-.42-1a5.18,5.18,0,0,0-.81-1.13c-.58.11-.82.08-.84.69-.19.15-.46.22-.54.46s-.13.3-.39.33a1.45,1.45,0,0,0-.26.24l-1.11.12a.57.57,0,0,1-.2.63c-.06.06-.11.14-.17.2l-.8.07A7.7,7.7,0,0,1,27.92,26.05Z" fill="#e74c3c"/><path d="M38.62,58.92a1,1,0,0,0-.25.06.44.44,0,0,0-.15.09.27.27,0,0,0-.06.13s-.11.11-.15.12a.81.81,0,0,1-.18,0,.24.24,0,0,1-.23-.11,3.63,3.63,0,0,1-.25-.31,1.07,1.07,0,0,1-.12-.22.66.66,0,0,1,0-.21.23.23,0,0,1,.12-.21h0c.09,0,.11-.15.18-.21s.17-.14.25-.21a.93.93,0,0,1,.18-.11,1.23,1.23,0,0,1,.26-.09l.21-.06h.07a.25.25,0,0,1,.23.08l.19.24s0,.14.06.19a1.61,1.61,0,0,1,.11.21.33.33,0,0,1,0,.24.75.75,0,0,1-.17.2l-.17.14Z" fill="#e74c3c"/><path d="M38.62,58.92a1,1,0,0,0-.25.06.44.44,0,0,0-.15.09.27.27,0,0,0-.06.13s-.11.11-.15.12a.81.81,0,0,1-.18,0,.24.24,0,0,1-.23-.11,3.63,3.63,0,0,1-.25-.31,1.07,1.07,0,0,1-.12-.22.66.66,0,0,1,0-.21.23.23,0,0,1,.12-.21h0c.09,0,.11-.15.18-.21s.17-.14.25-.21a.93.93,0,0,1,.18-.11,1.23,1.23,0,0,1,.26-.09l.21-.06h.07a.25.25,0,0,1,.23.08l.19.24s0,.14.06.19a1.61,1.61,0,0,1,.11.21.33.33,0,0,1,0,.24.75.75,0,0,1-.17.2l-.17.14Z" fill="#e74c3c"/><path d="M134.94,37.12h-5.81V34.68a8.09,8.09,0,0,1-6.6,3c-6.08,0-10.68-5-10.68-11.61s4.6-11.61,10.68-11.61a8.08,8.08,0,0,1,6.6,3V15h5.81Zm-17-11c0,3.37,2.21,6.08,5.69,6.08s5.69-2.6,5.69-6.08S127,20,123.62,20,117.93,22.7,117.93,26.07Z" fill="#282828"/><path d="M173.37,26.07c0,6.63-4.6,11.61-10.68,11.61a8.07,8.07,0,0,1-6.49-2.87V46.23h-5.92V15h5.81v2.44a8,8,0,0,1,6.58-3C168.77,14.46,173.37,19.44,173.37,26.07Zm-17.47,0c0,3.48,2.3,6.08,5.67,6.08s5.69-2.71,5.69-6.08S165.08,20,161.57,20,155.9,22.59,155.9,26.07Z" fill="#282828"/><path d="M210.42,26.07c0,6.63-4.6,11.61-10.68,11.61a8.07,8.07,0,0,1-6.49-2.87V46.23h-5.92V15h5.81v2.44a8,8,0,0,1,6.58-3C205.82,14.46,210.42,19.44,210.42,26.07Zm-17.47,0c0,3.48,2.3,6.08,5.67,6.08s5.69-2.71,5.69-6.08S202.13,20,198.62,20,193,22.59,193,26.07Z" fill="#282828"/><path d="M41.48,17.51V15h5.83V35.29c0,7.08-4.62,11.36-11.91,11.36A17.44,17.44,0,0,1,25.74,44l2.12-4.85a13,13,0,0,0,7.29,2.25c3.69,0,6.29-2,6.29-5.85V34a8.33,8.33,0,0,1-6.79,3c-5.38,0-10.16-4.49-10.16-11.25s4.78-11.27,10.16-11.27A8.36,8.36,0,0,1,41.48,17.51ZM30.59,25.73a5.55,5.55,0,1,0,11.09,0,5.55,5.55,0,1,0-11.09,0Z" fill="#fff"/><line x1="41.15" y1="25.83" x2="123.63" y2="25.83" fill="none" stroke="#e74c3c" stroke-miterlimit="10" stroke-width="5"/><circle cx="123.14" cy="26.05" r="6.59" fill="#e74c3c"/><path d="M35.95,13.26l6.83-.2.22.22.45-.06,0-.38.5-.14.11-.47.22.07.28-.29-.15-.74h.24l-.58-.52L42.51,8.13V7.81a2.16,2.16,0,0,1-.82-.95V6.62l-.24-.18.06-.39.71,1c.06.07,0,.13.05.21a3.94,3.94,0,0,0,.7.67c.1,0,.21,0,.26-.2l.19-1.24-.84-1.71a1.16,1.16,0,0,1-1.7,0l-.69.05c-.16.07-.33.17-.42,0l-1.12.65L36.78,5a2.45,2.45,0,0,0-.8-.11c-.23.14-.4,0-.57-.08-.1.17-.2.33-.1.43l.07.67c-.16.26-.31.53.2,1.15Z" fill="#e74c3c"/><path d="M35.95,13.26l6.83-.2.22.22.45-.06,0-.38.5-.14.11-.47.22.07.28-.29-.15-.74h.24l-.58-.52L42.51,8.13V7.81a2.16,2.16,0,0,1-.82-.95V6.62l-.24-.18.06-.39.71,1c.06.07,0,.13.05.21a3.94,3.94,0,0,0,.7.67c.1,0,.21,0,.26-.2l.19-1.24-.84-1.71a1.16,1.16,0,0,1-1.7,0l-.69.05c-.16.07-.33.17-.42,0l-1.12.65L36.78,5a2.45,2.45,0,0,0-.8-.11c-.23.14-.4,0-.57-.08-.1.17-.2.33-.1.43l.07.67c-.16.26-.31.53.2,1.15Z" fill="#e74c3c"/><path d="M24.3,31.54l-1.4.07-.28-.18.42-.81h1.25Z" fill="#e74c3c"/><path d="M24.3,31.54l-1.4.07-.28-.18.42-.81h1.25Z" fill="#e74c3c"/><path d="M20.42,32.27a.15.15,0,1,1-.15-.15A.15.15,0,0,1,20.42,32.27Z" fill="#e74c3c"/><path d="M20.42,32.27a.15.15,0,1,1-.15-.15A.15.15,0,0,1,20.42,32.27Z" fill="#e74c3c"/><path d="M21,31.06a.12.12,0,1,1-.12-.12.12.12,0,0,1,.12.12Z" fill="#e74c3c"/><path d="M21,31.06a.12.12,0,1,1-.12-.12.12.12,0,0,1,.12.12Z" fill="#e74c3c"/><path d="M56.3,25.13,53.81,28l-1,0a3.64,3.64,0,0,0-.83.54,3.71,3.71,0,0,1-.87.45c-.2,0-.44.07-.58,0-.33-.32-.7-.16-1.07,0a.87.87,0,0,1-.57.47l-1.33-.21a4.49,4.49,0,0,0-1-.68l-.74-.05v-.6l-.58-.21-.42-1-.6-.48c.11-.18-.18-.33-.33-.49a.87.87,0,0,1-.61-.11l.18-.22v-.28h.53c.12-.07.24-.1.33-.29V23.22l.25-.4h.27l.12-.67c.32-.39.43-.87,1-1.18L46,19.83h.42l.06-.14h.2l.18.29.25-.67c.17.11.39.11.48.35l.43-.08.07-.14.08,0,.1.18a.44.44,0,0,1,.52,0c.06,0,.14,0,.3-.05.17.09.27.28.52.27a13.48,13.48,0,0,1,1.54,1.54s-.06.19-.09.53l-.2.36c-.16.27,0,.5.34.39l.27-.1.27.11c-.33.38.46,1,1.16,1.7l2.56.82Z" fill="#e74c3c"/><path d="M56.3,25.13,53.81,28l-1,0a3.64,3.64,0,0,0-.83.54,3.71,3.71,0,0,1-.87.45c-.2,0-.44.07-.58,0-.33-.32-.7-.16-1.07,0a.87.87,0,0,1-.57.47l-1.33-.21a4.49,4.49,0,0,0-1-.68l-.74-.05v-.6l-.58-.21-.42-1-.6-.48c.11-.18-.18-.33-.33-.49a.87.87,0,0,1-.61-.11l.18-.22v-.28h.53c.12-.07.24-.1.33-.29V23.22l.25-.4h.27l.12-.67c.32-.39.43-.87,1-1.18L46,19.83h.42l.06-.14h.2l.18.29.25-.67c.17.11.39.11.48.35l.43-.08.07-.14.08,0,.1.18a.44.44,0,0,1,.52,0c.06,0,.14,0,.3-.05.17.09.27.28.52.27a13.48,13.48,0,0,1,1.54,1.54s-.06.19-.09.53l-.2.36c-.16.27,0,.5.34.39l.27-.1.27.11c-.33.38.46,1,1.16,1.7l2.56.82Z" fill="#e74c3c"/><path d="M8.76,6.68l.83-.41.17.06L10,6.09l.48,0,0-.22c1,0,1.19-.22,1.37-.48l.83-.34H13l-.16-.21,0-.17V4.44c.32,0,.72,0,.72-.33l1.34,0,.19-.38c-.26-.09-.3-.46-.27-.86s0-1,0-1a.78.78,0,0,1-.22-.36c.07,0,.41,0,.61-.25s.24-.42.41-.37.6.11.62,0a1,1,0,0,1,1-.44c1,0,2.3-.38,2.72-.25s1-.16,1.22-.15.32.28.66.06c.13-.09.58.27,1,.14a.48.48,0,0,0-.27.38c0,.41-.06,1.68-.06,1.68s-.35,0-.4.19-.38.21-.41.35.2.55.49.81c.08.07,0,.43,0,.5a2.22,2.22,0,0,0,.63.34,11.67,11.67,0,0,0,.26,1.58c-.43,0-.2.43.09.85l0,2.43s-.39.08-.36.18a1,1,0,0,0,.36.64.73.73,0,0,1,.17.61.29.29,0,0,0,.25.3c.42,0,.78-.22,1.19.89L19.8,15.37a8.31,8.31,0,0,1-2,.5c-.28-.12,0-.44-.05-.65a.46.46,0,0,0-.53-.33c-.17,0-.26-.2-.33-.19-.28,0-.35-.27-.41-.32-.24-.22-.48-.29-.43-.49L8.58,8.22Z" fill="#e74c3c"/><path d="M8.76,6.68l.83-.41.17.06L10,6.09l.48,0,0-.22c1,0,1.19-.22,1.37-.48l.83-.34H13l-.16-.21,0-.17V4.44c.32,0,.72,0,.72-.33l1.34,0,.19-.38c-.26-.09-.3-.46-.27-.86s0-1,0-1a.78.78,0,0,1-.22-.36c.07,0,.41,0,.61-.25s.24-.42.41-.37.6.11.62,0a1,1,0,0,1,1-.44c1,0,2.3-.38,2.72-.25s1-.16,1.22-.15.32.28.66.06c.13-.09.58.27,1,.14a.48.48,0,0,0-.27.38c0,.41-.06,1.68-.06,1.68s-.35,0-.4.19-.38.21-.41.35.2.55.49.81c.08.07,0,.43,0,.5a2.22,2.22,0,0,0,.63.34,11.67,11.67,0,0,0,.26,1.58c-.43,0-.2.43.09.85l0,2.43s-.39.08-.36.18a1,1,0,0,0,.36.64.73.73,0,0,1,.17.61.29.29,0,0,0,.25.3c.42,0,.78-.22,1.19.89L19.8,15.37a8.31,8.31,0,0,1-2,.5c-.28-.12,0-.44-.05-.65a.46.46,0,0,0-.53-.33c-.17,0-.26-.2-.33-.19-.28,0-.35-.27-.41-.32-.24-.22-.48-.29-.43-.49L8.58,8.22Z" fill="#e74c3c"/><path d="M24.7,47.55c.19,0,.39-.3.55-.1.17-.2.62-.61,1.37.15l3.73-.05.4.35,2.35.3,1.49-.33-1-.9.08-3.18,1.79.05-.19-.21.21-1.68h-.08a4.13,4.13,0,0,1-1.36.13l-.16.32-.29-.25.33-.44-.44-.9-.07-2-.77.05v-.36l-.34-.05-.09.16-.63,0-.24.91a1.41,1.41,0,0,0-1.06.1c-.41-.13-.78.18-1.37-1.89l-.22-.13-2.36,0-1.07.37c.27.77.84,1.21.82,2.35l-.18.18a2.48,2.48,0,0,0,.63,1.3c0,.14,0,.25,0,.36,0,.4-.24,1.52-.34,1.32,0,0-.38.08-.41.39,0,.15-.2.17-.27.35a14.85,14.85,0,0,0-.53,2.06c0,.09-.13,0-.14.13a5.66,5.66,0,0,0,0,.65c0,.07-.1-.05-.12,0S24.73,47.47,24.7,47.55Z" fill="#e74c3c"/><path d="M24.7,47.55c.19,0,.39-.3.55-.1.17-.2.62-.61,1.37.15l3.73-.05.4.35,2.35.3,1.49-.33-1-.9.08-3.18,1.79.05-.19-.21.21-1.68h-.08a4.13,4.13,0,0,1-1.36.13l-.16.32-.29-.25.33-.44-.44-.9-.07-2-.77.05v-.36l-.34-.05-.09.16-.63,0-.24.91a1.41,1.41,0,0,0-1.06.1c-.41-.13-.78.18-1.37-1.89l-.22-.13-2.36,0-1.07.37c.27.77.84,1.21.82,2.35l-.18.18a2.48,2.48,0,0,0,.63,1.3c0,.14,0,.25,0,.36,0,.4-.24,1.52-.34,1.32,0,0-.38.08-.41.39,0,.15-.2.17-.27.35a14.85,14.85,0,0,0-.53,2.06c0,.09-.13,0-.14.13a5.66,5.66,0,0,0,0,.65c0,.07-.1-.05-.12,0S24.73,47.47,24.7,47.55Z" fill="#e74c3c"/><path d="M25,36.9l.42-.25c.17-.41.32-.29.45-.11a.87.87,0,0,0-.38.6c0,.39-.14.36-.27.43-.06-.11-.14-.21-.11-.33A.41.41,0,0,0,25,36.9Z" fill="#e74c3c"/><path d="M25,36.9l.42-.25c.17-.41.32-.29.45-.11a.87.87,0,0,0-.38.6c0,.39-.14.36-.27.43-.06-.11-.14-.21-.11-.33A.41.41,0,0,0,25,36.9Z" fill="#e74c3c"/><path d="M17,26.94l-.79.11-.41-3.21c-.05-.24-.3-.35-.48-.5l.1-.52.51-.4.53,0,.39-.63.88.14v.7a.5.5,0,0,1,0,.74c0,.34,0,.62-.27.61a2.61,2.61,0,0,1-.45,1Z" fill="#e74c3c"/><path d="M17,26.94l-.79.11-.41-3.21c-.05-.24-.3-.35-.48-.5l.1-.52.51-.4.53,0,.39-.63.88.14v.7a.5.5,0,0,1,0,.74c0,.34,0,.62-.27.61a2.61,2.61,0,0,1-.45,1Z" fill="#e74c3c"/><path d="M36.13,47.94l-.55.31c-.54,0-.58.32-.78.49l-.15-.43-2.06.18-.12,3.18-.84,0L31.58,54c.23.28.54.59.7.8s.05.59-.09,1a1.8,1.8,0,0,0,1.19.08.6.6,0,0,1,.24-.33A.69.69,0,0,0,34,55l.51-.43a1.54,1.54,0,0,1,.8.33,2.16,2.16,0,0,0,1-.2l.1-.48,3-2.4a1.39,1.39,0,0,0-.78-.26c-.22-.05-.49-.44-.41-1.1a.78.78,0,0,1-.46-.29c-.13-.22-.3-.2-.45-.29-.24-.33-.67-.75-.7-1s-.08-.12-.17-.25S36.22,48.13,36.13,47.94Z" fill="#e74c3c"/><path d="M36.13,47.94l-.55.31c-.54,0-.58.32-.78.49l-.15-.43-2.06.18-.12,3.18-.84,0L31.58,54c.23.28.54.59.7.8s.05.59-.09,1a1.8,1.8,0,0,0,1.19.08.6.6,0,0,1,.24-.33A.69.69,0,0,0,34,55l.51-.43a1.54,1.54,0,0,1,.8.33,2.16,2.16,0,0,0,1-.2l.1-.48,3-2.4a1.39,1.39,0,0,0-.78-.26c-.22-.05-.49-.44-.41-1.1a.78.78,0,0,1-.46-.29c-.13-.22-.3-.2-.45-.29-.24-.33-.67-.75-.7-1s-.08-.12-.17-.25S36.22,48.13,36.13,47.94Z" fill="#e74c3c"/><path d="M39.94,34.82l.13-.12h.15l.08.21.43-.08,0-.27.53,0c-.18.31.09.47.2.63-.36.84-.66,1.13-.94,1.14s-.32.14-.36.25a6.89,6.89,0,0,1,0-1A.74.74,0,0,0,39.94,34.82Z" fill="#e74c3c"/><path d="M39.94,34.82l.13-.12h.15l.08.21.43-.08,0-.27.53,0c-.18.31.09.47.2.63-.36.84-.66,1.13-.94,1.14s-.32.14-.36.25a6.89,6.89,0,0,1,0-1A.74.74,0,0,0,39.94,34.82Z" fill="#e74c3c"/><path d="M12.32,24.11c-.16,0-.22-.24-.36-.37s-.77-.06-1.17.18a1.1,1.1,0,0,1-.64-.66c.1-.26,0-.61.16-.89a1.52,1.52,0,0,1,.68-.68l.44-.92c.38-.12.72-.17,1-.28a1.48,1.48,0,0,0,.7-.47c.56-.35,1.26-.79,1.69-.68a.62.62,0,0,0,.08.41c.15.1.12.26.09.43l.87,1.17.33.11c0-.06.29-.35.4.3l.2,0-.38.64-.54,0-.52.41-.78-.09a1.41,1.41,0,0,0-.68.13l-1.73,0Z" fill="#e74c3c"/><path d="M12.32,24.11c-.16,0-.22-.24-.36-.37s-.77-.06-1.17.18a1.1,1.1,0,0,1-.64-.66c.1-.26,0-.61.16-.89a1.52,1.52,0,0,1,.68-.68l.44-.92c.38-.12.72-.17,1-.28a1.48,1.48,0,0,0,.7-.47c.56-.35,1.26-.79,1.69-.68a.62.62,0,0,0,.08.41c.15.1.12.26.09.43l.87,1.17.33.11c0-.06.29-.35.4.3l.2,0-.38.64-.54,0-.52.41-.78-.09a1.41,1.41,0,0,0-.68.13l-1.73,0Z" fill="#e74c3c"/><path d="M30.85,29.36c-.15.45-.33.77-.52,1.26A14.26,14.26,0,0,0,30,33.13c-.65.3-.86.77-1.19,1.2l-.26,1.25c-.47.46-.91,1.05-1.48,1.13,0-.7-.64-.36-.7-.09-.29.19-.38,0-.54-.07a.72.72,0,0,0-.36.58c0,.4-.15.38-.29.46l.08.31,1.08-.37,2.36,0,.22.13c.54,2,1,1.79,1.36,1.89a1.75,1.75,0,0,1,1.08-.11l.23-.9.63,0,.08-.16.35.05v.37l.76-.06.08,2,.43.9-.33.45.3.25.16-.32,1,0,.36-.12h.31l.11.45.58-.19a.58.58,0,0,0,.17.3,1.49,1.49,0,0,0,.85.42c.22,0,.4-.22.59-.18a1.14,1.14,0,0,0,.91.5c.24.38.41.84,1.1.76l.27.19,0-1a.86.86,0,0,1-1-.38,3.23,3.23,0,0,1,.38-1.07,4,4,0,0,0-.13-1.15,1.16,1.16,0,0,1,.23-.59l1.56-.38c-.16-.87-.73-1.05-.89-1.67a7,7,0,0,1-.19-2.55.8.8,0,0,0-.49-.75l.47-.67.38-.41.06-1.45.53-.8.85-.77-.51-.33v-.91l-1.06-.9c-.09,0-.14.1-.21.16a1.37,1.37,0,0,1-.62-.06c-.11.25-.56.12-.62,0s0-.12,0-.15a2.42,2.42,0,0,0-.41-.42l-.44,0-.14.17L37.79,28l-.1.16-.21-.28-1,.08v.15l-.43.08L36,28l-1.08.38c-.3-.22-.42-.1-.59-.11l-.19.42c-.9,0-1.28,0-1.43-.24-.29.31-.35-.07-.53-.12-.1-.46-.36-.32-.54-.48a2.41,2.41,0,0,0-.68.68A2.12,2.12,0,0,1,30.85,29.36Z" fill="#e74c3c"/><path d="M30.85,29.36c-.15.45-.33.77-.52,1.26A14.26,14.26,0,0,0,30,33.13c-.65.3-.86.77-1.19,1.2l-.26,1.25c-.47.46-.91,1.05-1.48,1.13,0-.7-.64-.36-.7-.09-.29.19-.38,0-.54-.07a.72.72,0,0,0-.36.58c0,.4-.15.38-.29.46l.08.31,1.08-.37,2.36,0,.22.13c.54,2,1,1.79,1.36,1.89a1.75,1.75,0,0,1,1.08-.11l.23-.9.63,0,.08-.16.35.05v.37l.76-.06.08,2,.43.9-.33.45.3.25.16-.32,1,0,.36-.12h.31l.11.45.58-.19a.58.58,0,0,0,.17.3,1.49,1.49,0,0,0,.85.42c.22,0,.4-.22.59-.18a1.14,1.14,0,0,0,.91.5c.24.38.41.84,1.1.76l.27.19,0-1a.86.86,0,0,1-1-.38,3.23,3.23,0,0,1,.38-1.07,4,4,0,0,0-.13-1.15,1.16,1.16,0,0,1,.23-.59l1.56-.38c-.16-.87-.73-1.05-.89-1.67a7,7,0,0,1-.19-2.55.8.8,0,0,0-.49-.75l.47-.67.38-.41.06-1.45.53-.8.85-.77-.51-.33v-.91l-1.06-.9c-.09,0-.14.1-.21.16a1.37,1.37,0,0,1-.62-.06c-.11.25-.56.12-.62,0s0-.12,0-.15a2.42,2.42,0,0,0-.41-.42l-.44,0-.14.17L37.79,28l-.1.16-.21-.28-1,.08v.15l-.43.08L36,28l-1.08.38c-.3-.22-.42-.1-.59-.11l-.19.42c-.9,0-1.28,0-1.43-.24-.29.31-.35-.07-.53-.12-.1-.46-.36-.32-.54-.48a2.41,2.41,0,0,0-.68.68A2.12,2.12,0,0,1,30.85,29.36Z" fill="#e74c3c"/><path d="M51.64,21l-.51.38c-.09.26,0,.46-.11.58-.29.49-.26.53-.16.64s.44,0,.61-.06l.27.11.3-.45c-.18-.15-.36-.07-.55-.08.05-.22.3-.27.48-.39A.6.6,0,0,0,51.64,21Z" fill="#e74c3c"/><path d="M51.64,21l-.51.38c-.09.26,0,.46-.11.58-.29.49-.26.53-.16.64s.44,0,.61-.06l.27.11.3-.45c-.18-.15-.36-.07-.55-.08.05-.22.3-.27.48-.39A.6.6,0,0,0,51.64,21Z" fill="#e74c3c"/><path d="M7.93,28.59l.33,0,2.63-.74.94.11.14-.56c0-.45-.41-.9.11-1.34,0-.33,0-.68.37-.89l-.12-1.1c-.14,0-.2-.15-.28-.28-.17-.29-.73-.26-1.26.1-.25-.18-.54-.3-.64-.67a.79.79,0,0,0-.84.13l0-.38c-.05-.14-.25-.1-.48,0-.06,0,0,.1,0,.21a1.45,1.45,0,0,1-.25.05.46.46,0,0,1-.24.17c-.24-.41-.37-.34-.65-.11a.87.87,0,0,0-.2.43c0,.19,0,.36.24.34l0,.25c.14.06.11.09,0,.23s.17.36.14.43l-.44-.09c0,.07,0,.17,0,.25l.21.09-.16.43s-.2,0-.25,0V26c.23.06.1.59-.11.68l.31.2c.07-.05.26,0,.39.33,0,0,.31.2.3.44S8,27.85,8,28Z" fill="#e74c3c"/><path d="M7.93,28.59l.33,0,2.63-.74.94.11.14-.56c0-.45-.41-.9.11-1.34,0-.33,0-.68.37-.89l-.12-1.1c-.14,0-.2-.15-.28-.28-.17-.29-.73-.26-1.26.1-.25-.18-.54-.3-.64-.67a.79.79,0,0,0-.84.13l0-.38c-.05-.14-.25-.1-.48,0-.06,0,0,.1,0,.21a1.45,1.45,0,0,1-.25.05.46.46,0,0,1-.24.17c-.24-.41-.37-.34-.65-.11a.87.87,0,0,0-.2.43c0,.19,0,.36.24.34l0,.25c.14.06.11.09,0,.23s.17.36.14.43l-.44-.09c0,.07,0,.17,0,.25l.21.09-.16.43s-.2,0-.25,0V26c.23.06.1.59-.11.68l.31.2c.07-.05.26,0,.39.33,0,0,.31.2.3.44S8,27.85,8,28Z" fill="#e74c3c"/><path d="M47.12,19.31c.16.11.32.09.48.34l.42-.08.08-.13.07,0,.09.17a.48.48,0,0,1,.54,0c.08.06.2,0,.29-.06a.88.88,0,0,0,.51.27,13,13,0,0,1,1.54,1.53l.5-.35a.49.49,0,0,0-.51-.38.41.41,0,0,0-.3-.37c0-.19-.2-.18-.33-.23a1.83,1.83,0,0,0-.57-.66c-.24.06-.35-.1-.46-.26l-.18,0-.13.08a.71.71,0,0,1-.21-.42l-.19-.05,0,.27c-.12.07-.18-.12-.24-.33l-.4-.57a3.18,3.18,0,0,0-.71-1.68c-.06.15-.07.33-.18.41l-.58.3a.41.41,0,0,1-.39.21A11,11,0,0,0,46,19.82h.45l0-.15h.21l.17.27Z" fill="#e74c3c"/><path d="M47.12,19.31c.16.11.32.09.48.34l.42-.08.08-.13.07,0,.09.17a.48.48,0,0,1,.54,0c.08.06.2,0,.29-.06a.88.88,0,0,0,.51.27,13,13,0,0,1,1.54,1.53l.5-.35a.49.49,0,0,0-.51-.38.41.41,0,0,0-.3-.37c0-.19-.2-.18-.33-.23a1.83,1.83,0,0,0-.57-.66c-.24.06-.35-.1-.46-.26l-.18,0-.13.08a.71.71,0,0,1-.21-.42l-.19-.05,0,.27c-.12.07-.18-.12-.24-.33l-.4-.57a3.18,3.18,0,0,0-.71-1.68c-.06.15-.07.33-.18.41l-.58.3a.41.41,0,0,1-.39.21A11,11,0,0,0,46,19.82h.45l0-.15h.21l.17.27Z" fill="#e74c3c"/><path d="M24.11,35.78l-1.56-1.61-.37-.95.34-.33.1-.53.44.1s.06,0,0-.1l-.38-.19.12-.54,1.46-.07V30.6h1.81l-.14.2,0,.61c.16.06.27-.07.38-.27.28,0,.79.21.65.69-.23.26-.34.5-.25.72a3.1,3.1,0,0,1,.18.56l-.14,1.28-.29.21a.66.66,0,0,0-.71-.25c-.1-.13-.21-.3-.4,0l-.75.46.07.62Z" fill="#e74c3c"/><path d="M24.11,35.78l-1.56-1.61-.37-.95.34-.33.1-.53.44.1s.06,0,0-.1l-.38-.19.12-.54,1.46-.07V30.6h1.81l-.14.2,0,.61c.16.06.27-.07.38-.27.28,0,.79.21.65.69-.23.26-.34.5-.25.72a3.1,3.1,0,0,1,.18.56l-.14,1.28-.29.21a.66.66,0,0,0-.71-.25c-.1-.13-.21-.3-.4,0l-.75.46.07.62Z" fill="#e74c3c"/><path d="M.51,20.05h.95c.2-.27.51-.18.85.06l.55,0,.12.16-.4.14a2.32,2.32,0,0,1-.74-.3.91.91,0,0,1-.57.13l-.1.17-.82,0Z" fill="#e74c3c"/><path d="M.51,20.05h.95c.2-.27.51-.18.85.06l.55,0,.12.16-.4.14a2.32,2.32,0,0,1-.74-.3.91.91,0,0,1-.57.13l-.1.17-.82,0Z" fill="#e74c3c"/><path d="M15.54,27.21c-.08.11-.09.34-.32.21a7.63,7.63,0,0,0-2.38.93l-1-.37.14-.56c0-.45-.41-.9.11-1.34,0-.33,0-.68.37-.89l-.27-2.41,1.73.05a1.48,1.48,0,0,1,.72-.14c-.14.27-.06.53.27.77a19.12,19.12,0,0,1,.32,3.19Z" fill="#e74c3c"/><path d="M15.54,27.21c-.08.11-.09.34-.32.21a7.63,7.63,0,0,0-2.38.93l-1-.37.14-.56c0-.45-.41-.9.11-1.34,0-.33,0-.68.37-.89l-.27-2.41,1.73.05a1.48,1.48,0,0,1,.72-.14c-.14.27-.06.53.27.77a19.12,19.12,0,0,1,.32,3.19Z" fill="#e74c3c"/><path d="M1.66,22.55c0,.09,0,.14.1.14s.22-.35.19.06l.15,0a.54.54,0,0,0,.26.57c.19.07.3.29.41.39l.26.48c.18.12.43,0,.82-.49,0-.18.2-.27.92-.22A1.19,1.19,0,0,1,5.33,25c.26-.06.41-.24.85-.13a.89.89,0,0,1,.17,1c.24.09.33.36.67-.09,0-.1.06-.14.17-.06s.17,0,.28,0l.18-.46-.22-.09,0-.24.45.09c0-.17-.26-.38-.09-.5s0-.14,0-.19V24.1c-.44-.05-.19-.54,0-.78l-.27-.24,0-.54-.22.16-.08-.12.3-.27-.4-.3a1.41,1.41,0,0,0-.1-.73l-.28-.06a.22.22,0,0,1-.16.25q-.16,0-.19.2l-.5-.21-.39.29c.05-.13-.08-.2-.16-.3l-.22.15c-.17.06-.19,0-.19-.15s.08-.07.09-.12a4.7,4.7,0,0,1-1.82-.39H3l-.08,1H2.42A1.71,1.71,0,0,0,1.66,22.55Z" fill="#e74c3c"/><path d="M1.66,22.55c0,.09,0,.14.1.14s.22-.35.19.06l.15,0a.54.54,0,0,0,.26.57c.19.07.3.29.41.39l.26.48c.18.12.43,0,.82-.49,0-.18.2-.27.92-.22A1.19,1.19,0,0,1,5.33,25c.26-.06.41-.24.85-.13a.89.89,0,0,1,.17,1c.24.09.33.36.67-.09,0-.1.06-.14.17-.06s.17,0,.28,0l.18-.46-.22-.09,0-.24.45.09c0-.17-.26-.38-.09-.5s0-.14,0-.19V24.1c-.44-.05-.19-.54,0-.78l-.27-.24,0-.54-.22.16-.08-.12.3-.27-.4-.3a1.41,1.41,0,0,0-.1-.73l-.28-.06a.22.22,0,0,1-.16.25q-.16,0-.19.2l-.5-.21-.39.29c.05-.13-.08-.2-.16-.3l-.22.15c-.17.06-.19,0-.19-.15s.08-.07.09-.12a4.7,4.7,0,0,1-1.82-.39H3l-.08,1H2.42A1.71,1.71,0,0,0,1.66,22.55Z" fill="#e74c3c"/><path d="M.3,21.16l.06.16c.12.08.35-.08.33.31.11.06.24-.06.32.2.13.07.47-.56.35.38l.3.33a1.64,1.64,0,0,1,.73-.66h.49L3,20.93H1.7a1.23,1.23,0,0,1-.81.13A1.85,1.85,0,0,1,.3,21.16Z" fill="#e74c3c"/><path d="M.3,21.16l.06.16c.12.08.35-.08.33.31.11.06.24-.06.32.2.13.07.47-.56.35.38l.3.33a1.64,1.64,0,0,1,.73-.66h.49L3,20.93H1.7a1.23,1.23,0,0,1-.81.13A1.85,1.85,0,0,1,.3,21.16Z" fill="#e74c3c"/><path d="M28.52,31.06c-.23-.1-.51-.33-.67-.24l-.58-.21H23l.13-1-.33-.42.12-.15L22.85,29l-.22.07c-.27,0-.37-.23-.43-.45-.15-.06-.35,0-.35-.28.31-.53.37-1.26,1-1.55l0-.23.86,0c.32.21.22.44.76.37.38-.68.65-1.93,1.14-2,.3-.73.38-1.77.89-2.19a1,1,0,0,0,.55-.35,1,1,0,0,0,0-.53c0-.1-.09,0-.19-.15l-.15-.56.12-.1.45.38a3.18,3.18,0,0,1,.19.94c0,.49-.24.56.25,1.12a.67.67,0,0,1,.08.44l-.91-.09c-.1.25-.33.81.57,1l.42,1.27-.79,1.31.11,1a6.62,6.62,0,0,0,1.26,1.75Z" fill="#e74c3c"/><path d="M28.52,31.06c-.23-.1-.51-.33-.67-.24l-.58-.21H23l.13-1-.33-.42.12-.15L22.85,29l-.22.07c-.27,0-.37-.23-.43-.45-.15-.06-.35,0-.35-.28.31-.53.37-1.26,1-1.55l0-.23.86,0c.32.21.22.44.76.37.38-.68.65-1.93,1.14-2,.3-.73.38-1.77.89-2.19a1,1,0,0,0,.55-.35,1,1,0,0,0,0-.53c0-.1-.09,0-.19-.15l-.15-.56.12-.1.45.38a3.18,3.18,0,0,1,.19.94c0,.49-.24.56.25,1.12a.67.67,0,0,1,.08.44l-.91-.09c-.1.25-.33.81.57,1l.42,1.27-.79,1.31.11,1a6.62,6.62,0,0,0,1.26,1.75Z" fill="#e74c3c"/><path d="M50.9,33.92a.59.59,0,0,1-.49.35.75.75,0,0,1-.52.55,12.32,12.32,0,0,1-1,1.84l-1.19-.8-.19-.69-3.63-2.28,1.19-1.83,0-1-.41-.34c-.05-.39-.14-.75-.47-.89l.42-.37,1.18-.05.73.06a3.65,3.65,0,0,1,1.05.69l1.34.2a.89.89,0,0,0,.56-.48c.32,0,.67-.33,1.08.07a1.38,1.38,0,0,0,.57,0A11.87,11.87,0,0,1,50.37,30l0,3.32Z" fill="#e74c3c"/><path d="M50.9,33.92a.59.59,0,0,1-.49.35.75.75,0,0,1-.52.55,12.32,12.32,0,0,1-1,1.84l-1.19-.8-.19-.69-3.63-2.28,1.19-1.83,0-1-.41-.34c-.05-.39-.14-.75-.47-.89l.42-.37,1.18-.05.73.06a3.65,3.65,0,0,1,1.05.69l1.34.2a.89.89,0,0,0,.56-.48c.32,0,.67-.33,1.08.07a1.38,1.38,0,0,0,.57,0A11.87,11.87,0,0,1,50.37,30l0,3.32Z" fill="#e74c3c"/><path d="M24.77,3.63a.76.76,0,0,1-.26.77l-.83.6c.05.28.12,1-.5,1.09-.42.07-.2.41.08.87l0,2.42s-.38.07-.35.17a1,1,0,0,0,.35.64.77.77,0,0,1,.17.63c0,.21.21.3.27.29.42,0,.76-.21,1.16.9l2,.06c.23,0,.48.41.48.41l1.14-.32,6.73,3.33V15c.74.06.83,0,.83,0l-.46-7.86c-.27-.37-.54-.73-.21-1.15a2.79,2.79,0,0,0-.08-.68.41.41,0,0,1,.15-.43c0-.33-.64-.31-1-.33s-.74-.08-.66-.41c0,0-1.15-.41-1.6-.14-.24.15-.74.38-.83.67a.6.6,0,0,0,.11.54c.21.36-.5,1.58-1.3.6,0,0-1.06-.29-1.66-.42s-1-.64-.75-1c0,0-1.59-.5-1.59-.5A1.83,1.83,0,0,1,24.77,3.63Z" fill="#e74c3c"/><path d="M24.77,3.63a.76.76,0,0,1-.26.77l-.83.6c.05.28.12,1-.5,1.09-.42.07-.2.41.08.87l0,2.42s-.38.07-.35.17a1,1,0,0,0,.35.64.77.77,0,0,1,.17.63c0,.21.21.3.27.29.42,0,.76-.21,1.16.9l2,.06c.23,0,.48.41.48.41l1.14-.32,6.73,3.33V15c.74.06.83,0,.83,0l-.46-7.86c-.27-.37-.54-.73-.21-1.15a2.79,2.79,0,0,0-.08-.68.41.41,0,0,1,.15-.43c0-.33-.64-.31-1-.33s-.74-.08-.66-.41c0,0-1.15-.41-1.6-.14-.24.15-.74.38-.83.67a.6.6,0,0,0,.11.54c.21.36-.5,1.58-1.3.6,0,0-1.06-.29-1.66-.42s-1-.64-.75-1c0,0-1.59-.5-1.59-.5A1.83,1.83,0,0,1,24.77,3.63Z" fill="#e74c3c"/><path d="M7.92,28.59l-.74-.26L4.57,26.19l.83-.69v-.25l.4-.39c.12-.08.27,0,.41,0a.9.9,0,0,1,.16,1c.2.05.35.38.67-.09,0-.13.07-.13.2-.05V26a.34.34,0,0,1,.08.45c-.05.1-.09.21-.21.23l.34.21c.1,0,.18-.09.38.34,0,.06.55.27.13.78Z" fill="#e74c3c"/><path d="M7.92,28.59l-.74-.26L4.57,26.19l.83-.69v-.25l.4-.39c.12-.08.27,0,.41,0a.9.9,0,0,1,.16,1c.2.05.35.38.67-.09,0-.13.07-.13.2-.05V26a.34.34,0,0,1,.08.45c-.05.1-.09.21-.21.23l.34.21c.1,0,.18-.09.38.34,0,.06.55.27.13.78Z" fill="#e74c3c"/><path d="M11.24,10.23l-1.32,0L10,17.88l.35.12-.24.74L6.2,18.52l-.45.31-.24-.09-.17-.5-.22-.06c-.44,1-.5.85-.67,1,0,.1,0,.19,0,.28.1.28.16.56,0,.69.2.18.46.32.54.58a1.1,1.1,0,0,1-.09.68c-.09.09,0,.29.2.14l.18-.11c.06.09.19.14.17.28l.39-.27.48.2c0-.07,0-.18.17-.21s.17-.07.2-.24l.26.06a1.64,1.64,0,0,1,.11.73l.39.29-.3.27.08.12.22-.14,0,.52.27.25c.11-.11.29-.25.43-.18s.19.33.31.25.15-.16.34-.16S8.72,23,8.91,23s.22-.1.37-.06,0,.56.07.45a.75.75,0,0,1,.82-.11c.14-.51-.14-1,.84-1.58l.43-.91c.58-.24,1.2-.13,1.73-.76.67-.45,1.33-.78,1.69-.68h.67l.38-.32,1.81,0c0-.09.07-.15.32-.28,0-.22.2-.23.33-.3l.07-2.69-.68.1c-.27-.17,0-.23,0-.62-.15-.34-.35-.4-.54-.36s-.24-.21-.33-.19-.32-.11-.42-.33-.13-.11-.19-.15S16,14,16,13.89Z" fill="#e74c3c"/><path d="M11.24,10.23l-1.32,0L10,17.88l.35.12-.24.74L6.2,18.52l-.45.31-.24-.09-.17-.5-.22-.06c-.44,1-.5.85-.67,1,0,.1,0,.19,0,.28.1.28.16.56,0,.69.2.18.46.32.54.58a1.1,1.1,0,0,1-.09.68c-.09.09,0,.29.2.14l.18-.11c.06.09.19.14.17.28l.39-.27.48.2c0-.07,0-.18.17-.21s.17-.07.2-.24l.26.06a1.64,1.64,0,0,1,.11.73l.39.29-.3.27.08.12.22-.14,0,.52.27.25c.11-.11.29-.25.43-.18s.19.33.31.25.15-.16.34-.16S8.72,23,8.91,23s.22-.1.37-.06,0,.56.07.45a.75.75,0,0,1,.82-.11c.14-.51-.14-1,.84-1.58l.43-.91c.58-.24,1.2-.13,1.73-.76.67-.45,1.33-.78,1.69-.68h.67l.38-.32,1.81,0c0-.09.07-.15.32-.28,0-.22.2-.23.33-.3l.07-2.69-.68.1c-.27-.17,0-.23,0-.62-.15-.34-.35-.4-.54-.36s-.24-.21-.33-.19-.32-.11-.42-.33-.13-.11-.19-.15S16,14,16,13.89Z" fill="#e74c3c"/><path d="M44,41l.52,1.7-.15,1.51a4.29,4.29,0,0,1,1,1.22,1,1,0,0,1,.09.49l-.19.8-.47.2,0,.7h-.25c.13-.33,0-.27,0-.29a1.2,1.2,0,0,1-.53-.81,1.52,1.52,0,0,0,.23-1.1l-.46-.08c-.35.09-.42,0-.46-.16-.19-.45-.28-.28-.35-.31l-.27-.38.48-.89.37,0-.25-.33.22-1.15.21-.16-.61-1.21A1.52,1.52,0,0,0,44,41Z" fill="#e74c3c"/><path d="M44,41l.52,1.7-.15,1.51a4.29,4.29,0,0,1,1,1.22,1,1,0,0,1,.09.49l-.19.8-.47.2,0,.7h-.25c.13-.33,0-.27,0-.29a1.2,1.2,0,0,1-.53-.81,1.52,1.52,0,0,0,.23-1.1l-.46-.08c-.35.09-.42,0-.46-.16-.19-.45-.28-.28-.35-.31l-.27-.38.48-.89.37,0-.25-.33.22-1.15.21-.16-.61-1.21A1.52,1.52,0,0,0,44,41Z" fill="#e74c3c"/><path d="M8.66,7.71l.13-1,.8-.41.18.05.28-.23.47,0,0-.23c1,0,1.19-.22,1.36-.48l.83-.34h.31l-.16-.21.05-.19,0-.25c.32,0,.72,0,.72-.33l1.34,0,.18-.41c-.26-.09-.3-.46-.27-.86s0-1,0-1a.78.78,0,0,1-.22-.36c-.22,0-.48,0-.57-.17a3.42,3.42,0,0,0-.9-.05c-.51.05-.72-.13-.93-.62-.49,0-1,1-1.39,1.55a4,4,0,0,0-2,1.21c.06.22,0,.31-.27.45s-.65.9-.48,1.36A1.66,1.66,0,0,1,7,6.6a2.78,2.78,0,0,1-1,.53,3.69,3.69,0,0,0-1,.3Z" fill="#e74c3c"/><path d="M8.66,7.71l.13-1,.8-.41.18.05.28-.23.47,0,0-.23c1,0,1.19-.22,1.36-.48l.83-.34h.31l-.16-.21.05-.19,0-.25c.32,0,.72,0,.72-.33l1.34,0,.18-.41c-.26-.09-.3-.46-.27-.86s0-1,0-1a.78.78,0,0,1-.22-.36c-.22,0-.48,0-.57-.17a3.42,3.42,0,0,0-.9-.05c-.51.05-.72-.13-.93-.62-.49,0-1,1-1.39,1.55a4,4,0,0,0-2,1.21c.06.22,0,.31-.27.45s-.65.9-.48,1.36A1.66,1.66,0,0,1,7,6.6a2.78,2.78,0,0,1-1,.53,3.69,3.69,0,0,0-1,.3Z" fill="#e74c3c"/><path d="M4.39,13.15C4.5,12.39,4,11.33,5.5,11.3L5.81,9l2.63.23.14-1,2.65,2-1.32,0L10,17.88l.33.12-.23.74-3.9-.21-.44.31-.24-.08-.17-.52-.24-.06s-.43,1.06-.7,1l-.26-.27a1.88,1.88,0,0,1-.35-.43c-.13-.25-.22-.64-.4-.61-.38.06-.67-.45-.67-.45a1.74,1.74,0,0,0-.77,0,6.63,6.63,0,0,1-1,0l.38-1.05,0-1.23-.23-.37c.12-.22.5-.42.25-1.07,0-.07-.16,0-.16,0l-.16-.48.2-.2Z" fill="#e74c3c"/><path d="M4.39,13.15C4.5,12.39,4,11.33,5.5,11.3L5.81,9l2.63.23.14-1,2.65,2-1.32,0L10,17.88l.33.12-.23.74-3.9-.21-.44.31-.24-.08-.17-.52-.24-.06s-.43,1.06-.7,1l-.26-.27a1.88,1.88,0,0,1-.35-.43c-.13-.25-.22-.64-.4-.61-.38.06-.67-.45-.67-.45a1.74,1.74,0,0,0-.77,0,6.63,6.63,0,0,1-1,0l.38-1.05,0-1.23-.23-.37c.12-.22.5-.42.25-1.07,0-.07-.16,0-.16,0l-.16-.48.2-.2Z" fill="#e74c3c"/><path d="M40.44,45.76l.18.48v.24l.63,0,1.48.58a3.8,3.8,0,0,1-.19,2.14,2,2,0,0,0,0,.35,1.26,1.26,0,0,1,0,.73,10,10,0,0,1-.65,1.26,1.22,1.22,0,0,0-.56.85l.15,3.66.56,0,.15-.52-.22.08c0-.2,0-.41.2-.62l1.8-.71a2.4,2.4,0,0,0,.52-.64l-.21-.07.37-1.41-.19-.06L44.27,51a.52.52,0,0,1,0-.91l1.09-.92.09.18.4-.45-.09-.14.26,0,.08-.23,1.33-.66h.33a3.56,3.56,0,0,1,.82-.55l0-.2.44-.34c.11-.11.2-.27.34-.27l0-.22-.08-.09.24-.36.06-.24,0-.16-.15-.23.05-.89c-.11-.11-.05-.19,0-.26l0-1,.36-.6a1.19,1.19,0,0,0,0-.49c-.55.33-1.46.89-1.93.6a.77.77,0,0,0-.63.28,2.59,2.59,0,0,0-.52,0l-.66.12c-.12-.14-.24-.28-.51-.13l-1,0-.15,1.5a3.68,3.68,0,0,1,1.09,1.37c.13.3-.1.74-.15,1.13l-.47.21,0,.67-.23,0c.06-.14.12-.28-.08-.3a1.18,1.18,0,0,1-.48-.79,1.64,1.64,0,0,0,.22-1.1l-.46-.08c-.18,0-.39,0-.43-.1-.12-.38-.24-.4-.39-.36Z" fill="#e74c3c"/><path d="M40.44,45.76l.18.48v.24l.63,0,1.48.58a3.8,3.8,0,0,1-.19,2.14,2,2,0,0,0,0,.35,1.26,1.26,0,0,1,0,.73,10,10,0,0,1-.65,1.26,1.22,1.22,0,0,0-.56.85l.15,3.66.56,0,.15-.52-.22.08c0-.2,0-.41.2-.62l1.8-.71a2.4,2.4,0,0,0,.52-.64l-.21-.07.37-1.41-.19-.06L44.27,51a.52.52,0,0,1,0-.91l1.09-.92.09.18.4-.45-.09-.14.26,0,.08-.23,1.33-.66h.33a3.56,3.56,0,0,1,.82-.55l0-.2.44-.34c.11-.11.2-.27.34-.27l0-.22-.08-.09.24-.36.06-.24,0-.16-.15-.23.05-.89c-.11-.11-.05-.19,0-.26l0-1,.36-.6a1.19,1.19,0,0,0,0-.49c-.55.33-1.46.89-1.93.6a.77.77,0,0,0-.63.28,2.59,2.59,0,0,0-.52,0l-.66.12c-.12-.14-.24-.28-.51-.13l-1,0-.15,1.5a3.68,3.68,0,0,1,1.09,1.37c.13.3-.1.74-.15,1.13l-.47.21,0,.67-.23,0c.06-.14.12-.28-.08-.3a1.18,1.18,0,0,1-.48-.79,1.64,1.64,0,0,0,.22-1.1l-.46-.08c-.18,0-.39,0-.43-.1-.12-.38-.24-.4-.39-.36Z" fill="#e74c3c"/><path d="M24.71,47.55a1.61,1.61,0,0,0,.52,1.3l1.83,3.25,0,1.49.33.69c0,.27-.08.54.08.81l.23,1.27,1,1.1c.62-.66.84-.13,1,.3a4.23,4.23,0,0,1,1.13,0,2.18,2.18,0,0,1,.64-.44l.14-5.67.84,0,.12-3.19,2-.18.16.43c.15-.16.35-.46.65-.47s.41-.19.67-.33l-.2-.29-1.32.22-1.47.34-2.38-.32-.4-.34-3.75,0c-.18-.24-.86-.78-1.35-.14C25.09,47.26,24.89,47.5,24.71,47.55Z" fill="#e74c3c"/><path d="M24.71,47.55a1.61,1.61,0,0,0,.52,1.3l1.83,3.25,0,1.49.33.69c0,.27-.08.54.08.81l.23,1.27,1,1.1c.62-.66.84-.13,1,.3a4.23,4.23,0,0,1,1.13,0,2.18,2.18,0,0,1,.64-.44l.14-5.67.84,0,.12-3.19,2-.18.16.43c.15-.16.35-.46.65-.47s.41-.19.67-.33l-.2-.29-1.32.22-1.47.34-2.38-.32-.4-.34-3.75,0c-.18-.24-.86-.78-1.35-.14C25.09,47.26,24.89,47.5,24.71,47.55Z" fill="#e74c3c"/><path d="M18.45,15.78l-.07,2.69c-.12.07-.28,0-.33.29-.13.08-.29.13-.32.28l-1.82,0-.37.31h-.69a.46.46,0,0,0,.1.42c.1.08.09.25.06.4l.87,1.16.32.12c.17-.15.33-.2.41.32l1.08.15c.07-.17.06-.41.25-.5s.24-.45.35-.69.09-.28,1.35-.26a3,3,0,0,1,1,.69h.25c0-.09.26-.26.42-.29s.47.07.87.42l.71.06.69-.49,1.2,0c.18.07.31.23.58.17a2.88,2.88,0,0,1,1-.6,1,1,0,0,1-.08-.62.42.42,0,0,0,.24-.42l1.45-1.61.27-2.56.2-.52a1,1,0,0,1-.79-.9c0-.31,0-.71,0-1.29l-.26,0a1.21,1.21,0,0,0-.46-.41l-2-.07-5.15,3.39Z" fill="#e74c3c"/><path d="M18.45,15.78l-.07,2.69c-.12.07-.28,0-.33.29-.13.08-.29.13-.32.28l-1.82,0-.37.31h-.69a.46.46,0,0,0,.1.42c.1.08.09.25.06.4l.87,1.16.32.12c.17-.15.33-.2.41.32l1.08.15c.07-.17.06-.41.25-.5s.24-.45.35-.69.09-.28,1.35-.26a3,3,0,0,1,1,.69h.25c0-.09.26-.26.42-.29s.47.07.87.42l.71.06.69-.49,1.2,0c.18.07.31.23.58.17a2.88,2.88,0,0,1,1-.6,1,1,0,0,1-.08-.62.42.42,0,0,0,.24-.42l1.45-1.61.27-2.56.2-.52a1,1,0,0,1-.79-.9c0-.31,0-.71,0-1.29l-.26,0a1.21,1.21,0,0,0-.46-.41l-2-.07-5.15,3.39Z" fill="#e74c3c"/><path d="M21.85,28.31h-.17l-.06.3a2.4,2.4,0,0,1-.89-.13c-.71.44-1.28.37-1.57-.65a1.37,1.37,0,0,0-1-.88H17L17,25a3,3,0,0,0,.43-1c.33-.08.26-.37.28-.62.33-.22.11-.56,0-.79l0-.64c0-.18,0-.38.25-.55.1-.13.2-.06.31-.68.18-.14.37-.28,1.35-.25a2.37,2.37,0,0,1,1,.69h.22c.14-.1.19-.28.44-.29s.16-.14.86.4l.73.07.68-.49,1.21,0c.18.07.32.24.55.17a3,3,0,0,1,1-.6,2.43,2.43,0,0,0,.5.58l-.12.09.15.59c.07.05.19.07.19.16.13.58-.19.75-.57.88-.49.38-.61,1.42-.89,2.17-.54.16-.72,1.16-1.14,2-.4.08-.5-.12-.75-.39l-.87.06,0,.23C22.27,27,22.14,27.7,21.85,28.31Z" fill="#e74c3c"/><path d="M21.85,28.31h-.17l-.06.3a2.4,2.4,0,0,1-.89-.13c-.71.44-1.28.37-1.57-.65a1.37,1.37,0,0,0-1-.88H17L17,25a3,3,0,0,0,.43-1c.33-.08.26-.37.28-.62.33-.22.11-.56,0-.79l0-.64c0-.18,0-.38.25-.55.1-.13.2-.06.31-.68.18-.14.37-.28,1.35-.25a2.37,2.37,0,0,1,1,.69h.22c.14-.1.19-.28.44-.29s.16-.14.86.4l.73.07.68-.49,1.21,0c.18.07.32.24.55.17a3,3,0,0,1,1-.6,2.43,2.43,0,0,0,.5.58l-.12.09.15.59c.07.05.19.07.19.16.13.58-.19.75-.57.88-.49.38-.61,1.42-.89,2.17-.54.16-.72,1.16-1.14,2-.4.08-.5-.12-.75-.39l-.87.06,0,.23C22.27,27,22.14,27.7,21.85,28.31Z" fill="#e74c3c"/><path d="M25,36.9l-.87-1.12.58-.37-.07-.63.71-.43c.12-.1.21-.33.43,0,.38,0,.6.05.72.24l.3-.21.12-1.25c0-.43-.49-.71.09-1.33.1-.4-.26-.68-.66-.66-.1.13-.13.33-.38.27v-.6l.14-.22h1.16l.56.2c.21-.11.49.21.69.24l0-1a1.9,1.9,0,0,1,1.13-.81l.55.25.68-.19c-.17.45-.35.82-.52,1.26A12.79,12.79,0,0,0,30,33.13a3,3,0,0,0-1.19,1.2l-.27,1.25c-.59.64-1.12,1.15-1.46,1.12,0-.36-.39-.68-.71-.09-.22.15-.38.07-.55-.09-.25-.32-.33,0-.44.12Z" fill="#e74c3c"/><path d="M25,36.9l-.87-1.12.58-.37-.07-.63.71-.43c.12-.1.21-.33.43,0,.38,0,.6.05.72.24l.3-.21.12-1.25c0-.43-.49-.71.09-1.33.1-.4-.26-.68-.66-.66-.1.13-.13.33-.38.27v-.6l.14-.22h1.16l.56.2c.21-.11.49.21.69.24l0-1a1.9,1.9,0,0,1,1.13-.81l.55.25.68-.19c-.17.45-.35.82-.52,1.26A12.79,12.79,0,0,0,30,33.13a3,3,0,0,0-1.19,1.2l-.27,1.25c-.59.64-1.12,1.15-1.46,1.12,0-.36-.39-.68-.71-.09-.22.15-.38.07-.55-.09-.25-.32-.33,0-.44.12Z" fill="#e74c3c"/><path d="M41.16,33.39l-.38.3h-.13l-.08-.11a7.41,7.41,0,0,0-.85,1.09.37.37,0,0,1,.22.14l.13-.12h.14l.07.19.44-.09,0-.26.54,0a2,2,0,0,1,.27-.33Z" fill="#e74c3c"/><path d="M41.16,33.39l-.38.3h-.13l-.08-.11a7.41,7.41,0,0,0-.85,1.09.37.37,0,0,1,.22.14l.13-.12h.14l.07.19.44-.09,0-.26.54,0a2,2,0,0,1,.27-.33Z" fill="#e74c3c"/><path d="M41.31,39.65,39.73,40a1.52,1.52,0,0,0-.21.51,3.26,3.26,0,0,0,.05.32,2.69,2.69,0,0,1,0,1,3.11,3.11,0,0,0-.36,1,1.18,1.18,0,0,0,.53.4c.21.05.44,0,.49,0l0,1A1.79,1.79,0,0,1,40,44c-.33,0-.63.15-1.11-.77a1.14,1.14,0,0,1-.91-.5c-.13,0-.35.15-.55.19a1.45,1.45,0,0,1-.88-.41.55.55,0,0,1-.18-.32l-.59.19-.11-.45h-.24l-.21,1.7.19.19-1.79,0L33.59,47l1,.88,1.35-.21.2.3.09.2h1.06l.14.13.2-.05A3.58,3.58,0,0,1,39.23,47l0-.49a1.86,1.86,0,0,1,1.38-.3l-.19-.49,2.62-.82-.28-.41.47-.88.37,0-.24-.32.22-1.16.21-.15-.43-.84-.2-.39-1-.34c-.34-.49-.42-.39-.53-.37Z" fill="#e74c3c"/><path d="M41.31,39.65,39.73,40a1.52,1.52,0,0,0-.21.51,3.26,3.26,0,0,0,.05.32,2.69,2.69,0,0,1,0,1,3.11,3.11,0,0,0-.36,1,1.18,1.18,0,0,0,.53.4c.21.05.44,0,.49,0l0,1A1.79,1.79,0,0,1,40,44c-.33,0-.63.15-1.11-.77a1.14,1.14,0,0,1-.91-.5c-.13,0-.35.15-.55.19a1.45,1.45,0,0,1-.88-.41.55.55,0,0,1-.18-.32l-.59.19-.11-.45h-.24l-.21,1.7.19.19-1.79,0L33.59,47l1,.88,1.35-.21.2.3.09.2h1.06l.14.13.2-.05A3.58,3.58,0,0,1,39.23,47l0-.49a1.86,1.86,0,0,1,1.38-.3l-.19-.49,2.62-.82-.28-.41.47-.88.37,0-.24-.32.22-1.16.21-.15-.43-.84-.2-.39-1-.34c-.34-.49-.42-.39-.53-.37Z" fill="#e74c3c"/><path d="M1,17.37A1.28,1.28,0,0,0,.75,18c0,.49-.5.65-.75,1A2.38,2.38,0,0,1,.52,20h.95c.2-.27.51-.18.85.06l.55,0,.12.16-.4.14a2.32,2.32,0,0,1-.74-.3.91.91,0,0,1-.57.13l-.1.17-.83,0a1.69,1.69,0,0,0-.05.67A1.37,1.37,0,0,0,.9,21a1.06,1.06,0,0,0,.81-.14l1.43,0A4.23,4.23,0,0,0,5,21.31c0-.32.21-.65-.5-1.14a.83.83,0,0,0,0-.69c-.05-.13,0-.17,0-.31a2.34,2.34,0,0,1-.26-.25,5.43,5.43,0,0,1-.38-.46,1.63,1.63,0,0,0-.34-.64c-.46.08-.75-.44-.75-.44a1.74,1.74,0,0,0-.77,0A3.24,3.24,0,0,1,1,17.37Z" fill="#e74c3c"/><path d="M1,17.37A1.28,1.28,0,0,0,.75,18c0,.49-.5.65-.75,1A2.38,2.38,0,0,1,.52,20h.95c.2-.27.51-.18.85.06l.55,0,.12.16-.4.14a2.32,2.32,0,0,1-.74-.3.91.91,0,0,1-.57.13l-.1.17-.83,0a1.69,1.69,0,0,0-.05.67A1.37,1.37,0,0,0,.9,21a1.06,1.06,0,0,0,.81-.14l1.43,0A4.23,4.23,0,0,0,5,21.31c0-.32.21-.65-.5-1.14a.83.83,0,0,0,0-.69c-.05-.13,0-.17,0-.31a2.34,2.34,0,0,1-.26-.25,5.43,5.43,0,0,1-.38-.46,1.63,1.63,0,0,0-.34-.64c-.46.08-.75-.44-.75-.44a1.74,1.74,0,0,0-.77,0A3.24,3.24,0,0,1,1,17.37Z" fill="#e74c3c"/><path d="M4.57,26.2l-.68-.34a.92.92,0,0,0-.5-.44c0-.3-.18-.36-.31-.47l0-.71c.3.12.56-.18.82-.52-.06-.26.53-.23.92-.23A1.24,1.24,0,0,1,5.33,25a4.19,4.19,0,0,1,.51-.18l-.47.44,0,.25Z" fill="#e74c3c"/><path d="M4.57,26.2l-.68-.34a.92.92,0,0,0-.5-.44c0-.3-.18-.36-.31-.47l0-.71c.3.12.56-.18.82-.52-.06-.26.53-.23.92-.23A1.24,1.24,0,0,1,5.33,25a4.19,4.19,0,0,1,.51-.18l-.47.44,0,.25Z" fill="#e74c3c"/><path d="M36.21,48.14l.26.53c.09.1.2.19.19.36a7.27,7.27,0,0,0,.69.89.85.85,0,0,1,.45.28.72.72,0,0,0,.45.3,1,1,0,0,0,.4,1.1,1.18,1.18,0,0,1,.8.27,1.53,1.53,0,0,1,.83.24c.5-.17.73.11,1,.3a1.33,1.33,0,0,1,.58-.85,11.82,11.82,0,0,0,.62-1.21c.15-.25,0-.52,0-.78l0-.34a3.82,3.82,0,0,0,.2-2.13l-1.5-.58-.63,0,0-.21a1.65,1.65,0,0,0-1.37.28l0,.49a3.48,3.48,0,0,0-1.63,1.19l-.18.06-.15-.13Z" fill="#e74c3c"/><path d="M36.21,48.14l.26.53c.09.1.2.19.19.36a7.27,7.27,0,0,0,.69.89.85.85,0,0,1,.45.28.72.72,0,0,0,.45.3,1,1,0,0,0,.4,1.1,1.18,1.18,0,0,1,.8.27,1.53,1.53,0,0,1,.83.24c.5-.17.73.11,1,.3a1.33,1.33,0,0,1,.58-.85,11.82,11.82,0,0,0,.62-1.21c.15-.25,0-.52,0-.78l0-.34a3.82,3.82,0,0,0,.2-2.13l-1.5-.58-.63,0,0-.21a1.65,1.65,0,0,0-1.37.28l0,.49a3.48,3.48,0,0,0-1.63,1.19l-.18.06-.15-.13Z" fill="#e74c3c"/><path d="M52,22.15l-.3.47c-.3.43.51,1.08,1.18,1.7l2.57.83.83,0L53.81,28l-1,0a3.82,3.82,0,0,0-.87.6,7.74,7.74,0,0,1-.84.4,5.12,5.12,0,0,1-.72,1v3.32l.51.64,1.16-1.3,2-1.84.22,0,.82-.77,0-.15a5,5,0,0,0,1.15-1.2,6.15,6.15,0,0,1,.92-1.33l.77-2.22a1.69,1.69,0,0,0,.36-.56c0-.23.18-.32.29-.45L58.65,23c.25,0,.13-.46.14-.76-.1-.09-.2-.23,0-.34v-.28c-.18,0-.36-.19-.54-.05a1.42,1.42,0,0,1-.86.39c-.38,0-.68.25-.84.2a1,1,0,0,1-1,.16,1.14,1.14,0,0,1-1.37.35L53.6,23C52.71,23.28,52.48,22.56,52,22.15Z" fill="#e74c3c"/><path d="M52,22.15l-.3.47c-.3.43.51,1.08,1.18,1.7l2.57.83.83,0L53.81,28l-1,0a3.82,3.82,0,0,0-.87.6,7.74,7.74,0,0,1-.84.4,5.12,5.12,0,0,1-.72,1v3.32l.51.64,1.16-1.3,2-1.84.22,0,.82-.77,0-.15a5,5,0,0,0,1.15-1.2,6.15,6.15,0,0,1,.92-1.33l.77-2.22a1.69,1.69,0,0,0,.36-.56c0-.23.18-.32.29-.45L58.65,23c.25,0,.13-.46.14-.76-.1-.09-.2-.23,0-.34v-.28c-.18,0-.36-.19-.54-.05a1.42,1.42,0,0,1-.86.39c-.38,0-.68.25-.84.2a1,1,0,0,1-1,.16,1.14,1.14,0,0,1-1.37.35L53.6,23C52.71,23.28,52.48,22.56,52,22.15Z" fill="#e74c3c"/><path d="M36,13.26,36,15a4.11,4.11,0,0,1-.83,0v.55l.08,3.24-.93.05v.35l-.53.67,0,.48-.18.08c0,.3-.05.56-.18.64v.39l.39-.08a1.91,1.91,0,0,0,.46,1.22l0,.29-.17,0A5.8,5.8,0,0,1,35.09,24c-.33,1,.17.85.45,1,.11.15.15.34.65.28l.29.27c-.06.44.59.68,1,1l.36.7c.3.15.67.21.72.72.2.12.28.29.43.43s0,.13.07.19.54.19.59,0a1.47,1.47,0,0,0,.55.09c.14,0,.13-.15.28-.18l1,.9.18-.13a5.71,5.71,0,0,0,2.13,0l.85-.72,1.17,0v-.61l-.6-.21-.42-.92-.6-.51c.11-.16-.18-.33-.32-.49a.85.85,0,0,1-.61-.1l.16-.2v-.29H44c.11-.07.23-.1.31-.27l0-1.58.26-.39h.26l.13-.67c.31-.38.44-.88.94-1.15L46,19.75a9.17,9.17,0,0,1,.31-2.48c.13-.05.28,0,.38-.2l.58-.29a.66.66,0,0,0,.19-.44c-.08-.17-.19-.14-.29-.16-.17-.33-.45-.36-.7-.48l-.34-2.07-.27-.29c.07-.74-.81-.87-1.23-1.32l-.28.29-.23-.05-.11.47-.5.13,0,.38-.44,0L42.79,13Z" fill="#e74c3c"/><path d="M36,13.26,36,15a4.11,4.11,0,0,1-.83,0v.55l.08,3.24-.93.05v.35l-.53.67,0,.48-.18.08c0,.3-.05.56-.18.64v.39l.39-.08a1.91,1.91,0,0,0,.46,1.22l0,.29-.17,0A5.8,5.8,0,0,1,35.09,24c-.33,1,.17.85.45,1,.11.15.15.34.65.28l.29.27c-.06.44.59.68,1,1l.36.7c.3.15.67.21.72.72.2.12.28.29.43.43s0,.13.07.19.54.19.59,0a1.47,1.47,0,0,0,.55.09c.14,0,.13-.15.28-.18l1,.9.18-.13a5.71,5.71,0,0,0,2.13,0l.85-.72,1.17,0v-.61l-.6-.21-.42-.92-.6-.51c.11-.16-.18-.33-.32-.49a.85.85,0,0,1-.61-.1l.16-.2v-.29H44c.11-.07.23-.1.31-.27l0-1.58.26-.39h.26l.13-.67c.31-.38.44-.88.94-1.15L46,19.75a9.17,9.17,0,0,1,.31-2.48c.13-.05.28,0,.38-.2l.58-.29a.66.66,0,0,0,.19-.44c-.08-.17-.19-.14-.29-.16-.17-.33-.45-.36-.7-.48l-.34-2.07-.27-.29c.07-.74-.81-.87-1.23-1.32l-.28.29-.23-.05-.11.47-.5.13,0,.38-.44,0L42.79,13Z" fill="#e74c3c"/><path d="M28.73,57.46l1.39,2.79,0,.64c-.07.15-.19.16-.31.13s-.1.17,0,.24a6.21,6.21,0,0,0,.52.94,5.47,5.47,0,0,0,.66.51l.55,0c.11-.08,0-.19.42-.23h.81c.26-.1,0-.35.8-.29.14,0,.2.17.41.05a3.65,3.65,0,0,1,1.13.14c.11-.09.07-.24.7-.12l.06-.24h.73L41,58c.69-.29.84-1.12,1-1.92l-.55,0c0-.07-.52.31-.59.31-.28,0-.44-.06-.4-.55a1.16,1.16,0,0,1,.53-.73c.14-.09.28.25.41.16s0-1.56-.11-2.86c-.29-.18-.5-.48-1-.31a1.85,1.85,0,0,0-.82-.25l-3,2.39-.11.5a2.59,2.59,0,0,1-1,.19,1.53,1.53,0,0,0-.84-.33L34,55c0,.24-.19.27-.3.37a.59.59,0,0,0-.3.37,1.9,1.9,0,0,1-1.19-.07c.06-.3.25-.49.1-1l-.7-.78-.09,3.36a2.15,2.15,0,0,0-.64.43,3.66,3.66,0,0,0-1.14,0C29.64,57.39,29.3,56.78,28.73,57.46Z" fill="#e74c3c"/><path d="M28.73,57.46l1.39,2.79,0,.64c-.07.15-.19.16-.31.13s-.1.17,0,.24a6.21,6.21,0,0,0,.52.94,5.47,5.47,0,0,0,.66.51l.55,0c.11-.08,0-.19.42-.23h.81c.26-.1,0-.35.8-.29.14,0,.2.17.41.05a3.65,3.65,0,0,1,1.13.14c.11-.09.07-.24.7-.12l.06-.24h.73L41,58c.69-.29.84-1.12,1-1.92l-.55,0c0-.07-.52.31-.59.31-.28,0-.44-.06-.4-.55a1.16,1.16,0,0,1,.53-.73c.14-.09.28.25.41.16s0-1.56-.11-2.86c-.29-.18-.5-.48-1-.31a1.85,1.85,0,0,0-.82-.25l-3,2.39-.11.5a2.59,2.59,0,0,1-1,.19,1.53,1.53,0,0,0-.84-.33L34,55c0,.24-.19.27-.3.37a.59.59,0,0,0-.3.37,1.9,1.9,0,0,1-1.19-.07c.06-.3.25-.49.1-1l-.7-.78-.09,3.36a2.15,2.15,0,0,0-.64.43,3.66,3.66,0,0,0-1.14,0C29.64,57.39,29.3,56.78,28.73,57.46Z" fill="#e74c3c"/><path d="M41.42,55.31l0,.76c-.23.11-.4.23-.59.34s-.35-.06-.38-.23a.81.81,0,0,1,.13-.68c.11-.17.31-.37.44-.4s.17.09.23.18Z" fill="#e74c3c"/><path d="M41.42,55.31l0,.76c-.23.11-.4.23-.59.34s-.35-.06-.38-.23a.81.81,0,0,1,.13-.68c.11-.17.31-.37.44-.4s.17.09.23.18Z" fill="#e74c3c"/><path d="M43.86,32.89l-.31.47-2.38,0,.39.8c-.61.62-.22.74-.08,1-.27.5-.48,1.12-1,1.14-.14,0-.23,0-.26.17a4.74,4.74,0,0,0,.27,1.66c.16.36.44.6.6.91a2.18,2.18,0,0,1,.24.63l.33.37c.14,0,.29,0,.51.36l1,.33A1.76,1.76,0,0,0,44,41l.52,1.71,1,0a.34.34,0,0,1,.5.12,3.68,3.68,0,0,1,1.16-.1.75.75,0,0,1,.65-.26c.37.3,1.44-.31,1.89-.6a1.37,1.37,0,0,0-.5-.44,2,2,0,0,0-.16-.73c-.1-.15-.17-.3-.11-.41l-.23-.49.14,0a1.19,1.19,0,0,1,.19-1c-.15-.32-.68-.57-.65-.95l.45-1.26-1.18-.78-.2-.7Z" fill="#e74c3c"/><path d="M43.86,32.89l-.31.47-2.38,0,.39.8c-.61.62-.22.74-.08,1-.27.5-.48,1.12-1,1.14-.14,0-.23,0-.26.17a4.74,4.74,0,0,0,.27,1.66c.16.36.44.6.6.91a2.18,2.18,0,0,1,.24.63l.33.37c.14,0,.29,0,.51.36l1,.33A1.76,1.76,0,0,0,44,41l.52,1.71,1,0a.34.34,0,0,1,.5.12,3.68,3.68,0,0,1,1.16-.1.75.75,0,0,1,.65-.26c.37.3,1.44-.31,1.89-.6a1.37,1.37,0,0,0-.5-.44,2,2,0,0,0-.16-.73c-.1-.15-.17-.3-.11-.41l-.23-.49.14,0a1.19,1.19,0,0,1,.19-1c-.15-.32-.68-.57-.65-.95l.45-1.26-1.18-.78-.2-.7Z" fill="#e74c3c"/><path d="M15.54,27.22l.62-.18-.41-3.21c-.05-.24-.3-.35-.48-.5l.1-.52-.73-.09c-.14.27-.06.53.27.77a19.12,19.12,0,0,1,.32,3.19Z" fill="#e74c3c"/><path d="M15.54,27.22l.62-.18-.41-3.21c-.05-.24-.3-.35-.48-.5l.1-.52-.73-.09c-.14.27-.06.53.27.77a19.12,19.12,0,0,1,.32,3.19Z" fill="#e74c3c"/><path d="M24,.1c-.16,0-.77-.31-1.11.19a.48.48,0,0,0-.27.38c0,.41-.06,1.68-.06,1.68s-.35,0-.4.19-.38.21-.41.35.2.55.49.81c.08.07,0,.43,0,.5a2.23,2.23,0,0,0,.63.34,11.73,11.73,0,0,0,.26,1.58c.06,0,.71-.19.49-1.1,0-.11,1.34-.55,1.09-1.4,0-.09-.25,0-.28-.14C24.4,3.1,24.41,3,24.27,3s-.35.25-.41.21-.29-.26-.22-.35,1-.7,1-1-.15-.49-.37-.6-.08-.28,0-.4.49-.23.44-.4S24.57.29,24.54.2s-.37.3-.4.25A1.76,1.76,0,0,0,24,.1Z" fill="#e74c3c"/><path d="M24,.1c-.16,0-.77-.31-1.11.19a.48.48,0,0,0-.27.38c0,.41-.06,1.68-.06,1.68s-.35,0-.4.19-.38.21-.41.35.2.55.49.81c.08.07,0,.43,0,.5a2.23,2.23,0,0,0,.63.34,11.73,11.73,0,0,0,.26,1.58c.06,0,.71-.19.49-1.1,0-.11,1.34-.55,1.09-1.4,0-.09-.25,0-.28-.14C24.4,3.1,24.41,3,24.27,3s-.35.25-.41.21-.29-.26-.22-.35,1-.7,1-1-.15-.49-.37-.6-.08-.28,0-.4.49-.23.44-.4S24.57.29,24.54.2s-.37.3-.4.25A1.76,1.76,0,0,0,24,.1Z" fill="#e74c3c"/><path d="M35.22,15.49l-6.73-3.32-.89.27a11,11,0,0,1,0,1.26,1.07,1.07,0,0,0,.79,1l-.2.49-.29,2.6L26.52,19.3a.51.51,0,0,0-.06.26.3.3,0,0,1-.16.17c-.1.06,0,.16-.06.24-.08.55,1.06,1.36,1.06,1.36.06.25.15.47.19.73s-.09.62-.05.87.45.39.4.93l-.9-.08c-.26.52-.08.86.56,1l.42,1.27A7.63,7.63,0,0,0,30,25.58l.81-.08c.15-.26.47-.39.36-.83l1.12-.12c.09-.08.13-.21.27-.24s.28-.15.34-.3.36-.33.56-.48c0-.8.64-.57,1-.72l0-.28a1.78,1.78,0,0,1-.46-1.22l-.39.07V21a.93.93,0,0,0,.18-.65l.18-.09,0-.46.54-.69,0-.34.93,0Z" fill="#e74c3c"/><path d="M35.22,15.49l-6.73-3.32-.89.27a11,11,0,0,1,0,1.26,1.07,1.07,0,0,0,.79,1l-.2.49-.29,2.6L26.52,19.3a.51.51,0,0,0-.06.26.3.3,0,0,1-.16.17c-.1.06,0,.16-.06.24-.08.55,1.06,1.36,1.06,1.36.06.25.15.47.19.73s-.09.62-.05.87.45.39.4.93l-.9-.08c-.26.52-.08.86.56,1l.42,1.27A7.63,7.63,0,0,0,30,25.58l.81-.08c.15-.26.47-.39.36-.83l1.12-.12c.09-.08.13-.21.27-.24s.28-.15.34-.3.36-.33.56-.48c0-.8.64-.57,1-.72l0-.28a1.78,1.78,0,0,1-.46-1.22l-.39.07V21a.93.93,0,0,0,.18-.65l.18-.09,0-.46.54-.69,0-.34.93,0Z" fill="#e74c3c"/><path d="M41.49,29.32l.17-.13a5.5,5.5,0,0,0,2.12,0l.43-.35a1,1,0,0,1,.46.9l.41.33v1l-1.54,2.31-2.39,0-.37.3h-.14l-.08-.11.05-1.43.54-.81.86-.77-.52-.33Z" fill="#e74c3c"/><path d="M41.49,29.32l.17-.13a5.5,5.5,0,0,0,2.12,0l.43-.35a1,1,0,0,1,.46.9l.41.33v1l-1.54,2.31-2.39,0-.37.3h-.14l-.08-.11.05-1.43.54-.81.86-.77-.52-.33Z" fill="#e74c3c"/><path d="M4.4,13.17c.11-.76-.37-1.83,1.11-1.86L5.82,9l2.63.23.2-1.55L5.13,7.43c-.33.5-.52.93-1,1.12s-.65.76-.78,1.26L2,11.4a1.11,1.11,0,0,1-.54.79A2.29,2.29,0,0,0,1,13.29L1.32,13Z" fill="#e74c3c"/><path d="M4.4,13.17c.11-.76-.37-1.83,1.11-1.86L5.82,9l2.63.23.2-1.55L5.13,7.43c-.33.5-.52.93-1,1.12s-.65.76-.78,1.26L2,11.4a1.11,1.11,0,0,1-.54.79A2.29,2.29,0,0,0,1,13.29L1.32,13Z" fill="#e74c3c"/><path d="M27.92,26.05l-.8,1.31.11.95a6.37,6.37,0,0,0,1.26,1.78,1.89,1.89,0,0,1,1.12-.81l.57.25.63-.18A1.23,1.23,0,0,0,31,28.6a2.29,2.29,0,0,1,.69-.71c.18.14.49,0,.51.44.21.23.4.37.55.16.18.26.92.18,1.43.23a2.26,2.26,0,0,1,.19-.41.62.62,0,0,1,.59.1L36,28l.07.16.43-.07v-.16l1-.08.21.27.1-.15.16.12.14-.16.45,0c-.09-.25-.05-.55-.73-.71l-.35-.71c-.35-.33-1-.49-1-1l-.27-.26c-.23,0-.42.11-.68-.3-.41-.06-.68-.13-.42-1a5.18,5.18,0,0,0-.81-1.13c-.58.11-.82.08-.84.69-.19.15-.46.22-.54.46s-.13.3-.39.33a1.45,1.45,0,0,0-.26.24l-1.11.12a.57.57,0,0,1-.2.63c-.06.06-.11.14-.17.2l-.8.07A7.7,7.7,0,0,1,27.92,26.05Z" fill="#e74c3c"/><path d="M27.92,26.05l-.8,1.31.11.95a6.37,6.37,0,0,0,1.26,1.78,1.89,1.89,0,0,1,1.12-.81l.57.25.63-.18A1.23,1.23,0,0,0,31,28.6a2.29,2.29,0,0,1,.69-.71c.18.14.49,0,.51.44.21.23.4.37.55.16.18.26.92.18,1.43.23a2.26,2.26,0,0,1,.19-.41.62.62,0,0,1,.59.1L36,28l.07.16.43-.07v-.16l1-.08.21.27.1-.15.16.12.14-.16.45,0c-.09-.25-.05-.55-.73-.71l-.35-.71c-.35-.33-1-.49-1-1l-.27-.26c-.23,0-.42.11-.68-.3-.41-.06-.68-.13-.42-1a5.18,5.18,0,0,0-.81-1.13c-.58.11-.82.08-.84.69-.19.15-.46.22-.54.46s-.13.3-.39.33a1.45,1.45,0,0,0-.26.24l-1.11.12a.57.57,0,0,1-.2.63c-.06.06-.11.14-.17.2l-.8.07A7.7,7.7,0,0,1,27.92,26.05Z" fill="#e74c3c"/><path d="M38.62,58.92a1,1,0,0,0-.25.06.44.44,0,0,0-.15.09.27.27,0,0,0-.06.13s-.11.11-.15.12a.81.81,0,0,1-.18,0,.24.24,0,0,1-.23-.11,3.63,3.63,0,0,1-.25-.31,1.07,1.07,0,0,1-.12-.22.66.66,0,0,1,0-.21.23.23,0,0,1,.12-.21h0c.09,0,.11-.15.18-.21s.17-.14.25-.21a.93.93,0,0,1,.18-.11,1.23,1.23,0,0,1,.26-.09l.21-.06h.07a.25.25,0,0,1,.23.08l.19.24s0,.14.06.19a1.61,1.61,0,0,1,.11.21.33.33,0,0,1,0,.24.75.75,0,0,1-.17.2l-.17.14Z" fill="#e74c3c"/><path d="M38.62,58.92a1,1,0,0,0-.25.06.44.44,0,0,0-.15.09.27.27,0,0,0-.06.13s-.11.11-.15.12a.81.81,0,0,1-.18,0,.24.24,0,0,1-.23-.11,3.63,3.63,0,0,1-.25-.31,1.07,1.07,0,0,1-.12-.22.66.66,0,0,1,0-.21.23.23,0,0,1,.12-.21h0c.09,0,.11-.15.18-.21s.17-.14.25-.21a.93.93,0,0,1,.18-.11,1.23,1.23,0,0,1,.26-.09l.21-.06h.07a.25.25,0,0,1,.23.08l.19.24s0,.14.06.19a1.61,1.61,0,0,1,.11.21.33.33,0,0,1,0,.24.75.75,0,0,1-.17.2l-.17.14Z" fill="#e74c3c"/><path d="M134.94,37.12h-5.81V34.68a8.09,8.09,0,0,1-6.6,3c-6.08,0-10.68-5-10.68-11.61s4.6-11.61,10.68-11.61a8.08,8.08,0,0,1,6.6,3V15h5.81Zm-17-11c0,3.37,2.21,6.08,5.69,6.08s5.69-2.6,5.69-6.08S127,20,123.62,20,117.93,22.7,117.93,26.07Z" fill="#282828"/><path d="M173.37,26.07c0,6.63-4.6,11.61-10.68,11.61a8.07,8.07,0,0,1-6.49-2.87V46.23h-5.92V15h5.81v2.44a8,8,0,0,1,6.58-3C168.77,14.46,173.37,19.44,173.37,26.07Zm-17.47,0c0,3.48,2.3,6.08,5.67,6.08s5.69-2.71,5.69-6.08S165.08,20,161.57,20,155.9,22.59,155.9,26.07Z" fill="#282828"/><path d="M210.42,26.07c0,6.63-4.6,11.61-10.68,11.61a8.07,8.07,0,0,1-6.49-2.87V46.23h-5.92V15h5.81v2.44a8,8,0,0,1,6.58-3C205.82,14.46,210.42,19.44,210.42,26.07Zm-17.47,0c0,3.48,2.3,6.08,5.67,6.08s5.69-2.71,5.69-6.08S202.13,20,198.62,20,193,22.59,193,26.07Z" fill="#282828"/><path d="M41.48,17.51V15h5.83V35.29c0,7.08-4.62,11.36-11.91,11.36A17.44,17.44,0,0,1,25.74,44l2.12-4.85a13,13,0,0,0,7.29,2.25c3.69,0,6.29-2,6.29-5.85V34a8.33,8.33,0,0,1-6.79,3c-5.38,0-10.16-4.49-10.16-11.25s4.78-11.27,10.16-11.27A8.36,8.36,0,0,1,41.48,17.51ZM30.59,25.73a5.55,5.55,0,1,0,11.09,0,5.55,5.55,0,1,0-11.09,0Z" fill="#fff"/><line x1="41.15" y1="25.83" x2="123.63" y2="25.83" fill="none" stroke="#e74c3c" stroke-miterlimit="10" stroke-width="5"/><circle cx="123.14" cy="26.05" r="6.59" fill="#e74c3c"/></svg>