<svg xmlns="http://www.w3.org/2000/svg" viewBox="0 0 210.42 63.26"><defs><style>.cls-1{fill:#e74c3c;}.cls-2{fill:#282828;}.cls-3{fill:#fff;}.cls-4{fill:none;stroke:#e74c3c;stroke-miterlimit:10;stroke-width:6.55px;}</style></defs><title>Header</title><g id="Layer_2" data-name="Layer 2"><g id="Design"><g id="g236"><circle class="cls-1" cx="20.6" cy="32.51" r="0.45"/><circle class="cls-1" cx="21.22" cy="31.3" r="0.12"/><path class="cls-1" d="M21.22,30.88a.42.42,0,1,0,.42.42A.42.42,0,0,0,21.22,30.88Zm0,.6a.18.18,0,1,1,.18-.18A.18.18,0,0,1,21.22,31.48Z"/><path class="cls-1" d="M59.36,22.71c0-.08,0-.16,0-.24l0-.17h0v-.78l-.32,0-.09,0a.6.6,0,0,0-.64.06,1.12,1.12,0,0,1-.67.31,2.19,2.19,0,0,0-.57.14c-.07,0-.16.06-.15.07L56.75,22l-.13.11a.72.72,0,0,1-.72.1l-.16,0-.23.21c-.21.2-.35.34-1,.18l-.13,0-.64.46c-.42.1-.6-.09-.9-.46l-.15-.17v0l-.11-.09-.09-.09,0,0,.05-.1a.9.9,0,0,0-.37-1,.73.73,0,0,0-.5-.41.68.68,0,0,0-.3-.32A.58.58,0,0,0,51,20a1.78,1.78,0,0,0-.44-.5l-.14-.13-.14-.11-.16,0a.69.69,0,0,1-.12-.14l-.07-.09L49.55,19l0-.1,0-.17L49,18.61l-.31-.45a3.37,3.37,0,0,0-.65-1.6L48,16.44l0-.05,0-.05L47.68,16l-.07.16a1.23,1.23,0,0,0-.57-.39h0l-.33-2-.25-.26c0-.59-.5-.88-.86-1.09a2.48,2.48,0,0,1-.42-.29l0-.24.69,0-1.17-1L43.2,8.5h0l.16-.05A.52.52,0,0,0,43.79,8L44,6.68l-1-2.1-.29.2c-.57.4-.92.4-1.31,0l-.1-.1-.83.06-.16.05h0l-.09-.17-1.28.75L37,5a1.93,1.93,0,0,0-.74-.07l-.1,0a.1.1,0,0,1-.11,0c-.14-.41-.75-.43-1.1-.44h-.13a1.66,1.66,0,0,1-.38,0h0l.06-.26-.25-.09C34,4,32.89,3.64,32.35,4L32.22,4c-.3.17-.71.4-.82.76a.88.88,0,0,0,.13.76.63.63,0,0,1-.3.5c-.15.08-.32,0-.51-.23l-.06-.07-.09,0s-1.07-.29-1.67-.43a.8.8,0,0,1-.57-.4s0-.06,0-.07l.1-.13,0-.15c-.06-.19-.06-.19-1.79-.69l-.06,0h-.07a1.68,1.68,0,0,1-1.15-.15.31.31,0,0,0-.08-.09L25,3.42A.54.54,0,0,0,24.71,3l-.07,0c.37-.3.62-.55.63-.82a.78.78,0,0,0-.44-.83h0l0,0c.19-.11.54-.31.43-.65a.48.48,0,0,0-.13-.21l0-.16L25,.2a.36.36,0,0,0-.34.08l0-.06L24.5.09h-.17l-.09,0A1.13,1.13,0,0,0,23.06.3,1.16,1.16,0,0,1,22.6.21a.59.59,0,0,0-.56,0L22,.23l-.06,0a.78.78,0,0,0-.34-.12,1.61,1.61,0,0,0-.47.08,1.45,1.45,0,0,1-.68.08,3.72,3.72,0,0,0-1.34.08,9.9,9.9,0,0,1-1.46.16h0A1.45,1.45,0,0,0,16.43,1a1.17,1.17,0,0,1-.3,0c-.36-.11-.58.23-.69.39l-.06.08a.36.36,0,0,1-.28.11h0l-.16,0-.22,0-.07-.1-.12,0a3.7,3.7,0,0,0-1-.06c-.33,0-.44,0-.63-.44L12.82.71h-.18c-.57,0-1,.62-1.38,1.26L11,2.28A4.21,4.21,0,0,0,9,3.56l-.09.12,0,.15A1,1,0,0,1,8.76,4,2,2,0,0,0,8.14,5.6a1.43,1.43,0,0,1-.89,1l-.07,0a2.52,2.52,0,0,1-.84.47l-.28.07a2.73,2.73,0,0,0-.67.2H5.33l-.05.08,0,0L4.73,8H5a1.28,1.28,0,0,1-.59.56,1.92,1.92,0,0,0-.94,1.39L2,11.54v.09a.81.81,0,0,1-.41.58l-.07.07A2.58,2.58,0,0,0,1,13.54l-.08.78L1.34,14l.1.32.13,0a.48.48,0,0,1-.15.44,1.35,1.35,0,0,0-.13.18L1.2,15l.28.44,0,1.09-.35,1,0,.08a1.26,1.26,0,0,0-.24.65.36.36,0,0,1,0,.12h0a1,1,0,0,1-.3.34,2.08,2.08,0,0,0-.37.39L0,19.26l.18.26a2.1,2.1,0,0,1,.39.76l-.07.17h0l0,.21-.16.4H.35s0,0,0,.07H.24l.12.33h0l.05.27h0l0,0,.08.05a.46.46,0,0,0,.2.07v.17l.17.09a.48.48,0,0,0,.18.05l0,.1.12.06a.32.32,0,0,0,.19,0v0l0,.14.29.32a.34.34,0,0,0,.06.2.35.35,0,0,0,.19.13l0,0v0h.18a.78.78,0,0,0,.45.58s.11.1.16.17l.1.12.21.4,0,.79.1.08.09.07c.11.08.11.08.1.15v.2l.17.09c.18.09.32.17.35.27l0,.11.77.39,2.57,2.1L8,29v.07l.27,0,.32.12v-.09h.08l2.62-.74.85.1,1.07.39.11,0a6.47,6.47,0,0,0,.75-.36A4,4,0,0,1,15.51,28a.44.44,0,0,0,.29,0,.48.48,0,0,0,.28-.27l.43-.13.74-.1h1.23a1,1,0,0,1,.72.66A1.45,1.45,0,0,0,20,29.22a1,1,0,0,0,.35.06,1.58,1.58,0,0,0,.76-.23,2.81,2.81,0,0,0,.87.11h.24l0-.1.08,0a.76.76,0,0,0,.52.48l.34.44-.11.82-.5,1,.29.19-.06.29h-.07l-.13.74-.42.4.44,1.13,1.56,1.64.69.89-.06,0,.29.26v0a.44.44,0,0,1,0,.08.65.65,0,0,0,.1.42l0,.07h0l.08.22.09.36,0,0c.08.16.16.32.24.47a2.74,2.74,0,0,1,.45,1.38l-.22.21.09.29a2.84,2.84,0,0,0,.58,1.23v0a.86.86,0,0,0,0,.17,7.73,7.73,0,0,1-.2,1.08.78.78,0,0,0-.54.57h0a.73.73,0,0,0-.24.31,14.54,14.54,0,0,0-.53,2,.36.36,0,0,0-.16.25,1.91,1.91,0,0,0,0,.43V47l-.08.06,0,.14a1.15,1.15,0,0,0,0,.39v.14l-.15.47.19,0a1.64,1.64,0,0,0,.55,1.12l1.76,3.13,0,1.42.33.75c0,.05,0,.1,0,.16a1.19,1.19,0,0,0,.1.68l.23,1.3,1,1.13,1.34,2.7v.39l-.14,0-.11.16a.5.5,0,0,0-.1.39.41.41,0,0,0,.13.22l.13.27a3,3,0,0,0,.39.67,2,2,0,0,0,.45.37,2.3,2.3,0,0,1,.24.18l.08.07.76.06L32,63.2c.09-.06.13-.14.12-.15l.13,0h.81l.11,0a.41.41,0,0,0,.27-.26,1,1,0,0,1,.39,0,.54.54,0,0,0,.52,0,2,2,0,0,1,.63.08l.36.07.13,0,.1-.08a.21.21,0,0,0,.08-.09,1,1,0,0,1,.37,0l.28.05.08-.29H37l4.39-4.08c.74-.34.94-1.18,1.12-1.93l0-.11.3-1,1.46-.58.07,0a2.18,2.18,0,0,0,.51-.6l.29-.44-.31-.11.37-1.4L45,52.17,44.84,51l-.12-.07c-.14-.09-.14-.16-.14-.18a.34.34,0,0,1,.17-.25l.79-.67.11.24.8-.88h.08l.09-.27,1.15-.57h.36l.08-.06.18-.14a2.36,2.36,0,0,1,.58-.38l.21-.09,0-.25.34-.27.09-.1.06-.07h.24l.06-.63,0,0,.11-.17.12-.41-.06-.23L50,45.31l0-.79v-.14h0l0,0,0-1,.31-.53,0-.09v-.07a2.09,2.09,0,0,0,0-.35l.05,0-.09-.17s0,0,0,0l-.12-.34-.1.06a1.89,1.89,0,0,0-.28-.22,2.7,2.7,0,0,0-.15-.6l-.05-.13a.93.93,0,0,1-.08-.14l.05-.09-.15-.33.05,0,0-.24c0-.39,0-.6.11-.73l.14-.15L49.61,39a1.65,1.65,0,0,0-.35-.44A.94.94,0,0,1,49,38.2L49.41,37a6.71,6.71,0,0,0,.71-1.22l.25-.51a1,1,0,0,0,.53-.53,1,1,0,0,0,.53-.45v0l1.09-1.23,1.88-1.77.22,0,1-.9,0-.14A5,5,0,0,0,56.77,29a5.76,5.76,0,0,1,.87-1.26l.8-2.25a2,2,0,0,0,.37-.6l0-.07c0-.08,0-.11.12-.2l.1-.11.06-.07.08-1,0,0A.85.85,0,0,0,59.36,22.71Z"/></g><path class="cls-2" d="M135.07,37.35h-5.8V34.92a8.08,8.08,0,0,1-6.59,3c-6.07,0-10.66-5-10.66-11.59s4.59-11.59,10.66-11.59a8.06,8.06,0,0,1,6.59,3V15.32h5.8Zm-17-11c0,3.36,2.2,6.07,5.68,6.07s5.68-2.59,5.68-6.07-2.3-6.07-5.68-6.07S118.09,23,118.09,26.32Z"/><path class="cls-2" d="M173.43,26.32c0,6.62-4.59,11.59-10.66,11.59a8.05,8.05,0,0,1-6.48-2.86V46.44h-5.91V15.32h5.8v2.43a8,8,0,0,1,6.57-3C168.84,14.73,173.43,19.71,173.43,26.32Zm-17.44,0c0,3.48,2.3,6.07,5.66,6.07s5.68-2.71,5.68-6.07-2.18-6.07-5.68-6.07S156,22.85,156,26.32Z"/><path class="cls-2" d="M210.42,26.32c0,6.62-4.59,11.59-10.66,11.59a8.06,8.06,0,0,1-6.48-2.86V46.44h-5.91V15.32h5.8v2.43a8,8,0,0,1,6.57-3C205.82,14.73,210.42,19.71,210.42,26.32Zm-17.44,0c0,3.48,2.3,6.07,5.66,6.07s5.68-2.71,5.68-6.07-2.18-6.07-5.68-6.07S193,22.85,193,26.32Z"/><path class="cls-3" d="M41.77,17.78V15.32h5.82V35.53c0,7.07-4.62,11.34-11.89,11.34a17.41,17.41,0,0,1-9.64-2.66l2.12-4.84a13,13,0,0,0,7.27,2.25c3.68,0,6.28-2,6.28-5.84V34.23a8.31,8.31,0,0,1-6.77,3c-5.37,0-10.14-4.48-10.14-11.23S29.59,14.73,35,14.73A8.35,8.35,0,0,1,41.77,17.78ZM30.9,26A5.54,5.54,0,1,0,42,26,5.54,5.54,0,1,0,30.9,26Z"/><line class="cls-4" x1="41.45" y1="26.08" x2="123.78" y2="26.08"/><circle class="cls-1" cx="123.29" cy="26.3" r="6.58"/></g></g></svg>