<svg xmlns="http://www.w3.org/2000/svg" viewBox="0 0 350.47 105.37"><defs><style>.cls-1{fill:#e74c3c;}.cls-2{fill:#fff;}.cls-3{fill:none;stroke:#e74c3c;stroke-miterlimit:10;stroke-width:6.55px;}</style></defs><title>Home</title><g id="Layer_2" data-name="Layer 2"><g id="Design"><g id="g236"><circle class="cls-1" cx="34.31" cy="54.15" r="0.75"/><circle class="cls-1" cx="35.34" cy="52.14" r="0.2"/><path class="cls-1" d="M35.34,51.44a.7.7,0,1,0,.7.7A.7.7,0,0,0,35.34,51.44Zm0,1a.3.3,0,1,1,.3-.3A.3.3,0,0,1,35.34,52.44Z"/><path class="cls-1" d="M98.87,37.83c0-.14,0-.27,0-.39l0-.28,0,0V35.84l-.54,0-.14,0a1,1,0,0,0-1.07.1,1.87,1.87,0,0,1-1.12.51,3.65,3.65,0,0,0-1,.24c-.11,0-.26.09-.24.11l-.26-.09-.21.18a1.19,1.19,0,0,1-1.21.17L92.84,37l-.38.35c-.34.33-.59.57-1.65.3l-.22-.06-1.07.77c-.71.16-1-.16-1.5-.76l-.26-.28,0,0-.18-.15c0-.05-.09-.11-.14-.16l-.06-.06.08-.17A1.49,1.49,0,0,0,86.86,35,1.21,1.21,0,0,0,86,34.3a1.13,1.13,0,0,0-.5-.54,1,1,0,0,0-.57-.43,3,3,0,0,0-.74-.84L84,32.29l-.24-.18-.26.06a1.16,1.16,0,0,1-.21-.24l-.12-.16-.62-.12,0-.17-.07-.29-.74-.2-.51-.74a5.62,5.62,0,0,0-1.09-2.66l-.16-.21-.06-.09-.06-.09-.39-.56-.11.26a2,2,0,0,0-.95-.65l0,0-.55-3.33-.41-.44c0-1-.84-1.46-1.44-1.81a4.13,4.13,0,0,1-.7-.48l-.08-.4,1.15,0-1.95-1.73L72,14.16h0l.26-.09a.87.87,0,0,0,.72-.73l.33-2.22-1.72-3.5L71.07,8c-.95.67-1.54.67-2.17,0l-.16-.17-1.38.11L67.09,8l0,0-.16-.29L64.76,9l-3.18-.71a3.21,3.21,0,0,0-1.23-.12l-.17.07a.16.16,0,0,1-.19,0c-.23-.68-1.26-.72-1.84-.74h-.21a2.77,2.77,0,0,1-.64-.08h0l.1-.43L57,6.8c-.36-.13-2.19-.74-3.09-.19l-.22.13c-.5.28-1.19.67-1.37,1.27a1.47,1.47,0,0,0,.22,1.27,1,1,0,0,1-.49.83c-.24.13-.53,0-.84-.39l-.1-.12-.15,0c-.07,0-1.78-.49-2.78-.71a1.33,1.33,0,0,1-1-.67c0-.08,0-.1,0-.11l.17-.21-.08-.25c-.1-.31-.1-.32-3-1.15l-.11,0-.11,0a2.79,2.79,0,0,1-1.91-.25A.51.51,0,0,0,42,6.05l-.33-.36a.9.9,0,0,0-.55-.75l-.12,0c.62-.5,1-.91,1-1.37a1.31,1.31,0,0,0-.74-1.38h0l.06,0c.31-.18.89-.51.71-1.08A.79.79,0,0,0,41.9.69L41.82.42,41.56.34A.6.6,0,0,0,41,.47L40.93.38,40.81.14h-.28l-.16,0a1.88,1.88,0,0,0-2,.38,1.93,1.93,0,0,1-.76-.16,1,1,0,0,0-.94,0L36.6.38,36.5.33a1.29,1.29,0,0,0-.57-.19,2.68,2.68,0,0,0-.79.13A2.41,2.41,0,0,1,34,.4a6.19,6.19,0,0,0-2.23.14A16.49,16.49,0,0,1,29.36.8h0a2.41,2.41,0,0,0-2,.88,1.94,1.94,0,0,1-.5-.08c-.59-.19-1,.38-1.15.66l-.09.14a.6.6,0,0,1-.47.19h-.05l-.26,0-.36,0-.12-.17-.21,0a6.16,6.16,0,0,0-1.63-.1c-.54.06-.74,0-1-.73l-.12-.28-.3,0c-1-.06-1.63,1-2.3,2.1l-.35.54a7,7,0,0,0-3.47,2.13l-.14.2.07.25a1.69,1.69,0,0,1-.27.2,3.36,3.36,0,0,0-1,2.74A2.38,2.38,0,0,1,12.08,11l-.12.08a4.2,4.2,0,0,1-1.4.78c-.12,0-.29.07-.47.11A4.55,4.55,0,0,0,9,12.34h-.1l-.09.14-.05,0-.85.79.36,0a2.13,2.13,0,0,1-1,.94A3.19,3.19,0,0,0,5.7,16.56L3.37,19.23l0,.15a1.35,1.35,0,0,1-.68,1l-.12.11a4.3,4.3,0,0,0-.84,2.1l-.14,1.3.66-.59.17.53.22-.07a.8.8,0,0,1-.26.73,2.25,2.25,0,0,0-.22.31L2,25l.46.74L2.4,27.57l-.58,1.6-.08.13a2.11,2.11,0,0,0-.4,1.09.59.59,0,0,1,0,.2h0a1.59,1.59,0,0,1-.5.56,3.47,3.47,0,0,0-.62.64L0,32.08l.3.43a3.5,3.5,0,0,1,.65,1.27l-.11.28H.77l-.08.35-.26.67H.58s0,.08,0,.12H.4l.2.55h0l.08.45H.76l0,.07.13.09a.77.77,0,0,0,.34.12v.28l.28.15a.79.79,0,0,0,.3.08l0,.16.19.1a.54.54,0,0,0,.32.06v.06l0,.23.49.54a.57.57,0,0,0,.11.33.59.59,0,0,0,.32.22l0,0v0h.11l0,0h0l.16,0a1.3,1.3,0,0,0,.75,1c.08,0,.19.17.27.28l.16.2.36.66.08,1.31.17.14.16.12c.18.13.18.13.17.25l0,.33L6,43.2c.3.16.53.29.59.45l.07.19L8,44.49,12.23,48l1,.38v.12l.45,0,.53.19v-.14h.13l4.37-1.24,1.42.16,1.78.65.18-.07a10.78,10.78,0,0,0,1.25-.61,6.63,6.63,0,0,1,2.45-.89.73.73,0,0,0,.48,0,.8.8,0,0,0,.47-.46L27.5,46l1.23-.16h2.06a1.74,1.74,0,0,1,1.2,1.1,2.41,2.41,0,0,0,1.3,1.77,1.6,1.6,0,0,0,.58.11,2.63,2.63,0,0,0,1.26-.39,4.68,4.68,0,0,0,1.44.18H37l0-.17.13,0a1.27,1.27,0,0,0,.86.79l.56.73-.18,1.37-.83,1.6.48.32-.11.49-.11,0-.22,1.24-.69.67.74,1.89,2.6,2.74,1.15,1.49-.1.06.48.43,0,0a.73.73,0,0,1,0,.14,1.08,1.08,0,0,0,.17.7l0,.12h0l.13.37.15.59.08,0c.13.27.26.53.39.78a4.56,4.56,0,0,1,.74,2.3l-.37.36.14.49a4.73,4.73,0,0,0,1,2.05v0a1.43,1.43,0,0,0-.06.29,12.87,12.87,0,0,1-.33,1.8,1.3,1.3,0,0,0-.9,1h0l0,0a1.21,1.21,0,0,0-.4.52A24.21,24.21,0,0,0,41.6,77a.6.6,0,0,0-.27.41,3.18,3.18,0,0,0,0,.72v.09l-.14.1,0,.23a1.92,1.92,0,0,0,0,.65v.24l-.25.79.31-.08A2.73,2.73,0,0,0,42.17,82l2.93,5.21.07,2.36.55,1.25c0,.09,0,.17,0,.26a2,2,0,0,0,.17,1.13l.39,2.17L48,96.32l2.23,4.49,0,.65-.24,0-.19.26a.83.83,0,0,0-.17.64.69.69,0,0,0,.21.37c.08.14.15.29.22.44a5.07,5.07,0,0,0,.65,1.11,3.28,3.28,0,0,0,.74.61,3.83,3.83,0,0,1,.41.3l.13.11,1.26.1.15-.1c.15-.1.22-.23.19-.24a.83.83,0,0,1,.22,0h1.34l.18,0a.69.69,0,0,0,.45-.43,1.61,1.61,0,0,1,.66,0,.89.89,0,0,0,.87.06,3.31,3.31,0,0,1,1.06.13l.6.12.22,0,.17-.14a.36.36,0,0,0,.13-.16,1.68,1.68,0,0,1,.62.06l.46.09.13-.48,1,0L69,97.42c1.23-.57,1.57-2,1.86-3.21l0-.18.49-1.71,2.43-1,.11-.06a3.63,3.63,0,0,0,.85-1l.48-.73-.52-.18L75.4,87,75,86.89,74.69,85l-.2-.12c-.23-.14-.23-.26-.23-.3a.57.57,0,0,1,.28-.41L75.85,83l.19.39L77.37,82l.13,0,.16-.46,1.92-.95h.61l.14-.1.29-.23a3.93,3.93,0,0,1,1-.63l.34-.15L81.88,79l.57-.44.15-.17.11-.12.4,0,.09-1.06,0,0,.19-.28.2-.68-.1-.39-.22-.39.08-1.32v-.24h0l0-.05,0-1.67.52-.87.06-.15V71a3.47,3.47,0,0,0,0-.58L84,70.4l-.16-.29s0,0,0-.06l-.21-.57-.17.1a3.14,3.14,0,0,0-.46-.36,4.5,4.5,0,0,0-.25-1L82.61,68a1.55,1.55,0,0,1-.13-.23l.09-.16-.25-.54.08,0,0-.4c-.07-.66,0-1,.18-1.21l.24-.25-.15-.31a2.74,2.74,0,0,0-.59-.73,1.56,1.56,0,0,1-.43-.55l.69-1.94a11.18,11.18,0,0,0,1.18-2c.14-.29.28-.57.42-.85a1.64,1.64,0,0,0,.88-.88,1.6,1.6,0,0,0,.88-.76l0,0,1.82-2,3.13-3,.37,0,1.59-1.51,0-.23a8.35,8.35,0,0,0,1.9-2A9.59,9.59,0,0,1,96,46.21l1.34-3.75a3.4,3.4,0,0,0,.61-1l0-.12c0-.13.07-.19.2-.33l.16-.18.1-.12L98.6,39l0,0A1.41,1.41,0,0,0,98.87,37.83Z"/></g><path class="cls-2" d="M225,62.21h-9.66V58.16a13.46,13.46,0,0,1-11,5c-10.11,0-17.76-8.29-17.76-19.31s7.65-19.31,17.76-19.31a13.43,13.43,0,0,1,11,5V25.52H225ZM196.68,43.84c0,5.6,3.67,10.11,9.47,10.11,5.64,0,9.47-4.32,9.47-10.11s-3.82-10.11-9.47-10.11C200.35,33.73,196.68,38.24,196.68,43.84Z"/><path class="cls-2" d="M288.87,43.84c0,11-7.65,19.31-17.76,19.31a13.42,13.42,0,0,1-10.79-4.77v19h-9.85V25.52h9.66v4.05a13.31,13.31,0,0,1,10.94-5C281.22,24.53,288.87,32.83,288.87,43.84Zm-29,0c0,5.79,3.83,10.11,9.43,10.11,5.83,0,9.47-4.51,9.47-10.11s-3.64-10.11-9.47-10.11C263.66,33.73,259.83,38.05,259.83,43.84Z"/><path class="cls-2" d="M350.47,43.84c0,11-7.65,19.31-17.76,19.31a13.42,13.42,0,0,1-10.79-4.77v19h-9.84V25.52h9.66v4.05a13.3,13.3,0,0,1,10.94-5C342.82,24.53,350.47,32.83,350.47,43.84Zm-29,0c0,5.79,3.83,10.11,9.43,10.11,5.83,0,9.47-4.51,9.47-10.11s-3.64-10.11-9.47-10.11C325.25,33.73,321.43,38.05,321.43,43.84Z"/><path class="cls-2" d="M69.57,29.61V25.52h9.69V59.18c0,11.78-7.69,18.89-19.8,18.89-5.79,0-11.93-1.52-16.06-4.43l3.52-8.07A21.68,21.68,0,0,0,59,69.33c6.13,0,10.45-3.41,10.45-9.73V57c-2.5,3.07-6.21,5-11.28,5-8.94,0-16.89-7.46-16.89-18.71s7.95-18.74,16.89-18.74C63.33,24.53,67.07,26.5,69.57,29.61ZM51.47,43.28c0,5.3,3.6,9.62,9.24,9.62,5.49,0,9.2-4.16,9.2-9.62s-3.71-9.66-9.2-9.66C55.07,33.62,51.47,37.94,51.47,43.28Z"/><line class="cls-3" x1="69.04" y1="43.44" x2="206.17" y2="43.44"/><circle class="cls-1" cx="205.35" cy="43.8" r="10.96"/></g></g></svg>